<ttFont>
    <TTGlyph name=".notdef" xMin="177" yMin="0" xMax="1593" yMax="1416">
      <contour>
        <pt x="1593" y="1416" on="1"/>
        <pt x="1593" y="0" on="1"/>
        <pt x="177" y="0" on="1"/>
        <pt x="177" y="1416" on="1"/>
      </contour>
      <contour>
        <pt x="883" y="605" on="1"/>
        <pt x="1220" y="252" on="1"/>
        <pt x="1333" y="365" on="1"/>
        <pt x="985" y="708" on="1"/>
        <pt x="1333" y="1042" on="1"/>
        <pt x="1214" y="1158" on="1"/>
        <pt x="886" y="807" on="1"/>
        <pt x="553" y="1159" on="1"/>
        <pt x="439" y="1043" on="1"/>
        <pt x="783" y="705" on="1"/>
        <pt x="440" y="387" on="1"/>
        <pt x="559" y="252" on="1"/>
      </contour>
    </TTGlyph>
    <TTGlyph name="A" xMin="-23" yMin="0" xMax="1432" yMax="1537">
      <contour>
        <pt x="109" y="107" on="1"/>
        <pt x="619" y="1537" on="1"/>
        <pt x="787" y="1537" on="1"/>
        <pt x="1298" y="107" on="1"/>
        <pt x="1432" y="88" on="1"/>
        <pt x="1432" y="0" on="1"/>
        <pt x="932" y="0" on="1"/>
        <pt x="932" y="88" on="1"/>
        <pt x="1112" y="107" on="1"/>
        <pt x="1003" y="433" on="1"/>
        <pt x="364" y="433" on="1"/>
        <pt x="257" y="108" on="1"/>
        <pt x="438" y="88" on="1"/>
        <pt x="438" y="0" on="1"/>
        <pt x="-23" y="0" on="1"/>
        <pt x="-23" y="88" on="1"/>
      </contour>
      <contour>
        <pt x="967" y="539" on="1"/>
        <pt x="737" y="1220" on="1"/>
        <pt x="680" y="1415" on="1"/>
        <pt x="624" y="1214" on="1"/>
        <pt x="399" y="539" on="1"/>
      </contour>
    </TTGlyph>
    <TTGlyph name="AE" xMin="-185" yMin="0" xMax="1832" yMax="1522">
      <contour>
        <pt x="822" y="106" on="1"/>
        <pt x="822" y="450" on="1"/>
        <pt x="268" y="450" on="1"/>
        <pt x="124" y="107" on="1"/>
        <pt x="284" y="87" on="1"/>
        <pt x="284" y="0" on="1"/>
        <pt x="-185" y="0" on="1"/>
        <pt x="-185" y="87" on="1"/>
        <pt x="-35" y="106" on="1"/>
        <pt x="554" y="1415" on="1"/>
        <pt x="276" y="1437" on="1"/>
        <pt x="276" y="1522" on="1"/>
        <pt x="1656" y="1522" on="1"/>
        <pt x="1691" y="1214" on="1"/>
        <pt x="1594" y="1214" on="1"/>
        <pt x="1532" y="1421" on="1"/>
        <pt x="989" y="1430" on="1"/>
        <pt x="989" y="832" on="1"/>
        <pt x="1360" y="838" on="1"/>
        <pt x="1385" y="1007" on="1"/>
        <pt x="1488" y="1007" on="1"/>
        <pt x="1488" y="555" on="1"/>
        <pt x="1385" y="555" on="1"/>
        <pt x="1360" y="731" on="1"/>
        <pt x="989" y="736" on="1"/>
        <pt x="989" y="101" on="1"/>
        <pt x="1616" y="121" on="1"/>
        <pt x="1735" y="377" on="1"/>
        <pt x="1832" y="351" on="1"/>
        <pt x="1755" y="0" on="1"/>
        <pt x="640" y="0" on="1"/>
        <pt x="640" y="87" on="1"/>
      </contour>
      <contour>
        <pt x="822" y="557" on="1"/>
        <pt x="822" y="1424" on="1"/>
        <pt x="679" y="1424" on="1"/>
        <pt x="566" y="1161" on="1"/>
        <pt x="313" y="557" on="1"/>
      </contour>
    </TTGlyph>
    <TTGlyph name="AEacute" xMin="-185" yMin="0" xMax="1832" yMax="2008">
      <component glyphName="acute.cap" x="278" y="0" flags="0x0"/>
      <component glyphName="AE" x="0" y="0" flags="0x0"/>
    </TTGlyph>
    <TTGlyph name="Aacute" xMin="-23" yMin="0" xMax="1432" yMax="2008">
      <component glyphName="A" x="0" y="0" flags="0x0"/>
      <component glyphName="acute.cap" x="21" y="0" flags="0x0"/>
    </TTGlyph>
    <TTGlyph name="Abreve" xMin="-23" yMin="0" xMax="1432" yMax="1995">
      <component glyphName="A" x="0" y="0" flags="0x0"/>
      <component glyphName="breve.cap" x="193" y="0" flags="0x0"/>
    </TTGlyph>
    <TTGlyph name="Acircumflex" xMin="-23" yMin="0" xMax="1432" yMax="2014">
      <component glyphName="A" x="0" y="0" flags="0x0"/>
      <component glyphName="circumflex.cap" x="170" y="0" flags="0x0"/>
    </TTGlyph>
    <TTGlyph name="Adieresis" xMin="-23" yMin="0" xMax="1432" yMax="1961">
      <component glyphName="A" x="0" y="0" flags="0x0"/>
      <component glyphName="dieresis.cap" x="193" y="0" flags="0x0"/>
    </TTGlyph>
    <TTGlyph name="Agrave" xMin="-23" yMin="0" xMax="1432" yMax="2008">
      <component glyphName="A" x="0" y="0" flags="0x0"/>
      <component glyphName="grave.cap" x="325" y="0" flags="0x0"/>
    </TTGlyph>
    <TTGlyph name="Amacron" xMin="-23" yMin="0" xMax="1432" yMax="1885">
      <component glyphName="A" x="0" y="0" flags="0x0"/>
      <component glyphName="macron.cap" x="363" y="0" flags="0x0"/>
    </TTGlyph>
    <TTGlyph name="Aogonek" xMin="-23" yMin="-510" xMax="1432" yMax="1537">
      <contour>
        <pt x="109" y="107" on="1"/>
        <pt x="619" y="1537" on="1"/>
        <pt x="787" y="1537" on="1"/>
        <pt x="1298" y="107" on="1"/>
        <pt x="1432" y="88" on="1"/>
        <pt x="1432" y="0" on="1"/>
        <pt x="1263" y="0" on="1"/>
        <pt x="1198" y="-28" on="0"/>
        <pt x="1094" y="-119" on="0"/>
        <pt x="1035" y="-221" on="0"/>
        <pt x="1035" y="-264" on="1"/>
        <pt x="1035" y="-332" on="0"/>
        <pt x="1124" y="-395" on="0"/>
        <pt x="1195" y="-395" on="1"/>
        <pt x="1234" y="-395" on="0"/>
        <pt x="1317" y="-373" on="0"/>
        <pt x="1354" y="-354" on="1"/>
        <pt x="1354" y="-440" on="1"/>
        <pt x="1311" y="-472" on="0"/>
        <pt x="1185" y="-510" on="0"/>
        <pt x="1122" y="-510" on="1"/>
        <pt x="1016" y="-510" on="0"/>
        <pt x="874" y="-419" on="0"/>
        <pt x="874" y="-318" on="1"/>
        <pt x="874" y="-263" on="0"/>
        <pt x="945" y="-138" on="0"/>
        <pt x="1065" y="-30" on="0"/>
        <pt x="1135" y="0" on="1"/>
        <pt x="932" y="0" on="1"/>
        <pt x="932" y="88" on="1"/>
        <pt x="1112" y="107" on="1"/>
        <pt x="1003" y="433" on="1"/>
        <pt x="364" y="433" on="1"/>
        <pt x="257" y="108" on="1"/>
        <pt x="438" y="88" on="1"/>
        <pt x="438" y="0" on="1"/>
        <pt x="-23" y="0" on="1"/>
        <pt x="-23" y="88" on="1"/>
      </contour>
      <contour>
        <pt x="967" y="539" on="1"/>
        <pt x="737" y="1220" on="1"/>
        <pt x="680" y="1415" on="1"/>
        <pt x="624" y="1214" on="1"/>
        <pt x="399" y="539" on="1"/>
      </contour>
    </TTGlyph>
    <TTGlyph name="Aring" xMin="-23" yMin="0" xMax="1432" yMax="2014">
      <contour>
        <pt x="1432" y="88" on="1"/>
        <pt x="1432" y="0" on="1"/>
        <pt x="932" y="0" on="1"/>
        <pt x="932" y="88" on="1"/>
        <pt x="1112" y="107" on="1"/>
        <pt x="1003" y="433" on="1"/>
        <pt x="364" y="433" on="1"/>
        <pt x="257" y="108" on="1"/>
        <pt x="438" y="88" on="1"/>
        <pt x="438" y="0" on="1"/>
        <pt x="-23" y="0" on="1"/>
        <pt x="-23" y="88" on="1"/>
        <pt x="109" y="107" on="1"/>
        <pt x="614" y="1523" on="1"/>
        <pt x="500" y="1541" on="0"/>
        <pt x="382" y="1670" on="0"/>
        <pt x="382" y="1763" on="1"/>
        <pt x="382" y="1844" on="0"/>
        <pt x="477" y="1957" on="0"/>
        <pt x="629" y="2014" on="0"/>
        <pt x="714" y="2014" on="1"/>
        <pt x="715" y="2014" on="1"/>
        <pt x="814" y="2014" on="0"/>
        <pt x="953" y="1952" on="0"/>
        <pt x="1025" y="1840" on="0"/>
        <pt x="1025" y="1765" on="1"/>
        <pt x="1025" y="1668" on="0"/>
        <pt x="895" y="1544" on="0"/>
        <pt x="792" y="1524" on="1"/>
        <pt x="1298" y="107" on="1"/>
      </contour>
      <contour>
        <pt x="509" y="1694" on="0"/>
        <pt x="608" y="1596" on="0"/>
        <pt x="706" y="1596" on="1"/>
        <pt x="707" y="1596" on="1"/>
        <pt x="803" y="1596" on="0"/>
        <pt x="899" y="1677" on="0"/>
        <pt x="899" y="1756" on="1"/>
        <pt x="899" y="1836" on="0"/>
        <pt x="806" y="1931" on="0"/>
        <pt x="709" y="1931" on="1"/>
        <pt x="708" y="1931" on="1"/>
        <pt x="613" y="1931" on="0"/>
        <pt x="509" y="1848" on="0"/>
        <pt x="509" y="1769" on="1"/>
      </contour>
      <contour>
        <pt x="967" y="539" on="1"/>
        <pt x="737" y="1220" on="1"/>
        <pt x="680" y="1415" on="1"/>
        <pt x="624" y="1214" on="1"/>
        <pt x="399" y="539" on="1"/>
      </contour>
    </TTGlyph>
    <TTGlyph name="Atilde" xMin="-23" yMin="0" xMax="1432" yMax="2003">
      <component glyphName="A" x="0" y="0" flags="0x0"/>
      <component glyphName="tilde.cap" x="193" y="0" flags="0x0"/>
    </TTGlyph>
    <TTGlyph name="B" xMin="103" yMin="-12" xMax="1296" yMax="1538">
      <contour>
        <pt x="278" y="107" on="1"/>
        <pt x="278" y="1411" on="1"/>
        <pt x="107" y="1434" on="1"/>
        <pt x="107" y="1522" on="1"/>
        <pt x="363" y="1522" on="1"/>
        <pt x="440" y="1522" on="0"/>
        <pt x="537" y="1531" on="1"/>
        <pt x="553" y="1532" on="0"/>
        <pt x="643" y="1538" on="0"/>
        <pt x="681" y="1538" on="1"/>
        <pt x="947" y="1538" on="0"/>
        <pt x="1187" y="1363" on="0"/>
        <pt x="1187" y="1194" on="1"/>
        <pt x="1187" y="1100" on="0"/>
        <pt x="1118" y="940" on="0"/>
        <pt x="982" y="829" on="0"/>
        <pt x="885" y="810" on="1"/>
        <pt x="1012" y="815" on="0"/>
        <pt x="1198" y="728" on="0"/>
        <pt x="1296" y="563" on="0"/>
        <pt x="1296" y="455" on="1"/>
        <pt x="1296" y="325" on="0"/>
        <pt x="1179" y="116" on="0"/>
        <pt x="904" y="-12" on="0"/>
        <pt x="679" y="-12" on="1"/>
        <pt x="625" y="-12" on="0"/>
        <pt x="555" y="-7" on="1"/>
        <pt x="431" y="0" on="0"/>
        <pt x="355" y="0" on="1"/>
        <pt x="103" y="0" on="1"/>
        <pt x="103" y="88" on="1"/>
      </contour>
      <contour>
        <pt x="488" y="843" on="0"/>
        <pt x="623" y="843" on="1"/>
        <pt x="699" y="843" on="1"/>
        <pt x="854" y="843" on="0"/>
        <pt x="1018" y="1005" on="0"/>
        <pt x="1018" y="1156" on="1"/>
        <pt x="1018" y="1254" on="0"/>
        <pt x="950" y="1380" on="0"/>
        <pt x="793" y="1444" on="0"/>
        <pt x="660" y="1444" on="1"/>
        <pt x="593" y="1444" on="0"/>
        <pt x="501" y="1435" on="1"/>
        <pt x="457" y="1431" on="0"/>
        <pt x="447" y="1431" on="1"/>
        <pt x="447" y="846" on="1"/>
      </contour>
      <contour>
        <pt x="506" y="85" on="0"/>
        <pt x="678" y="85" on="1"/>
        <pt x="907" y="85" on="0"/>
        <pt x="1113" y="260" on="0"/>
        <pt x="1113" y="423" on="1"/>
        <pt x="1113" y="534" on="0"/>
        <pt x="1036" y="672" on="0"/>
        <pt x="872" y="738" on="0"/>
        <pt x="740" y="738" on="1"/>
        <pt x="622" y="738" on="1"/>
        <pt x="484" y="738" on="0"/>
        <pt x="447" y="736" on="1"/>
        <pt x="447" y="103" on="1"/>
      </contour>
    </TTGlyph>
    <TTGlyph name="C" xMin="74" yMin="-23" xMax="1251" yMax="1538">
      <contour>
        <pt x="74" y="992" on="0"/>
        <pt x="265" y="1343" on="0"/>
        <pt x="598" y="1538" on="0"/>
        <pt x="803" y="1538" on="1"/>
        <pt x="907" y="1538" on="0"/>
        <pt x="1101" y="1505" on="0"/>
        <pt x="1202" y="1481" on="1"/>
        <pt x="1235" y="1473" on="1"/>
        <pt x="1218" y="1139" on="1"/>
        <pt x="1112" y="1139" on="1"/>
        <pt x="1068" y="1376" on="1"/>
        <pt x="1038" y="1403" on="0"/>
        <pt x="878" y="1439" on="0"/>
        <pt x="762" y="1439" on="1"/>
        <pt x="621" y="1439" on="0"/>
        <pt x="396" y="1286" on="0"/>
        <pt x="267" y="991" on="0"/>
        <pt x="267" y="786" on="1"/>
        <pt x="267" y="594" on="0"/>
        <pt x="379" y="270" on="0"/>
        <pt x="608" y="75" on="0"/>
        <pt x="776" y="75" on="1"/>
        <pt x="893" y="75" on="0"/>
        <pt x="1022" y="114" on="0"/>
        <pt x="1069" y="151" on="1"/>
        <pt x="1151" y="344" on="1"/>
        <pt x="1251" y="329" on="1"/>
        <pt x="1201" y="56" on="1"/>
        <pt x="1173" y="55" on="0"/>
        <pt x="1121" y="41" on="0"/>
        <pt x="1080" y="28" on="1"/>
        <pt x="1008" y="4" on="0"/>
        <pt x="873" y="-23" on="0"/>
        <pt x="772" y="-23" on="1"/>
        <pt x="552" y="-23" on="0"/>
        <pt x="238" y="173" on="0"/>
        <pt x="74" y="530" on="0"/>
        <pt x="74" y="768" on="1"/>
      </contour>
    </TTGlyph>
    <TTGlyph name="Cacute" xMin="74" yMin="-23" xMax="1251" yMax="2008">
      <component glyphName="C" x="0" y="0" flags="0x0"/>
      <component glyphName="acute.cap" x="102" y="0" flags="0x0"/>
    </TTGlyph>
    <TTGlyph name="Ccaron" xMin="74" yMin="-23" xMax="1251" yMax="2011">
      <component glyphName="C" x="0" y="0" flags="0x0"/>
      <component glyphName="caron.cap" x="444" y="0" flags="0x0"/>
    </TTGlyph>
    <TTGlyph name="Ccedilla" xMin="74" yMin="-481" xMax="1251" yMax="1538">
      <contour>
        <pt x="1201" y="56" on="1"/>
        <pt x="1174" y="55" on="0"/>
        <pt x="1123" y="42" on="0"/>
        <pt x="1081" y="28" on="1"/>
        <pt x="1009" y="5" on="0"/>
        <pt x="880" y="-22" on="0"/>
        <pt x="784" y="-23" on="1"/>
        <pt x="825" y="-71" on="0"/>
        <pt x="891" y="-211" on="0"/>
        <pt x="891" y="-282" on="1"/>
        <pt x="891" y="-389" on="0"/>
        <pt x="765" y="-481" on="0"/>
        <pt x="641" y="-481" on="1"/>
        <pt x="640" y="-481" on="1"/>
        <pt x="605" y="-481" on="0"/>
        <pt x="522" y="-466" on="0"/>
        <pt x="496" y="-454" on="1"/>
        <pt x="497" y="-334" on="1"/>
        <pt x="517" y="-341" on="0"/>
        <pt x="574" y="-350" on="0"/>
        <pt x="591" y="-350" on="1"/>
        <pt x="592" y="-350" on="1"/>
        <pt x="647" y="-350" on="0"/>
        <pt x="712" y="-328" on="0"/>
        <pt x="747" y="-265" on="0"/>
        <pt x="747" y="-204" on="1"/>
        <pt x="747" y="-157" on="0"/>
        <pt x="712" y="-58" on="0"/>
        <pt x="689" y="-19" on="1"/>
        <pt x="494" y="-1" on="0"/>
        <pt x="218" y="203" on="0"/>
        <pt x="74" y="545" on="0"/>
        <pt x="74" y="768" on="1"/>
        <pt x="74" y="992" on="0"/>
        <pt x="265" y="1343" on="0"/>
        <pt x="598" y="1538" on="0"/>
        <pt x="803" y="1538" on="1"/>
        <pt x="907" y="1538" on="0"/>
        <pt x="1101" y="1505" on="0"/>
        <pt x="1202" y="1481" on="1"/>
        <pt x="1235" y="1473" on="1"/>
        <pt x="1218" y="1139" on="1"/>
        <pt x="1112" y="1139" on="1"/>
        <pt x="1068" y="1376" on="1"/>
        <pt x="1038" y="1403" on="0"/>
        <pt x="878" y="1439" on="0"/>
        <pt x="762" y="1439" on="1"/>
        <pt x="621" y="1439" on="0"/>
        <pt x="396" y="1286" on="0"/>
        <pt x="267" y="991" on="0"/>
        <pt x="267" y="786" on="1"/>
        <pt x="267" y="594" on="0"/>
        <pt x="379" y="270" on="0"/>
        <pt x="608" y="75" on="0"/>
        <pt x="776" y="75" on="1"/>
        <pt x="893" y="75" on="0"/>
        <pt x="1022" y="114" on="0"/>
        <pt x="1069" y="151" on="1"/>
        <pt x="1151" y="344" on="1"/>
        <pt x="1251" y="329" on="1"/>
      </contour>
    </TTGlyph>
    <TTGlyph name="Ccircumflex" xMin="74" yMin="-23" xMax="1251" yMax="2014">
      <component glyphName="C" x="0" y="0" flags="0x0"/>
      <component glyphName="circumflex.cap" x="251" y="0" flags="0x0"/>
    </TTGlyph>
    <TTGlyph name="Cdotaccent" xMin="74" yMin="-23" xMax="1251" yMax="1965">
      <component glyphName="dotaccent.cap" x="494" y="0" flags="0x0"/>
      <component glyphName="C" x="0" y="0" flags="0x0"/>
    </TTGlyph>
    <TTGlyph name="D" xMin="102" yMin="-16" xMax="1475" yMax="1538">
      <contour>
        <pt x="278" y="107" on="1"/>
        <pt x="278" y="1411" on="1"/>
        <pt x="114" y="1434" on="1"/>
        <pt x="114" y="1522" on="1"/>
        <pt x="362" y="1522" on="1"/>
        <pt x="425" y="1522" on="0"/>
        <pt x="547" y="1530" on="1"/>
        <pt x="665" y="1538" on="0"/>
        <pt x="724" y="1538" on="1"/>
        <pt x="1109" y="1538" on="0"/>
        <pt x="1475" y="1151" on="0"/>
        <pt x="1475" y="806" on="1"/>
        <pt x="1475" y="563" on="0"/>
        <pt x="1283" y="190" on="0"/>
        <pt x="940" y="-16" on="0"/>
        <pt x="720" y="-16" on="1"/>
        <pt x="683" y="-16" on="0"/>
        <pt x="582" y="-10" on="0"/>
        <pt x="562" y="-9" on="1"/>
        <pt x="449" y="0" on="0"/>
        <pt x="365" y="0" on="1"/>
        <pt x="102" y="0" on="1"/>
        <pt x="102" y="88" on="1"/>
      </contour>
      <contour>
        <pt x="545" y="82" on="0"/>
        <pt x="662" y="82" on="1"/>
        <pt x="723" y="83" on="1"/>
        <pt x="890" y="86" on="0"/>
        <pt x="1148" y="246" on="0"/>
        <pt x="1294" y="554" on="0"/>
        <pt x="1294" y="771" on="1"/>
        <pt x="1294" y="1440" on="0"/>
        <pt x="672" y="1440" on="1"/>
        <pt x="612" y="1440" on="0"/>
        <pt x="506" y="1431" on="1"/>
        <pt x="447" y="1427" on="1"/>
        <pt x="447" y="100" on="1"/>
      </contour>
    </TTGlyph>
    <TTGlyph name="Dcaron" xMin="102" yMin="-16" xMax="1475" yMax="2011">
      <component glyphName="caron.cap" x="456" y="0" flags="0x0"/>
      <component glyphName="D" x="0" y="0" flags="0x0"/>
    </TTGlyph>
    <TTGlyph name="Dcroat" xMin="102" yMin="-16" xMax="1475" yMax="1538">
      <contour>
        <pt x="278" y="835" on="1"/>
        <pt x="278" y="1411" on="1"/>
        <pt x="114" y="1434" on="1"/>
        <pt x="114" y="1522" on="1"/>
        <pt x="362" y="1522" on="1"/>
        <pt x="425" y="1522" on="0"/>
        <pt x="547" y="1530" on="1"/>
        <pt x="665" y="1538" on="0"/>
        <pt x="724" y="1538" on="1"/>
        <pt x="1109" y="1538" on="0"/>
        <pt x="1475" y="1151" on="0"/>
        <pt x="1475" y="806" on="1"/>
        <pt x="1475" y="563" on="0"/>
        <pt x="1283" y="190" on="0"/>
        <pt x="940" y="-16" on="0"/>
        <pt x="720" y="-16" on="1"/>
        <pt x="683" y="-16" on="0"/>
        <pt x="582" y="-10" on="0"/>
        <pt x="562" y="-9" on="1"/>
        <pt x="449" y="0" on="0"/>
        <pt x="365" y="0" on="1"/>
        <pt x="102" y="0" on="1"/>
        <pt x="102" y="88" on="1"/>
        <pt x="278" y="107" on="1"/>
        <pt x="278" y="729" on="1"/>
        <pt x="120" y="729" on="1"/>
        <pt x="120" y="835" on="1"/>
      </contour>
      <contour>
        <pt x="832" y="835" on="1"/>
        <pt x="832" y="729" on="1"/>
        <pt x="447" y="729" on="1"/>
        <pt x="447" y="100" on="1"/>
        <pt x="545" y="82" on="0"/>
        <pt x="662" y="82" on="1"/>
        <pt x="723" y="83" on="1"/>
        <pt x="890" y="86" on="0"/>
        <pt x="1148" y="246" on="0"/>
        <pt x="1294" y="554" on="0"/>
        <pt x="1294" y="771" on="1"/>
        <pt x="1294" y="1440" on="0"/>
        <pt x="672" y="1440" on="1"/>
        <pt x="612" y="1440" on="0"/>
        <pt x="506" y="1431" on="1"/>
        <pt x="447" y="1427" on="1"/>
        <pt x="447" y="835" on="1"/>
      </contour>
    </TTGlyph>
    <TTGlyph name="E" xMin="103" yMin="0" xMax="1275" yMax="1522">
      <contour>
        <pt x="278" y="107" on="1"/>
        <pt x="278" y="1411" on="1"/>
        <pt x="107" y="1434" on="1"/>
        <pt x="107" y="1522" on="1"/>
        <pt x="1120" y="1522" on="1"/>
        <pt x="1148" y="1221" on="1"/>
        <pt x="1051" y="1221" on="1"/>
        <pt x="995" y="1418" on="1"/>
        <pt x="447" y="1427" on="1"/>
        <pt x="447" y="831" on="1"/>
        <pt x="824" y="837" on="1"/>
        <pt x="849" y="1007" on="1"/>
        <pt x="953" y="1007" on="1"/>
        <pt x="953" y="555" on="1"/>
        <pt x="849" y="555" on="1"/>
        <pt x="824" y="730" on="1"/>
        <pt x="447" y="735" on="1"/>
        <pt x="447" y="104" on="1"/>
        <pt x="1074" y="121" on="1"/>
        <pt x="1178" y="377" on="1"/>
        <pt x="1275" y="346" on="1"/>
        <pt x="1212" y="0" on="1"/>
        <pt x="103" y="0" on="1"/>
        <pt x="103" y="88" on="1"/>
      </contour>
    </TTGlyph>
    <TTGlyph name="Eacute" xMin="103" yMin="0" xMax="1275" yMax="2008">
      <component glyphName="acute.cap" x="15" y="0" flags="0x0"/>
      <component glyphName="E" x="0" y="0" flags="0x0"/>
    </TTGlyph>
    <TTGlyph name="Ebreve" xMin="103" yMin="0" xMax="1275" yMax="1995">
      <component glyphName="breve.cap" x="187" y="0" flags="0x0"/>
      <component glyphName="E" x="0" y="0" flags="0x0"/>
    </TTGlyph>
    <TTGlyph name="Ecaron" xMin="103" yMin="0" xMax="1275" yMax="2011">
      <component glyphName="caron.cap" x="357" y="0" flags="0x0"/>
      <component glyphName="E" x="0" y="0" flags="0x0"/>
    </TTGlyph>
    <TTGlyph name="Ecircumflex" xMin="103" yMin="0" xMax="1275" yMax="2014">
      <component glyphName="E" x="0" y="0" flags="0x0"/>
      <component glyphName="circumflex.cap" x="163" y="0" flags="0x0"/>
    </TTGlyph>
    <TTGlyph name="Edieresis" xMin="103" yMin="0" xMax="1275" yMax="1961">
      <component glyphName="dieresis.cap" x="187" y="0" flags="0x0"/>
      <component glyphName="E" x="0" y="0" flags="0x0"/>
    </TTGlyph>
    <TTGlyph name="Edotaccent" xMin="103" yMin="0" xMax="1275" yMax="1965">
      <component glyphName="dotaccent.cap" x="407" y="0" flags="0x0"/>
      <component glyphName="E" x="0" y="0" flags="0x0"/>
    </TTGlyph>
    <TTGlyph name="Egrave" xMin="103" yMin="0" xMax="1275" yMax="2008">
      <component glyphName="grave.cap" x="286" y="0" flags="0x0"/>
      <component glyphName="E" x="0" y="0" flags="0x0"/>
    </TTGlyph>
    <TTGlyph name="Emacron" xMin="103" yMin="0" xMax="1275" yMax="1885">
      <component glyphName="macron.cap" x="357" y="0" flags="0x0"/>
      <component glyphName="E" x="0" y="0" flags="0x0"/>
    </TTGlyph>
    <TTGlyph name="Eng" xMin="117" yMin="-348" xMax="1573" yMax="1522">
      <contour>
        <pt x="280" y="107" on="1"/>
        <pt x="280" y="1411" on="1"/>
        <pt x="117" y="1435" on="1"/>
        <pt x="117" y="1522" on="1"/>
        <pt x="453" y="1522" on="1"/>
        <pt x="1133" y="471" on="1"/>
        <pt x="1288" y="194" on="1"/>
        <pt x="1288" y="1412" on="1"/>
        <pt x="1115" y="1435" on="1"/>
        <pt x="1115" y="1522" on="1"/>
        <pt x="1573" y="1522" on="1"/>
        <pt x="1573" y="1435" on="1"/>
        <pt x="1406" y="1412" on="1"/>
        <pt x="1406" y="346" on="1"/>
        <pt x="1406" y="195" on="0"/>
        <pt x="1375" y="0" on="0"/>
        <pt x="1321" y="-115" on="0"/>
        <pt x="1280" y="-161" on="1"/>
        <pt x="1198" y="-252" on="0"/>
        <pt x="1022" y="-336" on="0"/>
        <pt x="913" y="-348" on="1"/>
        <pt x="869" y="-276" on="1"/>
        <pt x="968" y="-254" on="0"/>
        <pt x="1123" y="-159" on="0"/>
        <pt x="1173" y="-87" on="1"/>
        <pt x="1211" y="-34" on="0"/>
        <pt x="1230" y="27" on="1"/>
        <pt x="557" y="1054" on="1"/>
        <pt x="399" y="1341" on="1"/>
        <pt x="399" y="107" on="1"/>
        <pt x="586" y="87" on="1"/>
        <pt x="586" y="0" on="1"/>
        <pt x="117" y="0" on="1"/>
        <pt x="117" y="87" on="1"/>
      </contour>
    </TTGlyph>
    <TTGlyph name="Eogonek" xMin="103" yMin="-510" xMax="1275" yMax="1522">
      <contour>
        <pt x="278" y="107" on="1"/>
        <pt x="278" y="1411" on="1"/>
        <pt x="107" y="1434" on="1"/>
        <pt x="107" y="1522" on="1"/>
        <pt x="1120" y="1522" on="1"/>
        <pt x="1148" y="1221" on="1"/>
        <pt x="1051" y="1221" on="1"/>
        <pt x="995" y="1418" on="1"/>
        <pt x="447" y="1427" on="1"/>
        <pt x="447" y="831" on="1"/>
        <pt x="824" y="837" on="1"/>
        <pt x="849" y="1007" on="1"/>
        <pt x="953" y="1007" on="1"/>
        <pt x="953" y="555" on="1"/>
        <pt x="849" y="555" on="1"/>
        <pt x="824" y="730" on="1"/>
        <pt x="447" y="735" on="1"/>
        <pt x="447" y="104" on="1"/>
        <pt x="1074" y="121" on="1"/>
        <pt x="1178" y="377" on="1"/>
        <pt x="1275" y="346" on="1"/>
        <pt x="1212" y="0" on="1"/>
        <pt x="1185" y="0" on="1"/>
        <pt x="1119" y="-13" on="0"/>
        <pt x="983" y="-103" on="0"/>
        <pt x="894" y="-218" on="0"/>
        <pt x="894" y="-264" on="1"/>
        <pt x="894" y="-332" on="0"/>
        <pt x="983" y="-395" on="0"/>
        <pt x="1053" y="-395" on="1"/>
        <pt x="1091" y="-395" on="0"/>
        <pt x="1176" y="-373" on="0"/>
        <pt x="1213" y="-354" on="1"/>
        <pt x="1213" y="-440" on="1"/>
        <pt x="1170" y="-472" on="0"/>
        <pt x="1044" y="-510" on="0"/>
        <pt x="981" y="-510" on="1"/>
        <pt x="875" y="-510" on="0"/>
        <pt x="732" y="-419" on="0"/>
        <pt x="732" y="-318" on="1"/>
        <pt x="732" y="-263" on="0"/>
        <pt x="811" y="-138" on="0"/>
        <pt x="945" y="-30" on="0"/>
        <pt x="1021" y="0" on="1"/>
        <pt x="103" y="0" on="1"/>
        <pt x="103" y="88" on="1"/>
      </contour>
    </TTGlyph>
    <TTGlyph name="Eth" xMin="102" yMin="-16" xMax="1475" yMax="1538">
      <contour>
        <pt x="278" y="841" on="1"/>
        <pt x="278" y="1411" on="1"/>
        <pt x="114" y="1434" on="1"/>
        <pt x="114" y="1522" on="1"/>
        <pt x="362" y="1522" on="1"/>
        <pt x="425" y="1522" on="0"/>
        <pt x="547" y="1530" on="1"/>
        <pt x="665" y="1538" on="0"/>
        <pt x="724" y="1538" on="1"/>
        <pt x="1109" y="1538" on="0"/>
        <pt x="1475" y="1151" on="0"/>
        <pt x="1475" y="806" on="1"/>
        <pt x="1475" y="563" on="0"/>
        <pt x="1283" y="190" on="0"/>
        <pt x="940" y="-16" on="0"/>
        <pt x="720" y="-16" on="1"/>
        <pt x="683" y="-16" on="0"/>
        <pt x="582" y="-10" on="0"/>
        <pt x="562" y="-9" on="1"/>
        <pt x="449" y="0" on="0"/>
        <pt x="365" y="0" on="1"/>
        <pt x="102" y="0" on="1"/>
        <pt x="102" y="88" on="1"/>
        <pt x="278" y="107" on="1"/>
        <pt x="278" y="748" on="1"/>
        <pt x="121" y="748" on="1"/>
        <pt x="121" y="841" on="1"/>
      </contour>
      <contour>
        <pt x="832" y="841" on="1"/>
        <pt x="832" y="748" on="1"/>
        <pt x="447" y="748" on="1"/>
        <pt x="447" y="100" on="1"/>
        <pt x="545" y="82" on="0"/>
        <pt x="662" y="82" on="1"/>
        <pt x="723" y="83" on="1"/>
        <pt x="890" y="86" on="0"/>
        <pt x="1148" y="246" on="0"/>
        <pt x="1294" y="554" on="0"/>
        <pt x="1294" y="771" on="1"/>
        <pt x="1294" y="1440" on="0"/>
        <pt x="672" y="1440" on="1"/>
        <pt x="612" y="1440" on="0"/>
        <pt x="506" y="1431" on="1"/>
        <pt x="447" y="1427" on="1"/>
        <pt x="447" y="841" on="1"/>
      </contour>
    </TTGlyph>
    <TTGlyph name="Euro" xMin="92" yMin="-28" xMax="1401" yMax="1566">
      <contour>
        <pt x="324" y="655" on="1"/>
        <pt x="323" y="678" on="0"/>
        <pt x="323" y="725" on="1"/>
        <pt x="323" y="826" on="0"/>
        <pt x="337" y="922" on="1"/>
        <pt x="115" y="922" on="1"/>
        <pt x="115" y="1027" on="1"/>
        <pt x="359" y="1027" on="1"/>
        <pt x="402" y="1195" on="0"/>
        <pt x="585" y="1437" on="0"/>
        <pt x="853" y="1566" on="0"/>
        <pt x="1018" y="1566" on="1"/>
        <pt x="1106" y="1566" on="0"/>
        <pt x="1249" y="1537" on="0"/>
        <pt x="1334" y="1512" on="1"/>
        <pt x="1391" y="1496" on="0"/>
        <pt x="1401" y="1494" on="1"/>
        <pt x="1385" y="1171" on="1"/>
        <pt x="1291" y="1171" on="1"/>
        <pt x="1259" y="1394" on="1"/>
        <pt x="1226" y="1424" on="0"/>
        <pt x="1070" y="1464" on="0"/>
        <pt x="972" y="1464" on="1"/>
        <pt x="795" y="1464" on="0"/>
        <pt x="566" y="1238" on="0"/>
        <pt x="523" y="1027" on="1"/>
        <pt x="1093" y="1027" on="1"/>
        <pt x="1093" y="922" on="1"/>
        <pt x="507" y="922" on="1"/>
        <pt x="499" y="840" on="0"/>
        <pt x="499" y="760" on="1"/>
        <pt x="499" y="706" on="0"/>
        <pt x="502" y="655" on="1"/>
        <pt x="1062" y="655" on="1"/>
        <pt x="1062" y="550" on="1"/>
        <pt x="511" y="550" on="1"/>
        <pt x="540" y="320" on="0"/>
        <pt x="757" y="64" on="0"/>
        <pt x="968" y="64" on="1"/>
        <pt x="1056" y="64" on="0"/>
        <pt x="1186" y="114" on="0"/>
        <pt x="1250" y="162" on="1"/>
        <pt x="1303" y="325" on="1"/>
        <pt x="1396" y="307" on="1"/>
        <pt x="1375" y="68" on="1"/>
        <pt x="1355" y="67" on="0"/>
        <pt x="1314" y="54" on="0"/>
        <pt x="1274" y="39" on="1"/>
        <pt x="1192" y="8" on="0"/>
        <pt x="1041" y="-28" on="0"/>
        <pt x="929" y="-28" on="1"/>
        <pt x="670" y="-28" on="0"/>
        <pt x="370" y="279" on="0"/>
        <pt x="334" y="550" on="1"/>
        <pt x="92" y="550" on="1"/>
        <pt x="92" y="655" on="1"/>
      </contour>
    </TTGlyph>
    <TTGlyph name="F" xMin="99" yMin="0" xMax="1192" yMax="1522">
      <contour>
        <pt x="278" y="106" on="1"/>
        <pt x="278" y="1411" on="1"/>
        <pt x="99" y="1434" on="1"/>
        <pt x="99" y="1522" on="1"/>
        <pt x="1171" y="1522" on="1"/>
        <pt x="1192" y="1185" on="1"/>
        <pt x="1080" y="1185" on="1"/>
        <pt x="1024" y="1418" on="1"/>
        <pt x="447" y="1427" on="1"/>
        <pt x="447" y="821" on="1"/>
        <pt x="856" y="827" on="1"/>
        <pt x="890" y="994" on="1"/>
        <pt x="985" y="994" on="1"/>
        <pt x="985" y="541" on="1"/>
        <pt x="890" y="541" on="1"/>
        <pt x="856" y="714" on="1"/>
        <pt x="447" y="722" on="1"/>
        <pt x="447" y="107" on="1"/>
        <pt x="767" y="88" on="1"/>
        <pt x="767" y="0" on="1"/>
        <pt x="111" y="0" on="1"/>
        <pt x="111" y="88" on="1"/>
      </contour>
    </TTGlyph>
    <TTGlyph name="G" xMin="99" yMin="-23" xMax="1471" yMax="1538">
      <contour>
        <pt x="99" y="986" on="0"/>
        <pt x="301" y="1349" on="0"/>
        <pt x="650" y="1538" on="0"/>
        <pt x="866" y="1538" on="1"/>
        <pt x="1001" y="1538" on="0"/>
        <pt x="1221" y="1500" on="0"/>
        <pt x="1329" y="1474" on="1"/>
        <pt x="1313" y="1134" on="1"/>
        <pt x="1206" y="1134" on="1"/>
        <pt x="1161" y="1371" on="1"/>
        <pt x="1127" y="1397" on="0"/>
        <pt x="974" y="1440" on="0"/>
        <pt x="847" y="1440" on="1"/>
        <pt x="686" y="1440" on="0"/>
        <pt x="435" y="1292" on="0"/>
        <pt x="291" y="998" on="0"/>
        <pt x="291" y="789" on="1"/>
        <pt x="291" y="601" on="0"/>
        <pt x="408" y="276" on="0"/>
        <pt x="645" y="76" on="0"/>
        <pt x="816" y="76" on="1"/>
        <pt x="924" y="76" on="0"/>
        <pt x="1118" y="127" on="0"/>
        <pt x="1173" y="170" on="1"/>
        <pt x="1173" y="636" on="1"/>
        <pt x="889" y="657" on="1"/>
        <pt x="889" y="765" on="1"/>
        <pt x="1471" y="765" on="1"/>
        <pt x="1471" y="657" on="1"/>
        <pt x="1345" y="636" on="1"/>
        <pt x="1345" y="82" on="1"/>
        <pt x="1318" y="81" on="0"/>
        <pt x="1254" y="64" on="0"/>
        <pt x="1202" y="48" on="1"/>
        <pt x="1098" y="15" on="0"/>
        <pt x="917" y="-23" on="0"/>
        <pt x="803" y="-23" on="1"/>
        <pt x="586" y="-23" on="0"/>
        <pt x="268" y="174" on="0"/>
        <pt x="99" y="519" on="0"/>
        <pt x="99" y="736" on="1"/>
      </contour>
    </TTGlyph>
    <TTGlyph name="Gbreve" xMin="102" yMin="-23" xMax="1474" yMax="1995">
      <component glyphName="breve.cap" x="312" y="0" flags="0x0"/>
      <component glyphName="G" x="3" y="0" flags="0x0"/>
    </TTGlyph>
    <TTGlyph name="Gcircumflex" xMin="99" yMin="-23" xMax="1471" yMax="2014">
      <component glyphName="G" x="0" y="0" flags="0x0"/>
      <component glyphName="circumflex.cap" x="287" y="0" flags="0x0"/>
    </TTGlyph>
    <TTGlyph name="Gcommaaccent" xMin="106" yMin="-557" xMax="1478" yMax="1538">
      <component glyphName="uni0326" x="1136" y="0" flags="0x0"/>
      <component glyphName="G" x="7" y="0" flags="0x0"/>
    </TTGlyph>
    <TTGlyph name="Gdotaccent" xMin="102" yMin="-23" xMax="1474" yMax="1965">
      <component glyphName="dotaccent.cap" x="532" y="0" flags="0x0"/>
      <component glyphName="G" x="3" y="0" flags="0x0"/>
    </TTGlyph>
    <TTGlyph name="H" xMin="110" yMin="0" xMax="1572" yMax="1522">
      <contour>
        <pt x="284" y="107" on="1"/>
        <pt x="284" y="1411" on="1"/>
        <pt x="116" y="1434" on="1"/>
        <pt x="116" y="1522" on="1"/>
        <pt x="631" y="1522" on="1"/>
        <pt x="631" y="1434" on="1"/>
        <pt x="453" y="1412" on="1"/>
        <pt x="453" y="836" on="1"/>
        <pt x="1234" y="836" on="1"/>
        <pt x="1234" y="1411" on="1"/>
        <pt x="1064" y="1434" on="1"/>
        <pt x="1064" y="1522" on="1"/>
        <pt x="1572" y="1522" on="1"/>
        <pt x="1572" y="1434" on="1"/>
        <pt x="1404" y="1411" on="1"/>
        <pt x="1404" y="107" on="1"/>
        <pt x="1572" y="88" on="1"/>
        <pt x="1572" y="0" on="1"/>
        <pt x="1063" y="0" on="1"/>
        <pt x="1063" y="88" on="1"/>
        <pt x="1234" y="107" on="1"/>
        <pt x="1234" y="728" on="1"/>
        <pt x="453" y="728" on="1"/>
        <pt x="453" y="106" on="1"/>
        <pt x="632" y="88" on="1"/>
        <pt x="632" y="0" on="1"/>
        <pt x="110" y="0" on="1"/>
        <pt x="110" y="88" on="1"/>
      </contour>
    </TTGlyph>
    <TTGlyph name="Hbar" xMin="50" yMin="0" xMax="1638" yMax="1523">
      <contour>
        <pt x="284" y="1136" on="1"/>
        <pt x="284" y="1411" on="1"/>
        <pt x="116" y="1434" on="1"/>
        <pt x="116" y="1523" on="1"/>
        <pt x="629" y="1523" on="1"/>
        <pt x="629" y="1434" on="1"/>
        <pt x="451" y="1411" on="1"/>
        <pt x="451" y="1136" on="1"/>
        <pt x="1237" y="1136" on="1"/>
        <pt x="1237" y="1411" on="1"/>
        <pt x="1066" y="1434" on="1"/>
        <pt x="1066" y="1523" on="1"/>
        <pt x="1572" y="1523" on="1"/>
        <pt x="1572" y="1434" on="1"/>
        <pt x="1404" y="1411" on="1"/>
        <pt x="1404" y="1136" on="1"/>
        <pt x="1638" y="1136" on="1"/>
        <pt x="1638" y="1042" on="1"/>
        <pt x="1404" y="1042" on="1"/>
        <pt x="1404" y="110" on="1"/>
        <pt x="1572" y="86" on="1"/>
        <pt x="1572" y="1" on="1"/>
        <pt x="1066" y="1" on="1"/>
        <pt x="1066" y="86" on="1"/>
        <pt x="1237" y="110" on="1"/>
        <pt x="1237" y="632" on="1"/>
        <pt x="451" y="632" on="1"/>
        <pt x="451" y="107" on="1"/>
        <pt x="630" y="89" on="1"/>
        <pt x="630" y="0" on="1"/>
        <pt x="110" y="0" on="1"/>
        <pt x="110" y="89" on="1"/>
        <pt x="284" y="107" on="1"/>
        <pt x="284" y="1042" on="1"/>
        <pt x="50" y="1042" on="1"/>
        <pt x="50" y="1136" on="1"/>
      </contour>
      <contour>
        <pt x="1237" y="1042" on="1"/>
        <pt x="451" y="1042" on="1"/>
        <pt x="451" y="738" on="1"/>
        <pt x="1237" y="738" on="1"/>
      </contour>
    </TTGlyph>
    <TTGlyph name="Hcircumflex" xMin="110" yMin="0" xMax="1572" yMax="2014">
      <component glyphName="H" x="0" y="0" flags="0x0"/>
      <component glyphName="circumflex.cap" x="311" y="0" flags="0x0"/>
    </TTGlyph>
    <TTGlyph name="I" xMin="122" yMin="0" xMax="691" yMax="1522">
      <contour>
        <pt x="322" y="107" on="1"/>
        <pt x="322" y="1411" on="1"/>
        <pt x="122" y="1434" on="1"/>
        <pt x="122" y="1522" on="1"/>
        <pt x="691" y="1522" on="1"/>
        <pt x="691" y="1434" on="1"/>
        <pt x="492" y="1412" on="1"/>
        <pt x="492" y="107" on="1"/>
        <pt x="691" y="87" on="1"/>
        <pt x="691" y="0" on="1"/>
        <pt x="122" y="0" on="1"/>
        <pt x="122" y="88" on="1"/>
      </contour>
    </TTGlyph>
    <TTGlyph name="I.uc" xMin="122" yMin="0" xMax="691" yMax="1965">
      <component glyphName="I" x="0" y="0" flags="0x0"/>
      <component glyphName="dotaccent.cap" x="120" y="0" flags="0x0"/>
    </TTGlyph>
    <TTGlyph name="IJ" xMin="122" yMin="-354" xMax="1491" yMax="1522">
      <component glyphName="I" x="0" y="0" flags="0x0"/>
      <component glyphName="J" x="814" y="0" flags="0x0"/>
    </TTGlyph>
    <TTGlyph name="IJ_acutecomb" xMin="122" yMin="-354" xMax="1522" yMax="2008">
      <component glyphName="I" x="0" y="0" flags="0x0"/>
      <component glyphName="acute.cap" x="-272" y="0" flags="0x0"/>
      <component glyphName="J" x="814" y="0" flags="0x0"/>
      <component glyphName="acute.cap" x="522" y="0" flags="0x0"/>
    </TTGlyph>
    <TTGlyph name="Iacute" xMin="122" yMin="0" xMax="728" yMax="2008">
      <component glyphName="I" x="0" y="0" flags="0x0"/>
      <component glyphName="acute.cap" x="-272" y="0" flags="0x0"/>
    </TTGlyph>
    <TTGlyph name="Ibreve" xMin="81" yMin="0" xMax="735" yMax="1995">
      <component glyphName="I" x="0" y="0" flags="0x0"/>
      <component glyphName="breve.cap" x="-100" y="0" flags="0x0"/>
    </TTGlyph>
    <TTGlyph name="Icircumflex" xMin="69" yMin="0" xMax="750" yMax="2014">
      <component glyphName="I" x="0" y="0" flags="0x0"/>
      <component glyphName="circumflex.cap" x="-123" y="0" flags="0x0"/>
    </TTGlyph>
    <TTGlyph name="Idieresis" xMin="54" yMin="0" xMax="768" yMax="1961">
      <component glyphName="I" x="0" y="0" flags="0x0"/>
      <component glyphName="dieresis.cap" x="-100" y="0" flags="0x0"/>
    </TTGlyph>
    <TTGlyph name="Idotaccent" xMin="122" yMin="0" xMax="691" yMax="1965">
      <component glyphName="I" x="0" y="0" flags="0x0"/>
      <component glyphName="dotaccent.cap" x="120" y="0" flags="0x0"/>
    </TTGlyph>
    <TTGlyph name="Igrave" xMin="117" yMin="0" xMax="691" yMax="2008">
      <component glyphName="I" x="0" y="0" flags="0x0"/>
      <component glyphName="grave.cap" x="32" y="0" flags="0x0"/>
    </TTGlyph>
    <TTGlyph name="Imacron" xMin="122" yMin="0" xMax="691" yMax="1885">
      <component glyphName="I" x="0" y="0" flags="0x0"/>
      <component glyphName="macron.cap" x="70" y="0" flags="0x0"/>
    </TTGlyph>
    <TTGlyph name="Iogonek" xMin="115" yMin="-510" xMax="691" yMax="1522">
      <contour>
        <pt x="322" y="107" on="1"/>
        <pt x="322" y="1411" on="1"/>
        <pt x="122" y="1434" on="1"/>
        <pt x="122" y="1522" on="1"/>
        <pt x="691" y="1522" on="1"/>
        <pt x="691" y="1434" on="1"/>
        <pt x="492" y="1412" on="1"/>
        <pt x="492" y="107" on="1"/>
        <pt x="691" y="87" on="1"/>
        <pt x="691" y="0" on="1"/>
        <pt x="513" y="0" on="1"/>
        <pt x="450" y="-29" on="0"/>
        <pt x="341" y="-120" on="0"/>
        <pt x="277" y="-222" on="0"/>
        <pt x="277" y="-264" on="1"/>
        <pt x="277" y="-332" on="0"/>
        <pt x="366" y="-395" on="0"/>
        <pt x="436" y="-395" on="1"/>
        <pt x="474" y="-395" on="0"/>
        <pt x="559" y="-373" on="0"/>
        <pt x="596" y="-354" on="1"/>
        <pt x="596" y="-440" on="1"/>
        <pt x="553" y="-472" on="0"/>
        <pt x="427" y="-510" on="0"/>
        <pt x="364" y="-510" on="1"/>
        <pt x="258" y="-510" on="0"/>
        <pt x="115" y="-419" on="0"/>
        <pt x="115" y="-318" on="1"/>
        <pt x="115" y="-264" on="0"/>
        <pt x="192" y="-139" on="0"/>
        <pt x="317" y="-31" on="0"/>
        <pt x="384" y="0" on="1"/>
        <pt x="122" y="0" on="1"/>
        <pt x="122" y="88" on="1"/>
      </contour>
    </TTGlyph>
    <TTGlyph name="Itilde" xMin="7" yMin="0" xMax="815" yMax="2003">
      <component glyphName="I" x="0" y="0" flags="0x0"/>
      <component glyphName="tilde.cap" x="-100" y="0" flags="0x0"/>
    </TTGlyph>
    <TTGlyph name="J" xMin="-3" yMin="-354" xMax="677" yMax="1522">
      <contour>
        <pt x="92" y="-255" on="0"/>
        <pt x="239" y="-118" on="0"/>
        <pt x="270" y="-18" on="1"/>
        <pt x="297" y="66" on="0"/>
        <pt x="312" y="278" on="0"/>
        <pt x="312" y="518" on="1"/>
        <pt x="312" y="1410" on="1"/>
        <pt x="107" y="1434" on="1"/>
        <pt x="107" y="1522" on="1"/>
        <pt x="677" y="1522" on="1"/>
        <pt x="677" y="1434" on="1"/>
        <pt x="482" y="1410" on="1"/>
        <pt x="482" y="563" on="1"/>
        <pt x="482" y="438" on="1"/>
        <pt x="482" y="293" on="0"/>
        <pt x="474" y="113" on="0"/>
        <pt x="460" y="43" on="1"/>
        <pt x="438" y="-69" on="0"/>
        <pt x="309" y="-236" on="0"/>
        <pt x="135" y="-337" on="0"/>
        <pt x="42" y="-354" on="1"/>
        <pt x="-3" y="-281" on="1"/>
      </contour>
    </TTGlyph>
    <TTGlyph name="Jcircumflex" xMin="-3" yMin="-354" xMax="730" yMax="2014">
      <component glyphName="J" x="0" y="0" flags="0x0"/>
      <component glyphName="circumflex.cap" x="-143" y="0" flags="0x0"/>
    </TTGlyph>
    <TTGlyph name="K" xMin="109" yMin="0" xMax="1460" yMax="1522">
      <contour>
        <pt x="1188" y="0" on="0"/>
        <pt x="1109" y="93" on="0"/>
        <pt x="1024" y="231" on="0"/>
        <pt x="953" y="353" on="1"/>
        <pt x="861" y="512" on="0"/>
        <pt x="734" y="712" on="0"/>
        <pt x="675" y="772" on="1"/>
        <pt x="453" y="520" on="1"/>
        <pt x="453" y="107" on="1"/>
        <pt x="646" y="85" on="1"/>
        <pt x="646" y="0" on="1"/>
        <pt x="109" y="0" on="1"/>
        <pt x="109" y="88" on="1"/>
        <pt x="284" y="107" on="1"/>
        <pt x="284" y="1411" on="1"/>
        <pt x="113" y="1434" on="1"/>
        <pt x="113" y="1522" on="1"/>
        <pt x="629" y="1522" on="1"/>
        <pt x="629" y="1434" on="1"/>
        <pt x="453" y="1411" on="1"/>
        <pt x="453" y="666" on="1"/>
        <pt x="1093" y="1412" on="1"/>
        <pt x="920" y="1434" on="1"/>
        <pt x="920" y="1522" on="1"/>
        <pt x="1394" y="1522" on="1"/>
        <pt x="1394" y="1434" on="1"/>
        <pt x="1246" y="1412" on="1"/>
        <pt x="774" y="885" on="1"/>
        <pt x="845" y="823" on="0"/>
        <pt x="1008" y="597" on="0"/>
        <pt x="1126" y="416" on="1"/>
        <pt x="1228" y="259" on="0"/>
        <pt x="1336" y="111" on="0"/>
        <pt x="1364" y="108" on="1"/>
        <pt x="1460" y="85" on="1"/>
        <pt x="1460" y="0" on="1"/>
        <pt x="1215" y="0" on="1"/>
      </contour>
    </TTGlyph>
    <TTGlyph name="Kcommaaccent" xMin="109" yMin="-557" xMax="1460" yMax="1522">
      <component glyphName="uni0326" x="1133" y="0" flags="0x0"/>
      <component glyphName="K" x="0" y="0" flags="0x0"/>
    </TTGlyph>
    <TTGlyph name="L" xMin="109" yMin="0" xMax="1249" yMax="1522">
      <contour>
        <pt x="284" y="107" on="1"/>
        <pt x="284" y="1411" on="1"/>
        <pt x="113" y="1434" on="1"/>
        <pt x="113" y="1522" on="1"/>
        <pt x="657" y="1522" on="1"/>
        <pt x="657" y="1434" on="1"/>
        <pt x="453" y="1412" on="1"/>
        <pt x="453" y="107" on="1"/>
        <pt x="1036" y="122" on="1"/>
        <pt x="1151" y="443" on="1"/>
        <pt x="1249" y="426" on="1"/>
        <pt x="1174" y="0" on="1"/>
        <pt x="109" y="0" on="1"/>
        <pt x="109" y="88" on="1"/>
      </contour>
    </TTGlyph>
    <TTGlyph name="Lacute" xMin="109" yMin="0" xMax="1249" yMax="2008">
      <component glyphName="acute.cap" x="-178" y="0" flags="0x0"/>
      <component glyphName="L" x="0" y="0" flags="0x0"/>
    </TTGlyph>
    <TTGlyph name="Lcaron" xMin="109" yMin="0" xMax="1249" yMax="1678">
      <component glyphName="L" x="0" y="0" flags="0x0"/>
      <component glyphName="caronvertical" x="845" y="0" flags="0x0"/>
    </TTGlyph>
    <TTGlyph name="Lcommaaccent" xMin="109" yMin="-557" xMax="1249" yMax="1522">
      <component glyphName="uni0326" x="1034" y="0" flags="0x0"/>
      <component glyphName="L" x="0" y="0" flags="0x0"/>
    </TTGlyph>
    <TTGlyph name="Ldot" xMin="109" yMin="0" xMax="1249" yMax="1522">
      <component glyphName="L" x="0" y="0" flags="0x0"/>
      <component glyphName="period" x="722" y="731" flags="0x4"/>
    </TTGlyph>
    <TTGlyph name="Lslash" xMin="52" yMin="0" xMax="1249" yMax="1522">
      <contour>
        <pt x="284" y="739" on="1"/>
        <pt x="284" y="1411" on="1"/>
        <pt x="113" y="1434" on="1"/>
        <pt x="113" y="1522" on="1"/>
        <pt x="657" y="1522" on="1"/>
        <pt x="657" y="1434" on="1"/>
        <pt x="453" y="1412" on="1"/>
        <pt x="453" y="810" on="1"/>
        <pt x="881" y="1002" on="1"/>
        <pt x="881" y="891" on="1"/>
        <pt x="453" y="702" on="1"/>
        <pt x="453" y="107" on="1"/>
        <pt x="1036" y="122" on="1"/>
        <pt x="1151" y="443" on="1"/>
        <pt x="1249" y="426" on="1"/>
        <pt x="1174" y="0" on="1"/>
        <pt x="109" y="0" on="1"/>
        <pt x="109" y="88" on="1"/>
        <pt x="284" y="107" on="1"/>
        <pt x="284" y="633" on="1"/>
        <pt x="52" y="532" on="1"/>
        <pt x="52" y="636" on="1"/>
      </contour>
    </TTGlyph>
    <TTGlyph name="M" xMin="4" yMin="0" xMax="2017" yMax="1522">
      <contour>
        <pt x="183" y="107" on="1"/>
        <pt x="345" y="1412" on="1"/>
        <pt x="113" y="1434" on="1"/>
        <pt x="113" y="1522" on="1"/>
        <pt x="592" y="1522" on="1"/>
        <pt x="937" y="576" on="1"/>
        <pt x="1015" y="302" on="1"/>
        <pt x="1077" y="576" on="1"/>
        <pt x="1374" y="1522" on="1"/>
        <pt x="1850" y="1522" on="1"/>
        <pt x="1850" y="1434" on="1"/>
        <pt x="1615" y="1411" on="1"/>
        <pt x="1834" y="108" on="1"/>
        <pt x="2017" y="88" on="1"/>
        <pt x="2017" y="0" on="1"/>
        <pt x="1471" y="0" on="1"/>
        <pt x="1471" y="88" on="1"/>
        <pt x="1660" y="107" on="1"/>
        <pt x="1513" y="1040" on="1"/>
        <pt x="1460" y="1451" on="1"/>
        <pt x="1376" y="1167" on="1"/>
        <pt x="1039" y="74" on="1"/>
        <pt x="967" y="74" on="1"/>
        <pt x="583" y="1053" on="1"/>
        <pt x="455" y="1451" on="1"/>
        <pt x="412" y="1041" on="1"/>
        <pt x="319" y="107" on="1"/>
        <pt x="521" y="88" on="1"/>
        <pt x="521" y="0" on="1"/>
        <pt x="4" y="0" on="1"/>
        <pt x="4" y="88" on="1"/>
      </contour>
    </TTGlyph>
    <TTGlyph name="N" xMin="115" yMin="0" xMax="1572" yMax="1522">
      <contour>
        <pt x="278" y="108" on="1"/>
        <pt x="278" y="1411" on="1"/>
        <pt x="115" y="1434" on="1"/>
        <pt x="115" y="1522" on="1"/>
        <pt x="445" y="1522" on="1"/>
        <pt x="1170" y="471" on="1"/>
        <pt x="1286" y="266" on="1"/>
        <pt x="1286" y="1411" on="1"/>
        <pt x="1106" y="1434" on="1"/>
        <pt x="1106" y="1522" on="1"/>
        <pt x="1572" y="1522" on="1"/>
        <pt x="1572" y="1434" on="1"/>
        <pt x="1405" y="1411" on="1"/>
        <pt x="1405" y="0" on="1"/>
        <pt x="1299" y="0" on="1"/>
        <pt x="566" y="1054" on="1"/>
        <pt x="397" y="1328" on="1"/>
        <pt x="397" y="107" on="1"/>
        <pt x="584" y="88" on="1"/>
        <pt x="584" y="0" on="1"/>
        <pt x="115" y="0" on="1"/>
        <pt x="115" y="88" on="1"/>
      </contour>
    </TTGlyph>
    <TTGlyph name="Nacute" xMin="115" yMin="0" xMax="1572" yMax="2008">
      <component glyphName="acute.cap" x="174" y="0" flags="0x0"/>
      <component glyphName="N" x="0" y="0" flags="0x0"/>
    </TTGlyph>
    <TTGlyph name="Ncaron" xMin="115" yMin="0" xMax="1572" yMax="2011">
      <component glyphName="caron.cap" x="520" y="0" flags="0x0"/>
      <component glyphName="N" x="0" y="0" flags="0x0"/>
    </TTGlyph>
    <TTGlyph name="Ncommaaccent" xMin="115" yMin="-557" xMax="1572" yMax="1522">
      <component glyphName="uni0326" x="1190" y="0" flags="0x0"/>
      <component glyphName="N" x="0" y="0" flags="0x0"/>
    </TTGlyph>
    <TTGlyph name="Ntilde" xMin="115" yMin="0" xMax="1572" yMax="2003">
      <component glyphName="tilde.cap" x="309" y="0" flags="0x0"/>
      <component glyphName="N" x="0" y="0" flags="0x0"/>
    </TTGlyph>
    <TTGlyph name="O" xMin="75" yMin="-23" xMax="1398" yMax="1538">
      <contour>
        <pt x="75" y="985" on="0"/>
        <pt x="255" y="1343" on="0"/>
        <pt x="567" y="1538" on="0"/>
        <pt x="757" y="1538" on="1"/>
        <pt x="961" y="1538" on="0"/>
        <pt x="1249" y="1350" on="0"/>
        <pt x="1398" y="1006" on="0"/>
        <pt x="1398" y="775" on="1"/>
        <pt x="1398" y="536" on="0"/>
        <pt x="1216" y="174" on="0"/>
        <pt x="901" y="-23" on="0"/>
        <pt x="709" y="-23" on="1"/>
        <pt x="510" y="-23" on="0"/>
        <pt x="224" y="171" on="0"/>
        <pt x="75" y="520" on="0"/>
        <pt x="75" y="749" on="1"/>
      </contour>
      <contour>
        <pt x="262" y="553" on="0"/>
        <pt x="373" y="246" on="0"/>
        <pt x="586" y="74" on="0"/>
        <pt x="734" y="74" on="1"/>
        <pt x="876" y="74" on="0"/>
        <pt x="1090" y="233" on="0"/>
        <pt x="1209" y="547" on="0"/>
        <pt x="1209" y="774" on="1"/>
        <pt x="1209" y="971" on="0"/>
        <pt x="1099" y="1274" on="0"/>
        <pt x="887" y="1442" on="0"/>
        <pt x="740" y="1442" on="1"/>
        <pt x="596" y="1442" on="0"/>
        <pt x="381" y="1287" on="0"/>
        <pt x="262" y="977" on="0"/>
        <pt x="262" y="750" on="1"/>
      </contour>
    </TTGlyph>
    <TTGlyph name="OE" xMin="75" yMin="-16" xMax="2051" yMax="1546">
      <contour>
        <pt x="1035" y="66" on="1"/>
        <pt x="890" y="-16" on="0"/>
        <pt x="713" y="-16" on="1"/>
        <pt x="515" y="-16" on="0"/>
        <pt x="227" y="177" on="0"/>
        <pt x="75" y="524" on="0"/>
        <pt x="75" y="751" on="1"/>
        <pt x="75" y="989" on="0"/>
        <pt x="261" y="1350" on="0"/>
        <pt x="581" y="1546" on="0"/>
        <pt x="774" y="1546" on="1"/>
        <pt x="917" y="1546" on="0"/>
        <pt x="1035" y="1491" on="1"/>
        <pt x="1035" y="1522" on="1"/>
        <pt x="1874" y="1522" on="1"/>
        <pt x="1903" y="1215" on="1"/>
        <pt x="1806" y="1215" on="1"/>
        <pt x="1751" y="1414" on="1"/>
        <pt x="1201" y="1424" on="1"/>
        <pt x="1201" y="833" on="1"/>
        <pt x="1581" y="839" on="1"/>
        <pt x="1606" y="1007" on="1"/>
        <pt x="1710" y="1007" on="1"/>
        <pt x="1710" y="555" on="1"/>
        <pt x="1606" y="555" on="1"/>
        <pt x="1581" y="732" on="1"/>
        <pt x="1201" y="737" on="1"/>
        <pt x="1201" y="100" on="1"/>
        <pt x="1835" y="120" on="1"/>
        <pt x="1954" y="377" on="1"/>
        <pt x="2051" y="350" on="1"/>
        <pt x="1973" y="0" on="1"/>
        <pt x="1035" y="0" on="1"/>
      </contour>
      <contour>
        <pt x="1035" y="1349" on="1"/>
        <pt x="927" y="1452" on="0"/>
        <pt x="746" y="1452" on="1"/>
        <pt x="599" y="1452" on="0"/>
        <pt x="379" y="1289" on="0"/>
        <pt x="259" y="973" on="0"/>
        <pt x="259" y="752" on="1"/>
        <pt x="259" y="565" on="0"/>
        <pt x="373" y="259" on="0"/>
        <pt x="592" y="79" on="0"/>
        <pt x="741" y="79" on="1"/>
        <pt x="923" y="79" on="0"/>
        <pt x="1035" y="197" on="1"/>
      </contour>
    </TTGlyph>
    <TTGlyph name="Oacute" xMin="75" yMin="-23" xMax="1398" yMax="2008">
      <component glyphName="acute.cap" x="59" y="0" flags="0x0"/>
      <component glyphName="O" x="0" y="0" flags="0x0"/>
    </TTGlyph>
    <TTGlyph name="Obreve" xMin="75" yMin="-23" xMax="1398" yMax="1995">
      <component glyphName="breve.cap" x="231" y="0" flags="0x0"/>
      <component glyphName="O" x="0" y="0" flags="0x0"/>
    </TTGlyph>
    <TTGlyph name="Ocircumflex" xMin="75" yMin="-23" xMax="1398" yMax="2014">
      <component glyphName="O" x="0" y="0" flags="0x0"/>
      <component glyphName="circumflex.cap" x="208" y="0" flags="0x0"/>
    </TTGlyph>
    <TTGlyph name="Odieresis" xMin="75" yMin="-23" xMax="1398" yMax="1961">
      <component glyphName="dieresis.cap" x="231" y="0" flags="0x0"/>
      <component glyphName="O" x="0" y="0" flags="0x0"/>
    </TTGlyph>
    <TTGlyph name="Ograve" xMin="75" yMin="-23" xMax="1398" yMax="2008">
      <component glyphName="grave.cap" x="363" y="0" flags="0x0"/>
      <component glyphName="O" x="0" y="0" flags="0x0"/>
    </TTGlyph>
    <TTGlyph name="Ohungarumlaut" xMin="75" yMin="-23" xMax="1398" yMax="2012">
      <component glyphName="O" x="0" y="0" flags="0x0"/>
      <component glyphName="hungarumlaut.cap" x="231" y="0" flags="0x0"/>
    </TTGlyph>
    <TTGlyph name="Omacron" xMin="75" yMin="-23" xMax="1398" yMax="1885">
      <component glyphName="macron.cap" x="401" y="0" flags="0x0"/>
      <component glyphName="O" x="0" y="0" flags="0x0"/>
    </TTGlyph>
    <TTGlyph name="Oslash" xMin="76" yMin="-203" xMax="1399" yMax="1707">
      <contour>
        <pt x="419" y="43" on="1"/>
        <pt x="253" y="129" on="0"/>
        <pt x="76" y="498" on="0"/>
        <pt x="76" y="749" on="1"/>
        <pt x="76" y="985" on="0"/>
        <pt x="256" y="1343" on="0"/>
        <pt x="568" y="1538" on="0"/>
        <pt x="758" y="1538" on="1"/>
        <pt x="879" y="1538" on="0"/>
        <pt x="981" y="1503" on="1"/>
        <pt x="1060" y="1707" on="1"/>
        <pt x="1139" y="1678" on="1"/>
        <pt x="1055" y="1472" on="1"/>
        <pt x="1222" y="1388" on="0"/>
        <pt x="1399" y="1026" on="0"/>
        <pt x="1399" y="775" on="1"/>
        <pt x="1399" y="539" on="0"/>
        <pt x="1221" y="179" on="0"/>
        <pt x="912" y="-19" on="0"/>
        <pt x="723" y="-23" on="1"/>
        <pt x="600" y="-24" on="0"/>
        <pt x="494" y="11" on="1"/>
        <pt x="404" y="-203" on="1"/>
        <pt x="325" y="-177" on="1"/>
      </contour>
      <contour>
        <pt x="263" y="555" on="0"/>
        <pt x="371" y="252" on="0"/>
        <pt x="473" y="167" on="1"/>
        <pt x="934" y="1396" on="1"/>
        <pt x="848" y="1442" on="0"/>
        <pt x="741" y="1442" on="1"/>
        <pt x="597" y="1442" on="0"/>
        <pt x="382" y="1287" on="0"/>
        <pt x="263" y="977" on="0"/>
        <pt x="263" y="750" on="1"/>
      </contour>
      <contour>
        <pt x="540" y="121" on="1"/>
        <pt x="626" y="74" on="0"/>
        <pt x="735" y="74" on="1"/>
        <pt x="877" y="74" on="0"/>
        <pt x="1091" y="233" on="0"/>
        <pt x="1210" y="547" on="0"/>
        <pt x="1210" y="774" on="1"/>
        <pt x="1210" y="967" on="0"/>
        <pt x="1103" y="1266" on="0"/>
        <pt x="1003" y="1350" on="1"/>
      </contour>
    </TTGlyph>
    <TTGlyph name="Otilde" xMin="75" yMin="-23" xMax="1398" yMax="2003">
      <component glyphName="tilde.cap" x="231" y="0" flags="0x0"/>
      <component glyphName="O" x="0" y="0" flags="0x0"/>
    </TTGlyph>
    <TTGlyph name="P" xMin="109" yMin="0" xMax="1255" yMax="1537">
      <contour>
        <pt x="284" y="107" on="1"/>
        <pt x="284" y="1411" on="1"/>
        <pt x="121" y="1434" on="1"/>
        <pt x="121" y="1522" on="1"/>
        <pt x="369" y="1522" on="1"/>
        <pt x="441" y="1522" on="0"/>
        <pt x="521" y="1529" on="1"/>
        <pt x="629" y="1537" on="0"/>
        <pt x="728" y="1537" on="1"/>
        <pt x="923" y="1537" on="0"/>
        <pt x="1155" y="1436" on="0"/>
        <pt x="1255" y="1247" on="0"/>
        <pt x="1255" y="1105" on="1"/>
        <pt x="1255" y="944" on="0"/>
        <pt x="1101" y="707" on="0"/>
        <pt x="834" y="581" on="0"/>
        <pt x="670" y="581" on="1"/>
        <pt x="610" y="581" on="0"/>
        <pt x="467" y="587" on="0"/>
        <pt x="453" y="590" on="1"/>
        <pt x="453" y="108" on="1"/>
        <pt x="737" y="88" on="1"/>
        <pt x="737" y="0" on="1"/>
        <pt x="109" y="0" on="1"/>
        <pt x="109" y="88" on="1"/>
      </contour>
      <contour>
        <pt x="849" y="682" on="0"/>
        <pt x="1075" y="880" on="0"/>
        <pt x="1075" y="1105" on="1"/>
        <pt x="1075" y="1226" on="0"/>
        <pt x="989" y="1372" on="0"/>
        <pt x="814" y="1438" on="0"/>
        <pt x="675" y="1438" on="1"/>
        <pt x="613" y="1438" on="0"/>
        <pt x="533" y="1430" on="1"/>
        <pt x="483" y="1425" on="0"/>
        <pt x="453" y="1425" on="1"/>
        <pt x="453" y="691" on="1"/>
        <pt x="502" y="682" on="0"/>
        <pt x="673" y="682" on="1"/>
      </contour>
    </TTGlyph>
    <TTGlyph name="Q" xMin="81" yMin="-413" xMax="1834" yMax="1538">
      <contour>
        <pt x="81" y="985" on="0"/>
        <pt x="261" y="1343" on="0"/>
        <pt x="573" y="1538" on="0"/>
        <pt x="763" y="1538" on="1"/>
        <pt x="967" y="1538" on="0"/>
        <pt x="1255" y="1350" on="0"/>
        <pt x="1404" y="1006" on="0"/>
        <pt x="1404" y="775" on="1"/>
        <pt x="1404" y="596" on="0"/>
        <pt x="1299" y="299" on="0"/>
        <pt x="1109" y="89" on="0"/>
        <pt x="984" y="33" on="1"/>
        <pt x="1053" y="28" on="0"/>
        <pt x="1187" y="-17" on="0"/>
        <pt x="1299" y="-75" on="0"/>
        <pt x="1386" y="-125" on="1"/>
        <pt x="1469" y="-173" on="0"/>
        <pt x="1580" y="-231" on="0"/>
        <pt x="1705" y="-270" on="0"/>
        <pt x="1768" y="-270" on="1"/>
        <pt x="1770" y="-270" on="1"/>
        <pt x="1788" y="-270" on="0"/>
        <pt x="1814" y="-268" on="1"/>
        <pt x="1834" y="-353" on="1"/>
        <pt x="1814" y="-372" on="0"/>
        <pt x="1725" y="-413" on="0"/>
        <pt x="1679" y="-413" on="1"/>
        <pt x="1668" y="-413" on="1"/>
        <pt x="1575" y="-413" on="0"/>
        <pt x="1408" y="-351" on="0"/>
        <pt x="1274" y="-261" on="0"/>
        <pt x="1182" y="-188" on="1"/>
        <pt x="1111" y="-132" on="0"/>
        <pt x="1019" y="-67" on="0"/>
        <pt x="915" y="-16" on="0"/>
        <pt x="861" y="-7" on="1"/>
        <pt x="793" y="-23" on="0"/>
        <pt x="715" y="-23" on="1"/>
        <pt x="516" y="-23" on="0"/>
        <pt x="230" y="171" on="0"/>
        <pt x="81" y="520" on="0"/>
        <pt x="81" y="749" on="1"/>
      </contour>
      <contour>
        <pt x="268" y="553" on="0"/>
        <pt x="379" y="246" on="0"/>
        <pt x="592" y="74" on="0"/>
        <pt x="740" y="74" on="1"/>
        <pt x="882" y="74" on="0"/>
        <pt x="1096" y="233" on="0"/>
        <pt x="1215" y="547" on="0"/>
        <pt x="1215" y="774" on="1"/>
        <pt x="1215" y="971" on="0"/>
        <pt x="1105" y="1274" on="0"/>
        <pt x="893" y="1442" on="0"/>
        <pt x="746" y="1442" on="1"/>
        <pt x="602" y="1442" on="0"/>
        <pt x="387" y="1287" on="0"/>
        <pt x="268" y="977" on="0"/>
        <pt x="268" y="750" on="1"/>
      </contour>
    </TTGlyph>
    <TTGlyph name="R" xMin="103" yMin="0" xMax="1417" yMax="1538">
      <contour>
        <pt x="278" y="106" on="1"/>
        <pt x="278" y="1414" on="1"/>
        <pt x="114" y="1437" on="1"/>
        <pt x="114" y="1522" on="1"/>
        <pt x="365" y="1522" on="1"/>
        <pt x="422" y="1522" on="0"/>
        <pt x="522" y="1530" on="1"/>
        <pt x="620" y="1538" on="0"/>
        <pt x="668" y="1538" on="1"/>
        <pt x="866" y="1538" on="0"/>
        <pt x="1104" y="1449" on="0"/>
        <pt x="1211" y="1273" on="0"/>
        <pt x="1211" y="1137" on="1"/>
        <pt x="1211" y="1040" on="0"/>
        <pt x="1137" y="862" on="0"/>
        <pt x="998" y="732" on="0"/>
        <pt x="903" y="705" on="1"/>
        <pt x="956" y="670" on="0"/>
        <pt x="1067" y="503" on="0"/>
        <pt x="1143" y="366" on="1"/>
        <pt x="1215" y="240" on="0"/>
        <pt x="1298" y="116" on="0"/>
        <pt x="1331" y="108" on="1"/>
        <pt x="1417" y="85" on="1"/>
        <pt x="1417" y="0" on="1"/>
        <pt x="1178" y="0" on="1"/>
        <pt x="1144" y="0" on="0"/>
        <pt x="1054" y="147" on="0"/>
        <pt x="981" y="295" on="1"/>
        <pt x="899" y="459" on="0"/>
        <pt x="787" y="646" on="0"/>
        <pt x="735" y="675" on="1"/>
        <pt x="525" y="675" on="0"/>
        <pt x="447" y="677" on="1"/>
        <pt x="447" y="106" on="1"/>
        <pt x="657" y="88" on="1"/>
        <pt x="657" y="0" on="1"/>
        <pt x="103" y="0" on="1"/>
        <pt x="103" y="88" on="1"/>
      </contour>
      <contour>
        <pt x="864" y="776" on="0"/>
        <pt x="1029" y="952" on="0"/>
        <pt x="1029" y="1123" on="1"/>
        <pt x="1029" y="1273" on="0"/>
        <pt x="860" y="1437" on="0"/>
        <pt x="652" y="1437" on="1"/>
        <pt x="579" y="1437" on="0"/>
        <pt x="509" y="1429" on="1"/>
        <pt x="461" y="1425" on="0"/>
        <pt x="447" y="1425" on="1"/>
        <pt x="447" y="779" on="1"/>
        <pt x="487" y="776" on="0"/>
        <pt x="611" y="776" on="1"/>
        <pt x="723" y="776" on="1"/>
      </contour>
    </TTGlyph>
    <TTGlyph name="Racute" xMin="103" yMin="0" xMax="1417" yMax="2008">
      <component glyphName="R" x="0" y="0" flags="0x0"/>
      <component glyphName="acute.cap" x="35" y="0" flags="0x0"/>
    </TTGlyph>
    <TTGlyph name="Rcaron" xMin="103" yMin="0" xMax="1417" yMax="2011">
      <component glyphName="caron.cap" x="378" y="0" flags="0x0"/>
      <component glyphName="R" x="0" y="0" flags="0x0"/>
    </TTGlyph>
    <TTGlyph name="Rcommaaccent" xMin="103" yMin="-557" xMax="1417" yMax="1538">
      <component glyphName="uni0326" x="1104" y="0" flags="0x0"/>
      <component glyphName="R" x="0" y="0" flags="0x0"/>
    </TTGlyph>
    <TTGlyph name="S" xMin="133" yMin="-23" xMax="1116" yMax="1538">
      <contour>
        <pt x="150" y="437" on="1"/>
        <pt x="255" y="437" on="1"/>
        <pt x="286" y="168" on="1"/>
        <pt x="325" y="131" on="0"/>
        <pt x="496" y="77" on="0"/>
        <pt x="596" y="77" on="1"/>
        <pt x="762" y="77" on="0"/>
        <pt x="939" y="229" on="0"/>
        <pt x="939" y="362" on="1"/>
        <pt x="939" y="447" on="0"/>
        <pt x="847" y="566" on="0"/>
        <pt x="700" y="650" on="0"/>
        <pt x="571" y="705" on="1"/>
        <pt x="451" y="757" on="0"/>
        <pt x="281" y="858" on="0"/>
        <pt x="154" y="1030" on="0"/>
        <pt x="154" y="1152" on="1"/>
        <pt x="154" y="1266" on="0"/>
        <pt x="277" y="1441" on="0"/>
        <pt x="496" y="1538" on="0"/>
        <pt x="636" y="1538" on="1"/>
        <pt x="724" y="1538" on="0"/>
        <pt x="872" y="1508" on="0"/>
        <pt x="957" y="1483" on="1"/>
        <pt x="998" y="1470" on="0"/>
        <pt x="1024" y="1465" on="1"/>
        <pt x="1011" y="1128" on="1"/>
        <pt x="910" y="1128" on="1"/>
        <pt x="872" y="1383" on="1"/>
        <pt x="848" y="1404" on="0"/>
        <pt x="707" y="1441" on="0"/>
        <pt x="627" y="1441" on="1"/>
        <pt x="474" y="1441" on="0"/>
        <pt x="315" y="1317" on="0"/>
        <pt x="315" y="1194" on="1"/>
        <pt x="315" y="1113" on="0"/>
        <pt x="395" y="1003" on="0"/>
        <pt x="526" y="925" on="0"/>
        <pt x="654" y="864" on="1"/>
        <pt x="677" y="853" on="1"/>
        <pt x="699" y="843" on="1"/>
        <pt x="834" y="779" on="0"/>
        <pt x="999" y="677" on="0"/>
        <pt x="1116" y="518" on="0"/>
        <pt x="1116" y="408" on="1"/>
        <pt x="1116" y="299" on="0"/>
        <pt x="989" y="101" on="0"/>
        <pt x="748" y="-23" on="0"/>
        <pt x="586" y="-23" on="1"/>
        <pt x="481" y="-23" on="0"/>
        <pt x="311" y="16" on="0"/>
        <pt x="218" y="47" on="1"/>
        <pt x="210" y="50" on="0"/>
        <pt x="150" y="69" on="0"/>
        <pt x="133" y="71" on="1"/>
      </contour>
    </TTGlyph>
    <TTGlyph name="Sacute" xMin="133" yMin="-23" xMax="1116" yMax="2008">
      <component glyphName="S" x="0" y="0" flags="0x0"/>
      <component glyphName="acute.cap" x="-36" y="0" flags="0x0"/>
    </TTGlyph>
    <TTGlyph name="Scaron" xMin="133" yMin="-23" xMax="1116" yMax="2011">
      <component glyphName="S" x="0" y="0" flags="0x0"/>
      <component glyphName="caron.cap" x="306" y="0" flags="0x0"/>
    </TTGlyph>
    <TTGlyph name="Scircumflex" xMin="133" yMin="-23" xMax="1116" yMax="2014">
      <component glyphName="S" x="0" y="0" flags="0x0"/>
      <component glyphName="circumflex.cap" x="113" y="0" flags="0x0"/>
    </TTGlyph>
    <TTGlyph name="Scommaaccent" xMin="133" yMin="-557" xMax="1116" yMax="1538">
      <component glyphName="uni0326" x="949" y="0" flags="0x0"/>
      <component glyphName="S" x="0" y="0" flags="0x0"/>
    </TTGlyph>
    <TTGlyph name="T" xMin="37" yMin="0" xMax="1342" yMax="1522">
      <contour>
        <pt x="604" y="107" on="1"/>
        <pt x="604" y="1429" on="1"/>
        <pt x="215" y="1418" on="1"/>
        <pt x="149" y="1001" on="1"/>
        <pt x="37" y="1001" on="1"/>
        <pt x="71" y="1522" on="1"/>
        <pt x="1319" y="1522" on="1"/>
        <pt x="1342" y="1001" on="1"/>
        <pt x="1232" y="1001" on="1"/>
        <pt x="1175" y="1418" on="1"/>
        <pt x="781" y="1429" on="1"/>
        <pt x="781" y="107" on="1"/>
        <pt x="1073" y="88" on="1"/>
        <pt x="1073" y="0" on="1"/>
        <pt x="336" y="0" on="1"/>
        <pt x="336" y="88" on="1"/>
      </contour>
    </TTGlyph>
    <TTGlyph name="Tbar" xMin="57" yMin="0" xMax="1362" yMax="1522">
      <contour>
        <pt x="624" y="791" on="1"/>
        <pt x="624" y="1429" on="1"/>
        <pt x="235" y="1418" on="1"/>
        <pt x="169" y="1001" on="1"/>
        <pt x="57" y="1001" on="1"/>
        <pt x="91" y="1522" on="1"/>
        <pt x="1339" y="1522" on="1"/>
        <pt x="1362" y="1001" on="1"/>
        <pt x="1252" y="1001" on="1"/>
        <pt x="1195" y="1418" on="1"/>
        <pt x="801" y="1429" on="1"/>
        <pt x="801" y="791" on="1"/>
        <pt x="1059" y="791" on="1"/>
        <pt x="1059" y="679" on="1"/>
        <pt x="801" y="679" on="1"/>
        <pt x="801" y="107" on="1"/>
        <pt x="1093" y="88" on="1"/>
        <pt x="1093" y="0" on="1"/>
        <pt x="356" y="0" on="1"/>
        <pt x="356" y="88" on="1"/>
        <pt x="624" y="107" on="1"/>
        <pt x="624" y="679" on="1"/>
        <pt x="368" y="679" on="1"/>
        <pt x="368" y="791" on="1"/>
      </contour>
    </TTGlyph>
    <TTGlyph name="Tcaron" xMin="37" yMin="0" xMax="1342" yMax="2011">
      <component glyphName="caron.cap" x="371" y="0" flags="0x0"/>
      <component glyphName="T" x="0" y="0" flags="0x0"/>
    </TTGlyph>
    <TTGlyph name="Thorn" xMin="103" yMin="0" xMax="1236" yMax="1523">
      <contour>
        <pt x="277" y="106" on="1"/>
        <pt x="277" y="1413" on="1"/>
        <pt x="106" y="1436" on="1"/>
        <pt x="106" y="1523" on="1"/>
        <pt x="627" y="1523" on="1"/>
        <pt x="627" y="1436" on="1"/>
        <pt x="443" y="1413" on="1"/>
        <pt x="443" y="1166" on="1"/>
        <pt x="506" y="1171" on="1"/>
        <pt x="569" y="1177" on="0"/>
        <pt x="710" y="1186" on="0"/>
        <pt x="769" y="1186" on="1"/>
        <pt x="992" y="1186" on="0"/>
        <pt x="1236" y="983" on="0"/>
        <pt x="1236" y="785" on="1"/>
        <pt x="1236" y="560" on="0"/>
        <pt x="955" y="336" on="0"/>
        <pt x="700" y="336" on="1"/>
        <pt x="603" y="336" on="0"/>
        <pt x="488" y="339" on="0"/>
        <pt x="443" y="344" on="1"/>
        <pt x="443" y="106" on="1"/>
        <pt x="665" y="87" on="1"/>
        <pt x="665" y="0" on="1"/>
        <pt x="103" y="0" on="1"/>
        <pt x="103" y="87" on="1"/>
      </contour>
      <contour>
        <pt x="1051" y="1087" on="0"/>
        <pt x="703" y="1087" on="1"/>
        <pt x="590" y="1087" on="0"/>
        <pt x="443" y="1067" on="1"/>
        <pt x="443" y="437" on="1"/>
        <pt x="515" y="428" on="0"/>
        <pt x="631" y="428" on="1"/>
        <pt x="694" y="428" on="1"/>
        <pt x="859" y="428" on="0"/>
        <pt x="1051" y="592" on="0"/>
        <pt x="1051" y="775" on="1"/>
      </contour>
    </TTGlyph>
    <TTGlyph name="U" xMin="56" yMin="-16" xMax="1475" yMax="1522">
      <contour>
        <pt x="208" y="1411" on="1"/>
        <pt x="56" y="1434" on="1"/>
        <pt x="56" y="1522" on="1"/>
        <pt x="557" y="1522" on="1"/>
        <pt x="557" y="1434" on="1"/>
        <pt x="381" y="1411" on="1"/>
        <pt x="381" y="633" on="1"/>
        <pt x="381" y="333" on="0"/>
        <pt x="597" y="83" on="0"/>
        <pt x="793" y="83" on="1"/>
        <pt x="989" y="83" on="0"/>
        <pt x="1189" y="355" on="0"/>
        <pt x="1189" y="617" on="1"/>
        <pt x="1189" y="1410" on="1"/>
        <pt x="1020" y="1434" on="1"/>
        <pt x="1020" y="1522" on="1"/>
        <pt x="1475" y="1522" on="1"/>
        <pt x="1475" y="1434" on="1"/>
        <pt x="1318" y="1411" on="1"/>
        <pt x="1318" y="625" on="1"/>
        <pt x="1318" y="410" on="0"/>
        <pt x="1180" y="122" on="0"/>
        <pt x="937" y="-16" on="0"/>
        <pt x="777" y="-16" on="1"/>
        <pt x="579" y="-16" on="0"/>
        <pt x="328" y="129" on="0"/>
        <pt x="208" y="423" on="0"/>
        <pt x="208" y="651" on="1"/>
      </contour>
    </TTGlyph>
    <TTGlyph name="Uacute" xMin="56" yMin="-16" xMax="1475" yMax="2008">
      <component glyphName="acute.cap" x="112" y="0" flags="0x0"/>
      <component glyphName="U" x="0" y="0" flags="0x0"/>
    </TTGlyph>
    <TTGlyph name="Ubreve" xMin="56" yMin="-16" xMax="1475" yMax="1995">
      <component glyphName="breve.cap" x="285" y="0" flags="0x0"/>
      <component glyphName="U" x="0" y="0" flags="0x0"/>
    </TTGlyph>
    <TTGlyph name="Ucircumflex" xMin="56" yMin="-16" xMax="1475" yMax="2014">
      <component glyphName="U" x="0" y="0" flags="0x0"/>
      <component glyphName="circumflex.cap" x="262" y="0" flags="0x0"/>
    </TTGlyph>
    <TTGlyph name="Udieresis" xMin="56" yMin="-16" xMax="1475" yMax="1961">
      <component glyphName="dieresis.cap" x="287" y="0" flags="0x0"/>
      <component glyphName="U" x="0" y="0" flags="0x0"/>
    </TTGlyph>
    <TTGlyph name="Ugrave" xMin="56" yMin="-16" xMax="1475" yMax="2008">
      <component glyphName="grave.cap" x="424" y="0" flags="0x0"/>
      <component glyphName="U" x="0" y="0" flags="0x0"/>
    </TTGlyph>
    <TTGlyph name="Uhungarumlaut" xMin="56" yMin="-16" xMax="1475" yMax="2012">
      <component glyphName="U" x="0" y="0" flags="0x0"/>
      <component glyphName="hungarumlaut.cap" x="285" y="0" flags="0x0"/>
    </TTGlyph>
    <TTGlyph name="Umacron" xMin="56" yMin="-16" xMax="1475" yMax="1885">
      <component glyphName="macron.cap" x="455" y="0" flags="0x0"/>
      <component glyphName="U" x="0" y="0" flags="0x0"/>
    </TTGlyph>
    <TTGlyph name="Uogonek" xMin="56" yMin="-510" xMax="1475" yMax="1522">
      <contour>
        <pt x="208" y="1411" on="1"/>
        <pt x="56" y="1434" on="1"/>
        <pt x="56" y="1522" on="1"/>
        <pt x="557" y="1522" on="1"/>
        <pt x="557" y="1434" on="1"/>
        <pt x="381" y="1411" on="1"/>
        <pt x="381" y="633" on="1"/>
        <pt x="381" y="333" on="0"/>
        <pt x="597" y="83" on="0"/>
        <pt x="793" y="83" on="1"/>
        <pt x="989" y="83" on="0"/>
        <pt x="1189" y="355" on="0"/>
        <pt x="1189" y="617" on="1"/>
        <pt x="1189" y="1410" on="1"/>
        <pt x="1020" y="1434" on="1"/>
        <pt x="1020" y="1522" on="1"/>
        <pt x="1475" y="1522" on="1"/>
        <pt x="1475" y="1434" on="1"/>
        <pt x="1318" y="1411" on="1"/>
        <pt x="1318" y="625" on="1"/>
        <pt x="1318" y="369" on="0"/>
        <pt x="1124" y="59" on="0"/>
        <pt x="954" y="8" on="1"/>
        <pt x="889" y="-27" on="0"/>
        <pt x="780" y="-122" on="0"/>
        <pt x="717" y="-221" on="0"/>
        <pt x="717" y="-263" on="1"/>
        <pt x="717" y="-331" on="0"/>
        <pt x="806" y="-395" on="0"/>
        <pt x="875" y="-395" on="1"/>
        <pt x="914" y="-395" on="0"/>
        <pt x="997" y="-373" on="0"/>
        <pt x="1035" y="-354" on="1"/>
        <pt x="1035" y="-440" on="1"/>
        <pt x="992" y="-472" on="0"/>
        <pt x="867" y="-510" on="0"/>
        <pt x="804" y="-510" on="1"/>
        <pt x="697" y="-510" on="0"/>
        <pt x="554" y="-419" on="0"/>
        <pt x="554" y="-318" on="1"/>
        <pt x="554" y="-267" on="0"/>
        <pt x="622" y="-151" on="0"/>
        <pt x="736" y="-48" on="0"/>
        <pt x="803" y="-15" on="1"/>
        <pt x="794" y="-16" on="0"/>
        <pt x="777" y="-16" on="1"/>
        <pt x="579" y="-16" on="0"/>
        <pt x="328" y="129" on="0"/>
        <pt x="208" y="423" on="0"/>
        <pt x="208" y="651" on="1"/>
      </contour>
    </TTGlyph>
    <TTGlyph name="Uring" xMin="56" yMin="-16" xMax="1475" yMax="2114">
      <component glyphName="U" x="0" y="0" flags="0x0"/>
      <component glyphName="ring.cap" x="447" y="100" flags="0x4"/>
    </TTGlyph>
    <TTGlyph name="Utilde" xMin="56" yMin="-16" xMax="1475" yMax="2003">
      <component glyphName="tilde.cap" x="285" y="0" flags="0x0"/>
      <component glyphName="U" x="0" y="0" flags="0x0"/>
    </TTGlyph>
    <TTGlyph name="V" xMin="-30" yMin="-16" xMax="1386" yMax="1522">
      <contour>
        <pt x="-30" y="1434" on="1"/>
        <pt x="-30" y="1522" on="1"/>
        <pt x="467" y="1522" on="1"/>
        <pt x="467" y="1434" on="1"/>
        <pt x="278" y="1412" on="1"/>
        <pt x="641" y="423" on="1"/>
        <pt x="727" y="145" on="1"/>
        <pt x="805" y="428" on="1"/>
        <pt x="1119" y="1411" on="1"/>
        <pt x="955" y="1434" on="1"/>
        <pt x="955" y="1522" on="1"/>
        <pt x="1386" y="1522" on="1"/>
        <pt x="1386" y="1434" on="1"/>
        <pt x="1256" y="1412" on="1"/>
        <pt x="768" y="-16" on="1"/>
        <pt x="633" y="-16" on="1"/>
        <pt x="97" y="1411" on="1"/>
      </contour>
    </TTGlyph>
    <TTGlyph name="W" xMin="-42" yMin="-11" xMax="2065" yMax="1522">
      <contour>
        <pt x="-42" y="1434" on="1"/>
        <pt x="-42" y="1522" on="1"/>
        <pt x="473" y="1522" on="1"/>
        <pt x="473" y="1434" on="1"/>
        <pt x="272" y="1411" on="1"/>
        <pt x="570" y="439" on="1"/>
        <pt x="637" y="114" on="1"/>
        <pt x="717" y="439" on="1"/>
        <pt x="963" y="1239" on="1"/>
        <pt x="907" y="1411" on="1"/>
        <pt x="756" y="1434" on="1"/>
        <pt x="756" y="1522" on="1"/>
        <pt x="1288" y="1522" on="1"/>
        <pt x="1288" y="1434" on="1"/>
        <pt x="1085" y="1411" on="1"/>
        <pt x="1374" y="439" on="1"/>
        <pt x="1454" y="91" on="1"/>
        <pt x="1521" y="439" on="1"/>
        <pt x="1795" y="1411" on="1"/>
        <pt x="1580" y="1434" on="1"/>
        <pt x="1580" y="1522" on="1"/>
        <pt x="2065" y="1522" on="1"/>
        <pt x="2065" y="1434" on="1"/>
        <pt x="1927" y="1411" on="1"/>
        <pt x="1508" y="-11" on="1"/>
        <pt x="1349" y="-11" on="1"/>
        <pt x="1018" y="1061" on="1"/>
        <pt x="692" y="-11" on="1"/>
        <pt x="543" y="-11" on="1"/>
        <pt x="100" y="1410" on="1"/>
      </contour>
    </TTGlyph>
    <TTGlyph name="Wacute" xMin="-42" yMin="-11" xMax="2065" yMax="2008">
      <component glyphName="acute.cap" x="324" y="0" flags="0x0"/>
      <component glyphName="W" x="0" y="0" flags="0x0"/>
    </TTGlyph>
    <TTGlyph name="Wcircumflex" xMin="-42" yMin="-11" xMax="2065" yMax="2014">
      <component glyphName="W" x="0" y="0" flags="0x0"/>
      <component glyphName="circumflex.cap" x="474" y="0" flags="0x0"/>
    </TTGlyph>
    <TTGlyph name="Wdieresis" xMin="-42" yMin="-11" xMax="2065" yMax="1961">
      <component glyphName="dieresis.cap" x="497" y="0" flags="0x0"/>
      <component glyphName="W" x="0" y="0" flags="0x0"/>
    </TTGlyph>
    <TTGlyph name="Wgrave" xMin="-42" yMin="-11" xMax="2065" yMax="2008">
      <component glyphName="grave.cap" x="628" y="0" flags="0x0"/>
      <component glyphName="W" x="0" y="0" flags="0x0"/>
    </TTGlyph>
    <TTGlyph name="X" xMin="15" yMin="0" xMax="1443" yMax="1522">
      <contour>
        <pt x="192" y="106" on="1"/>
        <pt x="642" y="771" on="1"/>
        <pt x="209" y="1410" on="1"/>
        <pt x="51" y="1434" on="1"/>
        <pt x="51" y="1522" on="1"/>
        <pt x="625" y="1522" on="1"/>
        <pt x="625" y="1434" on="1"/>
        <pt x="415" y="1410" on="1"/>
        <pt x="760" y="858" on="1"/>
        <pt x="1099" y="1411" on="1"/>
        <pt x="916" y="1434" on="1"/>
        <pt x="916" y="1522" on="1"/>
        <pt x="1405" y="1522" on="1"/>
        <pt x="1405" y="1434" on="1"/>
        <pt x="1244" y="1410" on="1"/>
        <pt x="815" y="790" on="1"/>
        <pt x="1281" y="106" on="1"/>
        <pt x="1443" y="88" on="1"/>
        <pt x="1443" y="0" on="1"/>
        <pt x="873" y="0" on="1"/>
        <pt x="873" y="88" on="1"/>
        <pt x="1073" y="107" on="1"/>
        <pt x="701" y="701" on="1"/>
        <pt x="343" y="106" on="1"/>
        <pt x="553" y="88" on="1"/>
        <pt x="553" y="0" on="1"/>
        <pt x="15" y="0" on="1"/>
        <pt x="15" y="88" on="1"/>
      </contour>
    </TTGlyph>
    <TTGlyph name="Y" xMin="-19" yMin="0" xMax="1332" yMax="1522">
      <contour>
        <pt x="582" y="107" on="1"/>
        <pt x="582" y="585" on="1"/>
        <pt x="109" y="1410" on="1"/>
        <pt x="-19" y="1434" on="1"/>
        <pt x="-19" y="1522" on="1"/>
        <pt x="472" y="1522" on="1"/>
        <pt x="472" y="1434" on="1"/>
        <pt x="299" y="1411" on="1"/>
        <pt x="609" y="831" on="1"/>
        <pt x="682" y="667" on="1"/>
        <pt x="761" y="831" on="1"/>
        <pt x="1058" y="1411" on="1"/>
        <pt x="887" y="1434" on="1"/>
        <pt x="887" y="1522" on="1"/>
        <pt x="1332" y="1522" on="1"/>
        <pt x="1332" y="1434" on="1"/>
        <pt x="1196" y="1411" on="1"/>
        <pt x="754" y="587" on="1"/>
        <pt x="754" y="108" on="1"/>
        <pt x="987" y="88" on="1"/>
        <pt x="987" y="0" on="1"/>
        <pt x="354" y="0" on="1"/>
        <pt x="354" y="88" on="1"/>
      </contour>
    </TTGlyph>
    <TTGlyph name="Yacute" xMin="-19" yMin="0" xMax="1332" yMax="2008">
      <component glyphName="Y" x="0" y="0" flags="0x0"/>
      <component glyphName="acute.cap" x="-4" y="0" flags="0x0"/>
    </TTGlyph>
    <TTGlyph name="Ycircumflex" xMin="-19" yMin="0" xMax="1332" yMax="2014">
      <component glyphName="Y" x="0" y="0" flags="0x0"/>
      <component glyphName="circumflex.cap" x="145" y="0" flags="0x0"/>
    </TTGlyph>
    <TTGlyph name="Ydieresis" xMin="-19" yMin="0" xMax="1332" yMax="1961">
      <component glyphName="Y" x="0" y="0" flags="0x0"/>
      <component glyphName="dieresis.cap" x="168" y="0" flags="0x0"/>
    </TTGlyph>
    <TTGlyph name="Ygrave" xMin="-19" yMin="0" xMax="1332" yMax="2008">
      <component glyphName="Y" x="0" y="0" flags="0x0"/>
      <component glyphName="grave.cap" x="300" y="0" flags="0x0"/>
    </TTGlyph>
    <TTGlyph name="Z" xMin="87" yMin="0" xMax="1249" yMax="1528">
      <contour>
        <pt x="903" y="1286" on="1"/>
        <pt x="1019" y="1434" on="1"/>
        <pt x="369" y="1413" on="1"/>
        <pt x="268" y="1146" on="1"/>
        <pt x="174" y="1157" on="1"/>
        <pt x="217" y="1528" on="1"/>
        <pt x="1182" y="1528" on="1"/>
        <pt x="1226" y="1452" on="1"/>
        <pt x="424" y="256" on="1"/>
        <pt x="291" y="96" on="1"/>
        <pt x="1049" y="132" on="1"/>
        <pt x="1151" y="454" on="1"/>
        <pt x="1249" y="433" on="1"/>
        <pt x="1201" y="0" on="1"/>
        <pt x="135" y="0" on="1"/>
        <pt x="87" y="80" on="1"/>
      </contour>
    </TTGlyph>
    <TTGlyph name="Zacute" xMin="87" yMin="0" xMax="1249" yMax="2008">
      <component glyphName="Z" x="0" y="0" flags="0x0"/>
      <component glyphName="acute.cap" x="24" y="0" flags="0x0"/>
    </TTGlyph>
    <TTGlyph name="Zcaron" xMin="88" yMin="0" xMax="1250" yMax="2011">
      <component glyphName="caron.cap" x="367" y="0" flags="0x0"/>
      <component glyphName="Z" x="1" y="0" flags="0x0"/>
    </TTGlyph>
    <TTGlyph name="Zdotaccent" xMin="88" yMin="0" xMax="1250" yMax="1965">
      <component glyphName="dotaccent.cap" x="417" y="0" flags="0x0"/>
      <component glyphName="Z" x="1" y="0" flags="0x0"/>
    </TTGlyph>
    <TTGlyph name="a" xMin="104" yMin="-23" xMax="1082" yMax="1160">
      <contour>
        <pt x="791" y="746" on="1"/>
        <pt x="791" y="851" on="0"/>
        <pt x="748" y="971" on="0"/>
        <pt x="642" y="1027" on="0"/>
        <pt x="545" y="1027" on="1"/>
        <pt x="373" y="1027" on="0"/>
        <pt x="185" y="917" on="1"/>
        <pt x="184" y="917" on="1"/>
        <pt x="139" y="1007" on="1"/>
        <pt x="162" y="1029" on="0"/>
        <pt x="308" y="1103" on="0"/>
        <pt x="495" y="1160" on="0"/>
        <pt x="581" y="1160" on="1"/>
        <pt x="721" y="1160" on="0"/>
        <pt x="883" y="1082" on="0"/>
        <pt x="954" y="910" on="0"/>
        <pt x="954" y="764" on="1"/>
        <pt x="954" y="89" on="1"/>
        <pt x="1082" y="89" on="1"/>
        <pt x="1082" y="13" on="1"/>
        <pt x="962" y="-19" on="0"/>
        <pt x="890" y="-19" on="1"/>
        <pt x="856" y="-19" on="0"/>
        <pt x="822" y="-8" on="0"/>
        <pt x="804" y="29" on="0"/>
        <pt x="804" y="68" on="1"/>
        <pt x="804" y="143" on="1"/>
        <pt x="759" y="103" on="0"/>
        <pt x="666" y="36" on="0"/>
        <pt x="524" y="-23" on="0"/>
        <pt x="446" y="-23" on="1"/>
        <pt x="351" y="-23" on="0"/>
        <pt x="196" y="47" on="0"/>
        <pt x="104" y="192" on="0"/>
        <pt x="104" y="299" on="1"/>
        <pt x="104" y="434" on="0"/>
        <pt x="297" y="603" on="0"/>
        <pt x="606" y="679" on="0"/>
        <pt x="791" y="682" on="1"/>
      </contour>
      <contour>
        <pt x="791" y="586" on="1"/>
        <pt x="625" y="585" on="0"/>
        <pt x="398" y="518" on="0"/>
        <pt x="286" y="398" on="0"/>
        <pt x="286" y="319" on="1"/>
        <pt x="286" y="204" on="0"/>
        <pt x="406" y="99" on="0"/>
        <pt x="507" y="99" on="1"/>
        <pt x="566" y="99" on="0"/>
        <pt x="725" y="172" on="0"/>
        <pt x="791" y="223" on="1"/>
      </contour>
    </TTGlyph>
    <TTGlyph name="aacute" xMin="104" yMin="-23" xMax="1082" yMax="1799">
      <component glyphName="a" x="0" y="0" flags="0x0"/>
      <component glyphName="acute" x="211" y="0" flags="0x0"/>
    </TTGlyph>
    <TTGlyph name="abreve" xMin="104" yMin="-23" xMax="1082" yMax="1748">
      <component glyphName="a" x="0" y="0" flags="0x0"/>
      <component glyphName="breve" x="41" y="0" flags="0x0"/>
    </TTGlyph>
    <TTGlyph name="acircumflex" xMin="104" yMin="-23" xMax="1082" yMax="1776">
      <component glyphName="a" x="0" y="0" flags="0x0"/>
      <component glyphName="circumflex" x="21" y="0" flags="0x0"/>
    </TTGlyph>
    <TTGlyph name="acute" xMin="231" yMin="1349" xMax="679" yMax="1799">
      <contour>
        <pt x="551" y="1799" on="1"/>
        <pt x="552" y="1799" on="1"/>
        <pt x="679" y="1688" on="1"/>
        <pt x="654" y="1650" on="0"/>
        <pt x="499" y="1503" on="0"/>
        <pt x="332" y="1369" on="0"/>
        <pt x="291" y="1349" on="1"/>
        <pt x="289" y="1349" on="1"/>
        <pt x="231" y="1405" on="1"/>
      </contour>
    </TTGlyph>
    <TTGlyph name="acute.cap" xMin="546" yMin="1646" xMax="1000" yMax="2008">
      <contour>
        <pt x="885" y="2008" on="1"/>
        <pt x="886" y="2008" on="1"/>
        <pt x="1000" y="1902" on="1"/>
        <pt x="968" y="1861" on="0"/>
        <pt x="820" y="1758" on="0"/>
        <pt x="655" y="1668" on="0"/>
        <pt x="603" y="1646" on="1"/>
        <pt x="602" y="1646" on="1"/>
        <pt x="546" y="1699" on="1"/>
      </contour>
    </TTGlyph>
    <TTGlyph name="adieresis" xMin="104" yMin="-23" xMax="1082" yMax="1624">
      <component glyphName="a" x="0" y="0" flags="0x0"/>
      <component glyphName="dieresis" x="41" y="0" flags="0x0"/>
    </TTGlyph>
    <TTGlyph name="ae" xMin="97" yMin="-23" xMax="1689" yMax="1168">
      <contour>
        <pt x="796" y="115" on="0"/>
        <pt x="584" y="-23" on="0"/>
        <pt x="440" y="-23" on="1"/>
        <pt x="346" y="-23" on="0"/>
        <pt x="190" y="47" on="0"/>
        <pt x="97" y="191" on="0"/>
        <pt x="97" y="298" on="1"/>
        <pt x="97" y="432" on="0"/>
        <pt x="289" y="602" on="0"/>
        <pt x="593" y="679" on="0"/>
        <pt x="772" y="682" on="1"/>
        <pt x="772" y="753" on="1"/>
        <pt x="772" y="861" on="0"/>
        <pt x="734" y="979" on="0"/>
        <pt x="634" y="1032" on="0"/>
        <pt x="537" y="1032" on="1"/>
        <pt x="434" y="1032" on="0"/>
        <pt x="246" y="964" on="0"/>
        <pt x="156" y="916" on="1"/>
        <pt x="113" y="1001" on="1"/>
        <pt x="140" y="1027" on="0"/>
        <pt x="296" y="1104" on="0"/>
        <pt x="490" y="1160" on="0"/>
        <pt x="575" y="1160" on="1"/>
        <pt x="715" y="1160" on="0"/>
        <pt x="878" y="1080" on="0"/>
        <pt x="913" y="993" on="1"/>
        <pt x="984" y="1077" on="0"/>
        <pt x="1181" y="1168" on="0"/>
        <pt x="1296" y="1168" on="1"/>
        <pt x="1479" y="1168" on="0"/>
        <pt x="1682" y="960" on="0"/>
        <pt x="1689" y="762" on="1"/>
        <pt x="1689" y="694" on="0"/>
        <pt x="1685" y="613" on="0"/>
        <pt x="1678" y="582" on="1"/>
        <pt x="949" y="582" on="1"/>
        <pt x="949" y="565" on="0"/>
        <pt x="950" y="557" on="1"/>
        <pt x="954" y="404" on="0"/>
        <pt x="1054" y="196" on="0"/>
        <pt x="1217" y="94" on="0"/>
        <pt x="1318" y="94" on="1"/>
        <pt x="1403" y="94" on="0"/>
        <pt x="1584" y="156" on="0"/>
        <pt x="1633" y="198" on="1"/>
        <pt x="1666" y="123" on="1"/>
        <pt x="1606" y="61" on="0"/>
        <pt x="1381" y="-23" on="0"/>
        <pt x="1267" y="-23" on="1"/>
        <pt x="1127" y="-23" on="0"/>
        <pt x="920" y="95" on="0"/>
        <pt x="858" y="203" on="1"/>
      </contour>
      <contour>
        <pt x="1506" y="678" on="1"/>
        <pt x="1510" y="736" on="0"/>
        <pt x="1510" y="769" on="1"/>
        <pt x="1509" y="903" on="0"/>
        <pt x="1385" y="1062" on="0"/>
        <pt x="1255" y="1062" on="1"/>
        <pt x="975" y="1062" on="0"/>
        <pt x="951" y="678" on="1"/>
      </contour>
      <contour>
        <pt x="772" y="410" on="0"/>
        <pt x="772" y="574" on="1"/>
        <pt x="772" y="594" on="1"/>
        <pt x="612" y="593" on="0"/>
        <pt x="390" y="522" on="0"/>
        <pt x="279" y="398" on="0"/>
        <pt x="279" y="319" on="1"/>
        <pt x="279" y="203" on="0"/>
        <pt x="399" y="99" on="0"/>
        <pt x="500" y="99" on="1"/>
        <pt x="568" y="99" on="0"/>
        <pt x="696" y="155" on="0"/>
        <pt x="793" y="240" on="0"/>
        <pt x="820" y="284" on="1"/>
      </contour>
    </TTGlyph>
    <TTGlyph name="aeacute" xMin="104" yMin="-23" xMax="1696" yMax="1799">
      <component glyphName="acute" x="588" y="0" flags="0x0"/>
      <component glyphName="ae" x="7" y="0" flags="0x0"/>
    </TTGlyph>
    <TTGlyph name="agrave" xMin="104" yMin="-23" xMax="1082" yMax="1799">
      <component glyphName="a" x="0" y="0" flags="0x0"/>
      <component glyphName="grave" x="211" y="0" flags="0x0"/>
    </TTGlyph>
    <TTGlyph name="amacron" xMin="104" yMin="-23" xMax="1082" yMax="1557">
      <component glyphName="a" x="0" y="0" flags="0x0"/>
      <component glyphName="macron" x="211" y="0" flags="0x0"/>
    </TTGlyph>
    <TTGlyph name="ampersand" xMin="139" yMin="-17" xMax="1502" yMax="1540">
      <contour>
        <pt x="1502" y="829" on="1"/>
        <pt x="1502" y="729" on="1"/>
        <pt x="1327" y="709" on="1"/>
        <pt x="1330" y="562" on="0"/>
        <pt x="1240" y="300" on="0"/>
        <pt x="1161" y="218" on="1"/>
        <pt x="1234" y="150" on="0"/>
        <pt x="1352" y="86" on="0"/>
        <pt x="1431" y="81" on="1"/>
        <pt x="1431" y="7" on="1"/>
        <pt x="1414" y="-2" on="0"/>
        <pt x="1335" y="-13" on="0"/>
        <pt x="1306" y="-13" on="1"/>
        <pt x="1239" y="-13" on="0"/>
        <pt x="1125" y="47" on="0"/>
        <pt x="1046" y="116" on="1"/>
        <pt x="965" y="46" on="0"/>
        <pt x="756" y="-17" on="0"/>
        <pt x="666" y="-17" on="1"/>
        <pt x="508" y="-17" on="0"/>
        <pt x="270" y="73" on="0"/>
        <pt x="139" y="248" on="0"/>
        <pt x="139" y="371" on="1"/>
        <pt x="139" y="458" on="0"/>
        <pt x="227" y="601" on="0"/>
        <pt x="356" y="704" on="0"/>
        <pt x="446" y="760" on="1"/>
        <pt x="368" y="860" on="0"/>
        <pt x="264" y="1089" on="0"/>
        <pt x="264" y="1193" on="1"/>
        <pt x="264" y="1285" on="0"/>
        <pt x="365" y="1445" on="0"/>
        <pt x="542" y="1540" on="0"/>
        <pt x="650" y="1540" on="1"/>
        <pt x="762" y="1540" on="0"/>
        <pt x="920" y="1458" on="0"/>
        <pt x="999" y="1329" on="0"/>
        <pt x="999" y="1261" on="1"/>
        <pt x="999" y="1156" on="0"/>
        <pt x="922" y="1000" on="0"/>
        <pt x="807" y="892" on="0"/>
        <pt x="708" y="819" on="1"/>
        <pt x="646" y="772" on="1"/>
        <pt x="718" y="684" on="0"/>
        <pt x="953" y="423" on="0"/>
        <pt x="1029" y="346" on="1"/>
        <pt x="1085" y="291" on="1"/>
        <pt x="1142" y="359" on="0"/>
        <pt x="1197" y="548" on="0"/>
        <pt x="1197" y="642" on="1"/>
        <pt x="1197" y="667" on="0"/>
        <pt x="1193" y="709" on="1"/>
        <pt x="1025" y="729" on="1"/>
        <pt x="1025" y="829" on="1"/>
      </contour>
      <contour>
        <pt x="689" y="919" on="0"/>
        <pt x="795" y="1027" on="0"/>
        <pt x="850" y="1157" on="0"/>
        <pt x="850" y="1250" on="1"/>
        <pt x="850" y="1297" on="0"/>
        <pt x="815" y="1391" on="0"/>
        <pt x="724" y="1457" on="0"/>
        <pt x="645" y="1457" on="1"/>
        <pt x="585" y="1457" on="0"/>
        <pt x="484" y="1389" on="0"/>
        <pt x="426" y="1274" on="0"/>
        <pt x="426" y="1207" on="1"/>
        <pt x="426" y="1097" on="0"/>
        <pt x="517" y="926" on="0"/>
        <pt x="589" y="841" on="1"/>
      </contour>
      <contour>
        <pt x="881" y="268" on="0"/>
        <pt x="655" y="519" on="0"/>
        <pt x="504" y="692" on="1"/>
        <pt x="412" y="622" on="0"/>
        <pt x="304" y="477" on="0"/>
        <pt x="304" y="387" on="1"/>
        <pt x="304" y="304" on="0"/>
        <pt x="388" y="167" on="0"/>
        <pt x="554" y="86" on="0"/>
        <pt x="673" y="86" on="1"/>
        <pt x="748" y="86" on="0"/>
        <pt x="910" y="137" on="0"/>
        <pt x="970" y="185" on="1"/>
      </contour>
    </TTGlyph>
    <TTGlyph name="aogonek" xMin="104" yMin="-510" xMax="1082" yMax="1160">
      <contour>
        <pt x="791" y="746" on="1"/>
        <pt x="791" y="851" on="0"/>
        <pt x="748" y="971" on="0"/>
        <pt x="642" y="1027" on="0"/>
        <pt x="545" y="1027" on="1"/>
        <pt x="373" y="1027" on="0"/>
        <pt x="185" y="917" on="1"/>
        <pt x="184" y="917" on="1"/>
        <pt x="139" y="1007" on="1"/>
        <pt x="162" y="1029" on="0"/>
        <pt x="308" y="1103" on="0"/>
        <pt x="495" y="1160" on="0"/>
        <pt x="581" y="1160" on="1"/>
        <pt x="721" y="1160" on="0"/>
        <pt x="883" y="1082" on="0"/>
        <pt x="954" y="910" on="0"/>
        <pt x="954" y="764" on="1"/>
        <pt x="954" y="89" on="1"/>
        <pt x="1082" y="89" on="1"/>
        <pt x="1082" y="13" on="1"/>
        <pt x="1043" y="2" on="0"/>
        <pt x="981" y="-9" on="1"/>
        <pt x="913" y="-38" on="0"/>
        <pt x="799" y="-127" on="0"/>
        <pt x="732" y="-223" on="0"/>
        <pt x="732" y="-264" on="1"/>
        <pt x="732" y="-332" on="0"/>
        <pt x="820" y="-395" on="0"/>
        <pt x="890" y="-395" on="1"/>
        <pt x="928" y="-395" on="0"/>
        <pt x="1013" y="-373" on="0"/>
        <pt x="1050" y="-354" on="1"/>
        <pt x="1050" y="-440" on="1"/>
        <pt x="1007" y="-472" on="0"/>
        <pt x="881" y="-510" on="0"/>
        <pt x="818" y="-510" on="1"/>
        <pt x="712" y="-510" on="0"/>
        <pt x="569" y="-419" on="0"/>
        <pt x="569" y="-318" on="1"/>
        <pt x="569" y="-268" on="0"/>
        <pt x="646" y="-153" on="0"/>
        <pt x="773" y="-49" on="0"/>
        <pt x="844" y="-15" on="1"/>
        <pt x="823" y="-10" on="0"/>
        <pt x="804" y="27" on="0"/>
        <pt x="804" y="68" on="1"/>
        <pt x="804" y="143" on="1"/>
        <pt x="759" y="103" on="0"/>
        <pt x="666" y="36" on="0"/>
        <pt x="524" y="-23" on="0"/>
        <pt x="446" y="-23" on="1"/>
        <pt x="351" y="-23" on="0"/>
        <pt x="196" y="47" on="0"/>
        <pt x="104" y="192" on="0"/>
        <pt x="104" y="299" on="1"/>
        <pt x="104" y="434" on="0"/>
        <pt x="297" y="603" on="0"/>
        <pt x="606" y="679" on="0"/>
        <pt x="791" y="682" on="1"/>
      </contour>
      <contour>
        <pt x="791" y="586" on="1"/>
        <pt x="625" y="585" on="0"/>
        <pt x="398" y="518" on="0"/>
        <pt x="286" y="398" on="0"/>
        <pt x="286" y="319" on="1"/>
        <pt x="286" y="204" on="0"/>
        <pt x="406" y="99" on="0"/>
        <pt x="507" y="99" on="1"/>
        <pt x="566" y="99" on="0"/>
        <pt x="725" y="172" on="0"/>
        <pt x="791" y="223" on="1"/>
      </contour>
    </TTGlyph>
    <TTGlyph name="approxequal" xMin="220" yMin="173" xMax="1180" yMax="1059">
      <component glyphName="asciitilde" x="-5" y="-291" flags="0x4"/>
      <component glyphName="asciitilde" x="-5" y="293" flags="0x4"/>
    </TTGlyph>
    <TTGlyph name="aring" xMin="104" yMin="-23" xMax="1082" yMax="1864">
      <component glyphName="a" x="0" y="0" flags="0x0"/>
      <component glyphName="ring" x="41" y="0" flags="0x0"/>
    </TTGlyph>
    <TTGlyph name="arrowboth" xMin="113" yMin="177" xMax="2487" yMax="1356">
      <contour>
        <pt x="1806" y="270" on="1"/>
        <pt x="2248" y="710" on="1"/>
        <pt x="2143" y="699" on="1"/>
        <pt x="456" y="699" on="1"/>
        <pt x="352" y="710" on="1"/>
        <pt x="794" y="270" on="1"/>
        <pt x="703" y="177" on="1"/>
        <pt x="113" y="766" on="1"/>
        <pt x="703" y="1356" on="1"/>
        <pt x="794" y="1262" on="1"/>
        <pt x="353" y="823" on="1"/>
        <pt x="456" y="834" on="1"/>
        <pt x="2143" y="834" on="1"/>
        <pt x="2247" y="823" on="1"/>
        <pt x="1806" y="1262" on="1"/>
        <pt x="1897" y="1356" on="1"/>
        <pt x="2487" y="766" on="1"/>
        <pt x="1897" y="177" on="1"/>
      </contour>
    </TTGlyph>
    <TTGlyph name="arrowdown" xMin="175" yMin="143" xMax="1354" yMax="1447">
      <contour>
        <pt x="1260" y="824" on="1"/>
        <pt x="1354" y="733" on="1"/>
        <pt x="764" y="143" on="1"/>
        <pt x="175" y="733" on="1"/>
        <pt x="268" y="824" on="1"/>
        <pt x="708" y="383" on="1"/>
        <pt x="697" y="486" on="1"/>
        <pt x="697" y="1446" on="1"/>
        <pt x="832" y="1447" on="1"/>
        <pt x="832" y="486" on="1"/>
        <pt x="821" y="383" on="1"/>
      </contour>
    </TTGlyph>
    <TTGlyph name="arrowleft" xMin="113" yMin="177" xMax="1417" yMax="1356">
      <contour>
        <pt x="703" y="1356" on="1"/>
        <pt x="794" y="1262" on="1"/>
        <pt x="352" y="823" on="1"/>
        <pt x="456" y="834" on="1"/>
        <pt x="1417" y="834" on="1"/>
        <pt x="1415" y="699" on="1"/>
        <pt x="456" y="699" on="1"/>
        <pt x="352" y="710" on="1"/>
        <pt x="794" y="270" on="1"/>
        <pt x="703" y="177" on="1"/>
        <pt x="113" y="766" on="1"/>
      </contour>
    </TTGlyph>
    <TTGlyph name="arrowright" xMin="113" yMin="177" xMax="1417" yMax="1356">
      <contour>
        <pt x="827" y="177" on="1"/>
        <pt x="736" y="270" on="1"/>
        <pt x="1178" y="710" on="1"/>
        <pt x="1074" y="699" on="1"/>
        <pt x="115" y="699" on="1"/>
        <pt x="113" y="834" on="1"/>
        <pt x="1074" y="834" on="1"/>
        <pt x="1178" y="823" on="1"/>
        <pt x="736" y="1262" on="1"/>
        <pt x="827" y="1356" on="1"/>
        <pt x="1417" y="766" on="1"/>
      </contour>
    </TTGlyph>
    <TTGlyph name="arrowup" xMin="175" yMin="143" xMax="1354" yMax="1447">
      <contour>
        <pt x="832" y="1104" on="1"/>
        <pt x="832" y="143" on="1"/>
        <pt x="697" y="144" on="1"/>
        <pt x="697" y="1104" on="1"/>
        <pt x="708" y="1207" on="1"/>
        <pt x="268" y="766" on="1"/>
        <pt x="175" y="857" on="1"/>
        <pt x="764" y="1447" on="1"/>
        <pt x="1354" y="857" on="1"/>
        <pt x="1260" y="766" on="1"/>
        <pt x="821" y="1207" on="1"/>
      </contour>
    </TTGlyph>
    <TTGlyph name="arrowupdn" xMin="175" yMin="-416" xMax="1354" yMax="1957">
      <contour>
        <pt x="1261" y="1276" on="1"/>
        <pt x="821" y="1718" on="1"/>
        <pt x="832" y="1614" on="1"/>
        <pt x="832" y="-74" on="1"/>
        <pt x="821" y="-178" on="1"/>
        <pt x="1261" y="265" on="1"/>
        <pt x="1354" y="174" on="1"/>
        <pt x="765" y="-416" on="1"/>
        <pt x="175" y="174" on="1"/>
        <pt x="269" y="265" on="1"/>
        <pt x="708" y="-176" on="1"/>
        <pt x="697" y="-74" on="1"/>
        <pt x="697" y="1614" on="1"/>
        <pt x="708" y="1717" on="1"/>
        <pt x="269" y="1276" on="1"/>
        <pt x="175" y="1367" on="1"/>
        <pt x="765" y="1957" on="1"/>
        <pt x="1354" y="1367" on="1"/>
      </contour>
    </TTGlyph>
    <TTGlyph name="asciicircum" xMin="185" yMin="273" xMax="1178" yMax="1531">
      <contour>
        <pt x="763" y="1531" on="1"/>
        <pt x="1178" y="273" on="1"/>
        <pt x="1044" y="273" on="1"/>
        <pt x="680" y="1356" on="1"/>
        <pt x="317" y="273" on="1"/>
        <pt x="185" y="273" on="1"/>
        <pt x="595" y="1531" on="1"/>
      </contour>
    </TTGlyph>
    <TTGlyph name="asciitilde" xMin="225" yMin="464" xMax="1185" yMax="766">
      <contour>
        <pt x="251" y="634" on="0"/>
        <pt x="342" y="715" on="0"/>
        <pt x="464" y="766" on="0"/>
        <pt x="532" y="766" on="1"/>
        <pt x="595" y="766" on="0"/>
        <pt x="689" y="718" on="0"/>
        <pt x="746" y="673" on="1"/>
        <pt x="795" y="635" on="0"/>
        <pt x="862" y="598" on="0"/>
        <pt x="903" y="598" on="1"/>
        <pt x="971" y="598" on="0"/>
        <pt x="1078" y="666" on="0"/>
        <pt x="1116" y="717" on="1"/>
        <pt x="1185" y="642" on="1"/>
        <pt x="1143" y="568" on="0"/>
        <pt x="979" y="464" on="0"/>
        <pt x="880" y="464" on="1"/>
        <pt x="818" y="464" on="0"/>
        <pt x="726" y="511" on="0"/>
        <pt x="670" y="556" on="1"/>
        <pt x="620" y="595" on="0"/>
        <pt x="552" y="632" on="0"/>
        <pt x="509" y="632" on="1"/>
        <pt x="442" y="632" on="0"/>
        <pt x="334" y="563" on="0"/>
        <pt x="295" y="513" on="1"/>
        <pt x="225" y="589" on="1"/>
      </contour>
    </TTGlyph>
    <TTGlyph name="asterisk" xMin="165" yMin="642" xMax="1132" yMax="1665">
      <contour>
        <pt x="453" y="1101" on="1"/>
        <pt x="608" y="1155" on="1"/>
        <pt x="453" y="1205" on="1"/>
        <pt x="165" y="1337" on="1"/>
        <pt x="244" y="1477" on="1"/>
        <pt x="502" y="1295" on="1"/>
        <pt x="628" y="1188" on="1"/>
        <pt x="594" y="1350" on="1"/>
        <pt x="562" y="1665" on="1"/>
        <pt x="724" y="1665" on="1"/>
        <pt x="698" y="1351" on="1"/>
        <pt x="667" y="1190" on="1"/>
        <pt x="789" y="1299" on="1"/>
        <pt x="1047" y="1483" on="1"/>
        <pt x="1127" y="1346" on="1"/>
        <pt x="844" y="1210" on="1"/>
        <pt x="688" y="1155" on="1"/>
        <pt x="844" y="1104" on="1"/>
        <pt x="1132" y="975" on="1"/>
        <pt x="1050" y="832" on="1"/>
        <pt x="795" y="1013" on="1"/>
        <pt x="667" y="1120" on="1"/>
        <pt x="701" y="958" on="1"/>
        <pt x="735" y="643" on="1"/>
        <pt x="573" y="642" on="1"/>
        <pt x="597" y="958" on="1"/>
        <pt x="627" y="1121" on="1"/>
        <pt x="506" y="1009" on="1"/>
        <pt x="249" y="825" on="1"/>
        <pt x="167" y="964" on="1"/>
      </contour>
    </TTGlyph>
    <TTGlyph name="at" xMin="204" yMin="-512" xMax="1971" yMax="1540">
      <contour>
        <pt x="1469" y="1540" on="0"/>
        <pt x="1789" y="1372" on="0"/>
        <pt x="1971" y="1035" on="0"/>
        <pt x="1971" y="790" on="1"/>
        <pt x="1971" y="541" on="0"/>
        <pt x="1780" y="170" on="0"/>
        <pt x="1520" y="-26" on="0"/>
        <pt x="1425" y="-26" on="1"/>
        <pt x="1389" y="-26" on="0"/>
        <pt x="1322" y="16" on="0"/>
        <pt x="1277" y="96" on="0"/>
        <pt x="1274" y="151" on="1"/>
        <pt x="1272" y="177" on="0"/>
        <pt x="1272" y="193" on="1"/>
        <pt x="1272" y="287" on="0"/>
        <pt x="1301" y="445" on="1"/>
        <pt x="1254" y="321" on="0"/>
        <pt x="1126" y="107" on="0"/>
        <pt x="978" y="-26" on="0"/>
        <pt x="905" y="-26" on="1"/>
        <pt x="836" y="-26" on="0"/>
        <pt x="708" y="72" on="0"/>
        <pt x="628" y="255" on="0"/>
        <pt x="628" y="377" on="1"/>
        <pt x="628" y="520" on="0"/>
        <pt x="757" y="831" on="0"/>
        <pt x="992" y="1040" on="0"/>
        <pt x="1144" y="1040" on="1"/>
        <pt x="1202" y="1040" on="0"/>
        <pt x="1334" y="1009" on="0"/>
        <pt x="1384" y="981" on="1"/>
        <pt x="1394" y="1008" on="0"/>
        <pt x="1411" y="1034" on="0"/>
        <pt x="1425" y="1031" on="1"/>
        <pt x="1456" y="1021" on="0"/>
        <pt x="1481" y="1012" on="1"/>
        <pt x="1517" y="998" on="0"/>
        <pt x="1524" y="996" on="1"/>
        <pt x="1494" y="855" on="0"/>
        <pt x="1429" y="467" on="0"/>
        <pt x="1420" y="333" on="1"/>
        <pt x="1416" y="289" on="0"/>
        <pt x="1416" y="247" on="1"/>
        <pt x="1416" y="173" on="0"/>
        <pt x="1443" y="104" on="0"/>
        <pt x="1465" y="104" on="1"/>
        <pt x="1542" y="104" on="0"/>
        <pt x="1726" y="268" on="0"/>
        <pt x="1854" y="564" on="0"/>
        <pt x="1854" y="752" on="1"/>
        <pt x="1854" y="982" on="0"/>
        <pt x="1676" y="1283" on="0"/>
        <pt x="1382" y="1423" on="0"/>
        <pt x="1203" y="1423" on="1"/>
        <pt x="974" y="1423" on="0"/>
        <pt x="576" y="1172" on="0"/>
        <pt x="336" y="708" on="0"/>
        <pt x="336" y="402" on="1"/>
        <pt x="336" y="147" on="0"/>
        <pt x="501" y="-212" on="0"/>
        <pt x="794" y="-396" on="0"/>
        <pt x="984" y="-396" on="1"/>
        <pt x="1095" y="-396" on="0"/>
        <pt x="1342" y="-338" on="0"/>
        <pt x="1403" y="-296" on="1"/>
        <pt x="1435" y="-366" on="1"/>
        <pt x="1358" y="-430" on="0"/>
        <pt x="1098" y="-512" on="0"/>
        <pt x="956" y="-512" on="1"/>
        <pt x="718" y="-512" on="0"/>
        <pt x="379" y="-296" on="0"/>
        <pt x="204" y="102" on="0"/>
        <pt x="204" y="371" on="1"/>
        <pt x="204" y="715" on="0"/>
        <pt x="496" y="1248" on="0"/>
        <pt x="982" y="1540" on="0"/>
        <pt x="1261" y="1540" on="1"/>
      </contour>
      <contour>
        <pt x="987" y="122" on="0"/>
        <pt x="1113" y="256" on="0"/>
        <pt x="1235" y="480" on="0"/>
        <pt x="1280" y="610" on="1"/>
        <pt x="1326" y="744" on="0"/>
        <pt x="1343" y="846" on="1"/>
        <pt x="1314" y="875" on="0"/>
        <pt x="1160" y="919" on="0"/>
        <pt x="1101" y="919" on="1"/>
        <pt x="1004" y="919" on="0"/>
        <pt x="861" y="775" on="0"/>
        <pt x="785" y="543" on="0"/>
        <pt x="785" y="415" on="1"/>
        <pt x="785" y="343" on="0"/>
        <pt x="816" y="209" on="0"/>
        <pt x="884" y="122" on="0"/>
        <pt x="937" y="122" on="1"/>
      </contour>
    </TTGlyph>
    <TTGlyph name="atilde" xMin="104" yMin="-23" xMax="1082" yMax="1648">
      <component glyphName="a" x="0" y="0" flags="0x0"/>
      <component glyphName="tilde" x="41" y="0" flags="0x0"/>
    </TTGlyph>
    <TTGlyph name="b" xMin="-6" yMin="-23" xMax="1134" yMax="1677">
      <contour>
        <pt x="-6" y="1567" on="1"/>
        <pt x="-6" y="1642" on="1"/>
        <pt x="293" y="1677" on="1"/>
        <pt x="297" y="1677" on="1"/>
        <pt x="335" y="1648" on="1"/>
        <pt x="335" y="1026" on="1"/>
        <pt x="400" y="1087" on="0"/>
        <pt x="577" y="1168" on="0"/>
        <pt x="686" y="1168" on="1"/>
        <pt x="806" y="1168" on="0"/>
        <pt x="1010" y="1048" on="0"/>
        <pt x="1134" y="798" on="0"/>
        <pt x="1134" y="610" on="1"/>
        <pt x="1134" y="435" on="0"/>
        <pt x="991" y="146" on="0"/>
        <pt x="725" y="-23" on="0"/>
        <pt x="550" y="-23" on="1"/>
        <pt x="463" y="-23" on="0"/>
        <pt x="298" y="4" on="0"/>
        <pt x="184" y="41" on="0"/>
        <pt x="170" y="56" on="1"/>
        <pt x="170" y="1549" on="1"/>
      </contour>
      <contour>
        <pt x="335" y="154" on="1"/>
        <pt x="351" y="120" on="0"/>
        <pt x="483" y="81" on="0"/>
        <pt x="565" y="81" on="1"/>
        <pt x="680" y="81" on="0"/>
        <pt x="855" y="194" on="0"/>
        <pt x="954" y="424" on="0"/>
        <pt x="954" y="593" on="1"/>
        <pt x="954" y="745" on="0"/>
        <pt x="864" y="947" on="0"/>
        <pt x="712" y="1042" on="0"/>
        <pt x="618" y="1042" on="1"/>
        <pt x="532" y="1042" on="0"/>
        <pt x="379" y="960" on="0"/>
        <pt x="335" y="911" on="1"/>
      </contour>
    </TTGlyph>
    <TTGlyph name="backslash" xMin="73" yMin="-363" xMax="799" yMax="1599">
      <contour>
        <pt x="799" y="-363" on="1"/>
        <pt x="646" y="-363" on="1"/>
        <pt x="73" y="1599" on="1"/>
        <pt x="226" y="1599" on="1"/>
      </contour>
    </TTGlyph>
    <TTGlyph name="bar" xMin="359" yMin="-186" xMax="506" yMax="1780">
      <contour>
        <pt x="506" y="1780" on="1"/>
        <pt x="506" y="-186" on="1"/>
        <pt x="359" y="-186" on="1"/>
        <pt x="359" y="1780" on="1"/>
      </contour>
    </TTGlyph>
    <TTGlyph name="braceleft" xMin="166" yMin="-278" xMax="860" yMax="1647">
      <contour>
        <pt x="436" y="516" on="0"/>
        <pt x="398" y="585" on="0"/>
        <pt x="281" y="623" on="0"/>
        <pt x="166" y="623" on="1"/>
        <pt x="166" y="765" on="1"/>
        <pt x="283" y="765" on="0"/>
        <pt x="399" y="795" on="0"/>
        <pt x="436" y="855" on="0"/>
        <pt x="436" y="909" on="1"/>
        <pt x="436" y="958" on="0"/>
        <pt x="406" y="1054" on="0"/>
        <pt x="376" y="1125" on="1"/>
        <pt x="341" y="1207" on="0"/>
        <pt x="305" y="1326" on="0"/>
        <pt x="305" y="1393" on="1"/>
        <pt x="305" y="1480" on="0"/>
        <pt x="361" y="1590" on="0"/>
        <pt x="495" y="1647" on="0"/>
        <pt x="613" y="1647" on="1"/>
        <pt x="737" y="1647" on="0"/>
        <pt x="860" y="1613" on="1"/>
        <pt x="860" y="1532" on="1"/>
        <pt x="850" y="1535" on="0"/>
        <pt x="712" y="1539" on="0"/>
        <pt x="679" y="1539" on="1"/>
        <pt x="576" y="1539" on="0"/>
        <pt x="470" y="1462" on="0"/>
        <pt x="470" y="1363" on="1"/>
        <pt x="470" y="1320" on="0"/>
        <pt x="495" y="1221" on="0"/>
        <pt x="521" y="1143" on="1"/>
        <pt x="549" y="1058" on="0"/>
        <pt x="576" y="950" on="0"/>
        <pt x="576" y="899" on="1"/>
        <pt x="576" y="806" on="0"/>
        <pt x="452" y="704" on="0"/>
        <pt x="345" y="689" on="1"/>
        <pt x="450" y="674" on="0"/>
        <pt x="576" y="563" on="0"/>
        <pt x="576" y="470" on="1"/>
        <pt x="576" y="419" on="0"/>
        <pt x="548" y="310" on="0"/>
        <pt x="521" y="227" on="1"/>
        <pt x="496" y="150" on="0"/>
        <pt x="470" y="49" on="0"/>
        <pt x="470" y="6" on="1"/>
        <pt x="470" y="-63" on="0"/>
        <pt x="519" y="-140" on="0"/>
        <pt x="610" y="-169" on="0"/>
        <pt x="679" y="-169" on="1"/>
        <pt x="713" y="-169" on="0"/>
        <pt x="850" y="-165" on="0"/>
        <pt x="860" y="-162" on="1"/>
        <pt x="860" y="-244" on="1"/>
        <pt x="737" y="-278" on="0"/>
        <pt x="613" y="-278" on="1"/>
        <pt x="495" y="-278" on="0"/>
        <pt x="361" y="-221" on="0"/>
        <pt x="305" y="-111" on="0"/>
        <pt x="305" y="-24" on="1"/>
        <pt x="305" y="43" on="0"/>
        <pt x="341" y="162" on="0"/>
        <pt x="376" y="244" on="1"/>
        <pt x="406" y="315" on="0"/>
        <pt x="436" y="411" on="0"/>
        <pt x="436" y="460" on="1"/>
      </contour>
    </TTGlyph>
    <TTGlyph name="braceright" xMin="167" yMin="-278" xMax="861" yMax="1647">
      <contour>
        <pt x="722" y="-111" on="0"/>
        <pt x="666" y="-221" on="0"/>
        <pt x="532" y="-278" on="0"/>
        <pt x="414" y="-278" on="1"/>
        <pt x="290" y="-278" on="0"/>
        <pt x="167" y="-244" on="1"/>
        <pt x="167" y="-162" on="1"/>
        <pt x="177" y="-165" on="0"/>
        <pt x="314" y="-169" on="0"/>
        <pt x="348" y="-169" on="1"/>
        <pt x="417" y="-169" on="0"/>
        <pt x="508" y="-140" on="0"/>
        <pt x="557" y="-63" on="0"/>
        <pt x="557" y="6" on="1"/>
        <pt x="557" y="49" on="0"/>
        <pt x="531" y="150" on="0"/>
        <pt x="506" y="227" on="1"/>
        <pt x="479" y="310" on="0"/>
        <pt x="451" y="419" on="0"/>
        <pt x="451" y="470" on="1"/>
        <pt x="451" y="563" on="0"/>
        <pt x="577" y="674" on="0"/>
        <pt x="682" y="689" on="1"/>
        <pt x="575" y="704" on="0"/>
        <pt x="451" y="806" on="0"/>
        <pt x="451" y="899" on="1"/>
        <pt x="451" y="950" on="0"/>
        <pt x="478" y="1058" on="0"/>
        <pt x="506" y="1143" on="1"/>
        <pt x="532" y="1221" on="0"/>
        <pt x="557" y="1320" on="0"/>
        <pt x="557" y="1363" on="1"/>
        <pt x="557" y="1462" on="0"/>
        <pt x="451" y="1539" on="0"/>
        <pt x="348" y="1539" on="1"/>
        <pt x="315" y="1539" on="0"/>
        <pt x="177" y="1535" on="0"/>
        <pt x="167" y="1532" on="1"/>
        <pt x="167" y="1613" on="1"/>
        <pt x="290" y="1647" on="0"/>
        <pt x="414" y="1647" on="1"/>
        <pt x="532" y="1647" on="0"/>
        <pt x="666" y="1590" on="0"/>
        <pt x="722" y="1480" on="0"/>
        <pt x="722" y="1393" on="1"/>
        <pt x="722" y="1326" on="0"/>
        <pt x="686" y="1207" on="0"/>
        <pt x="651" y="1125" on="1"/>
        <pt x="621" y="1054" on="0"/>
        <pt x="591" y="958" on="0"/>
        <pt x="591" y="909" on="1"/>
        <pt x="591" y="855" on="0"/>
        <pt x="628" y="795" on="0"/>
        <pt x="744" y="765" on="0"/>
        <pt x="861" y="765" on="1"/>
        <pt x="861" y="623" on="1"/>
        <pt x="746" y="623" on="0"/>
        <pt x="629" y="585" on="0"/>
        <pt x="591" y="516" on="0"/>
        <pt x="591" y="460" on="1"/>
        <pt x="591" y="411" on="0"/>
        <pt x="621" y="315" on="0"/>
        <pt x="651" y="244" on="1"/>
        <pt x="686" y="162" on="0"/>
        <pt x="722" y="43" on="0"/>
        <pt x="722" y="-24" on="1"/>
      </contour>
    </TTGlyph>
    <TTGlyph name="bracketleft" xMin="202" yMin="-281" xMax="677" yMax="1647">
      <contour>
        <pt x="202" y="1537" on="0"/>
        <pt x="233" y="1618" on="0"/>
        <pt x="303" y="1647" on="0"/>
        <pt x="370" y="1647" on="1"/>
        <pt x="512" y="1647" on="0"/>
        <pt x="677" y="1611" on="1"/>
        <pt x="677" y="1536" on="1"/>
        <pt x="351" y="1536" on="1"/>
        <pt x="351" y="-168" on="1"/>
        <pt x="677" y="-168" on="1"/>
        <pt x="677" y="-244" on="1"/>
        <pt x="609" y="-261" on="0"/>
        <pt x="448" y="-281" on="0"/>
        <pt x="370" y="-281" on="1"/>
        <pt x="303" y="-281" on="0"/>
        <pt x="233" y="-252" on="0"/>
        <pt x="202" y="-171" on="0"/>
        <pt x="202" y="-90" on="1"/>
        <pt x="202" y="1457" on="1"/>
      </contour>
    </TTGlyph>
    <TTGlyph name="bracketright" xMin="195" yMin="-281" xMax="670" yMax="1647">
      <contour>
        <pt x="670" y="-90" on="1"/>
        <pt x="670" y="-171" on="0"/>
        <pt x="639" y="-252" on="0"/>
        <pt x="569" y="-281" on="0"/>
        <pt x="502" y="-281" on="1"/>
        <pt x="424" y="-281" on="0"/>
        <pt x="263" y="-261" on="0"/>
        <pt x="195" y="-244" on="1"/>
        <pt x="195" y="-168" on="1"/>
        <pt x="521" y="-168" on="1"/>
        <pt x="521" y="1536" on="1"/>
        <pt x="195" y="1536" on="1"/>
        <pt x="195" y="1611" on="1"/>
        <pt x="360" y="1647" on="0"/>
        <pt x="502" y="1647" on="1"/>
        <pt x="569" y="1647" on="0"/>
        <pt x="639" y="1618" on="0"/>
        <pt x="670" y="1537" on="0"/>
        <pt x="670" y="1457" on="1"/>
      </contour>
    </TTGlyph>
    <TTGlyph name="breve" xMin="181" yMin="1364" xMax="835" yMax="1748">
      <contour>
        <pt x="181" y="1733" on="0"/>
        <pt x="184" y="1748" on="1"/>
        <pt x="276" y="1748" on="1"/>
        <pt x="276" y="1729" on="0"/>
        <pt x="279" y="1714" on="1"/>
        <pt x="284" y="1666" on="0"/>
        <pt x="332" y="1571" on="0"/>
        <pt x="434" y="1506" on="0"/>
        <pt x="512" y="1506" on="1"/>
        <pt x="590" y="1506" on="0"/>
        <pt x="689" y="1571" on="0"/>
        <pt x="736" y="1665" on="0"/>
        <pt x="740" y="1714" on="1"/>
        <pt x="743" y="1739" on="0"/>
        <pt x="742" y="1748" on="1"/>
        <pt x="832" y="1748" on="1"/>
        <pt x="833" y="1740" on="0"/>
        <pt x="835" y="1718" on="0"/>
        <pt x="835" y="1703" on="1"/>
        <pt x="835" y="1614" on="0"/>
        <pt x="755" y="1458" on="0"/>
        <pt x="608" y="1364" on="0"/>
        <pt x="511" y="1364" on="1"/>
        <pt x="410" y="1364" on="0"/>
        <pt x="260" y="1458" on="0"/>
        <pt x="181" y="1612" on="0"/>
        <pt x="181" y="1702" on="1"/>
      </contour>
    </TTGlyph>
    <TTGlyph name="breve.cap" xMin="181" yMin="1655" xMax="835" yMax="1995">
      <contour>
        <pt x="181" y="1981" on="0"/>
        <pt x="183" y="1995" on="1"/>
        <pt x="276" y="1995" on="1"/>
        <pt x="276" y="1979" on="0"/>
        <pt x="279" y="1967" on="1"/>
        <pt x="284" y="1925" on="0"/>
        <pt x="332" y="1844" on="0"/>
        <pt x="434" y="1790" on="0"/>
        <pt x="513" y="1790" on="1"/>
        <pt x="592" y="1790" on="0"/>
        <pt x="692" y="1845" on="0"/>
        <pt x="738" y="1925" on="0"/>
        <pt x="741" y="1968" on="1"/>
        <pt x="743" y="1980" on="0"/>
        <pt x="743" y="1995" on="1"/>
        <pt x="833" y="1995" on="1"/>
        <pt x="835" y="1981" on="0"/>
        <pt x="835" y="1955" on="1"/>
        <pt x="835" y="1870" on="0"/>
        <pt x="757" y="1734" on="0"/>
        <pt x="610" y="1655" on="0"/>
        <pt x="511" y="1655" on="1"/>
        <pt x="408" y="1655" on="0"/>
        <pt x="259" y="1733" on="0"/>
        <pt x="181" y="1869" on="0"/>
        <pt x="181" y="1954" on="1"/>
      </contour>
    </TTGlyph>
    <TTGlyph name="breve.r" xMin="140" yMin="1334" xMax="888" yMax="1734">
      <contour>
        <pt x="140" y="1712" on="0"/>
        <pt x="142" y="1734" on="1"/>
        <pt x="264" y="1734" on="1"/>
        <pt x="282" y="1734" on="0"/>
        <pt x="294" y="1696" on="0"/>
        <pt x="294" y="1664" on="1"/>
        <pt x="294" y="1605" on="0"/>
        <pt x="338" y="1500" on="0"/>
        <pt x="438" y="1432" on="0"/>
        <pt x="518" y="1432" on="1"/>
        <pt x="632" y="1432" on="0"/>
        <pt x="733" y="1568" on="0"/>
        <pt x="733" y="1664" on="1"/>
        <pt x="733" y="1734" on="0"/>
        <pt x="763" y="1734" on="1"/>
        <pt x="886" y="1734" on="1"/>
        <pt x="888" y="1712" on="0"/>
        <pt x="888" y="1699" on="1"/>
        <pt x="888" y="1591" on="0"/>
        <pt x="804" y="1426" on="0"/>
        <pt x="637" y="1334" on="0"/>
        <pt x="517" y="1334" on="1"/>
        <pt x="398" y="1334" on="0"/>
        <pt x="228" y="1427" on="0"/>
        <pt x="140" y="1592" on="0"/>
        <pt x="140" y="1699" on="1"/>
      </contour>
    </TTGlyph>
    <TTGlyph name="breve.rcap" xMin="125" yMin="1668" xMax="879" yMax="2013">
      <contour>
        <pt x="125" y="1993" on="0"/>
        <pt x="127" y="2013" on="1"/>
        <pt x="248" y="2013" on="1"/>
        <pt x="266" y="2013" on="0"/>
        <pt x="278" y="1976" on="0"/>
        <pt x="278" y="1944" on="1"/>
        <pt x="278" y="1854" on="0"/>
        <pt x="375" y="1752" on="0"/>
        <pt x="502" y="1752" on="1"/>
        <pt x="628" y="1752" on="0"/>
        <pt x="725" y="1854" on="0"/>
        <pt x="725" y="1944" on="1"/>
        <pt x="725" y="1976" on="0"/>
        <pt x="737" y="2013" on="0"/>
        <pt x="754" y="2013" on="1"/>
        <pt x="877" y="2013" on="1"/>
        <pt x="879" y="1993" on="0"/>
        <pt x="879" y="1977" on="1"/>
        <pt x="879" y="1668" on="0"/>
        <pt x="501" y="1668" on="1"/>
        <pt x="316" y="1668" on="0"/>
        <pt x="125" y="1821" on="0"/>
        <pt x="125" y="1977" on="1"/>
      </contour>
    </TTGlyph>
    <TTGlyph name="brokenbar" xMin="359" yMin="-186" xMax="506" yMax="1780">
      <contour>
        <pt x="506" y="1780" on="1"/>
        <pt x="506" y="950" on="1"/>
        <pt x="359" y="950" on="1"/>
        <pt x="359" y="1780" on="1"/>
      </contour>
      <contour>
        <pt x="506" y="641" on="1"/>
        <pt x="506" y="-186" on="1"/>
        <pt x="359" y="-186" on="1"/>
        <pt x="359" y="641" on="1"/>
      </contour>
    </TTGlyph>
    <TTGlyph name="bullet" xMin="250" yMin="513" xMax="592" yMax="872">
      <contour>
        <pt x="250" y="743" on="0"/>
        <pt x="300" y="825" on="0"/>
        <pt x="384" y="872" on="0"/>
        <pt x="431" y="872" on="1"/>
        <pt x="476" y="872" on="0"/>
        <pt x="549" y="826" on="0"/>
        <pt x="592" y="745" on="0"/>
        <pt x="592" y="694" on="1"/>
        <pt x="592" y="645" on="0"/>
        <pt x="541" y="562" on="0"/>
        <pt x="459" y="513" on="0"/>
        <pt x="413" y="513" on="1"/>
        <pt x="368" y="513" on="0"/>
        <pt x="293" y="562" on="0"/>
        <pt x="250" y="645" on="0"/>
        <pt x="250" y="692" on="1"/>
      </contour>
    </TTGlyph>
    <TTGlyph name="bullet.cap" xMin="251" yMin="661" xMax="593" yMax="1020">
      <component glyphName="bullet" x="1" y="148" flags="0x4"/>
    </TTGlyph>
    <TTGlyph name="c" xMin="69" yMin="-23" xMax="948" yMax="1168">
      <contour>
        <pt x="718" y="1168" on="0"/>
        <pt x="872" y="1129" on="0"/>
        <pt x="926" y="1106" on="1"/>
        <pt x="917" y="814" on="1"/>
        <pt x="815" y="814" on="1"/>
        <pt x="772" y="1009" on="1"/>
        <pt x="758" y="1071" on="0"/>
        <pt x="596" y="1071" on="1"/>
        <pt x="490" y="1071" on="0"/>
        <pt x="332" y="960" on="0"/>
        <pt x="246" y="752" on="0"/>
        <pt x="246" y="611" on="1"/>
        <pt x="246" y="441" on="0"/>
        <pt x="342" y="210" on="0"/>
        <pt x="508" y="97" on="0"/>
        <pt x="614" y="97" on="1"/>
        <pt x="701" y="97" on="0"/>
        <pt x="864" y="153" on="0"/>
        <pt x="915" y="191" on="1"/>
        <pt x="948" y="123" on="1"/>
        <pt x="889" y="63" on="0"/>
        <pt x="680" y="-23" on="0"/>
        <pt x="578" y="-23" on="1"/>
        <pt x="416" y="-23" on="0"/>
        <pt x="186" y="130" on="0"/>
        <pt x="69" y="394" on="0"/>
        <pt x="69" y="559" on="1"/>
        <pt x="69" y="725" on="0"/>
        <pt x="198" y="1002" on="0"/>
        <pt x="454" y="1168" on="0"/>
        <pt x="638" y="1168" on="1"/>
      </contour>
    </TTGlyph>
    <TTGlyph name="cacute" xMin="69" yMin="-23" xMax="948" yMax="1799">
      <component glyphName="acute" x="247" y="0" flags="0x0"/>
      <component glyphName="c" x="0" y="0" flags="0x0"/>
    </TTGlyph>
    <TTGlyph name="caron" xMin="156" yMin="1355" xMax="867" yMax="1797">
      <contour>
        <pt x="228" y="1797" on="1"/>
        <pt x="512" y="1487" on="1"/>
        <pt x="802" y="1797" on="1"/>
        <pt x="867" y="1755" on="1"/>
        <pt x="589" y="1355" on="1"/>
        <pt x="435" y="1355" on="1"/>
        <pt x="156" y="1754" on="1"/>
      </contour>
    </TTGlyph>
    <TTGlyph name="caron.cap" xMin="16" yMin="1692" xMax="665" yMax="2011">
      <contour>
        <pt x="90" y="2011" on="1"/>
        <pt x="341" y="1807" on="1"/>
        <pt x="597" y="2011" on="1"/>
        <pt x="665" y="1969" on="1"/>
        <pt x="419" y="1692" on="1"/>
        <pt x="264" y="1692" on="1"/>
        <pt x="16" y="1967" on="1"/>
      </contour>
    </TTGlyph>
    <TTGlyph name="caronvertical" xMin="77" yMin="1045" xMax="279" yMax="1678">
      <contour>
        <pt x="88" y="1095" on="1"/>
        <pt x="108" y="1156" on="0"/>
        <pt x="129" y="1293" on="0"/>
        <pt x="129" y="1352" on="1"/>
        <pt x="129" y="1433" on="0"/>
        <pt x="97" y="1585" on="0"/>
        <pt x="77" y="1613" on="1"/>
        <pt x="89" y="1648" on="1"/>
        <pt x="219" y="1678" on="1"/>
        <pt x="246" y="1650" on="0"/>
        <pt x="279" y="1512" on="0"/>
        <pt x="279" y="1437" on="1"/>
        <pt x="279" y="1359" on="0"/>
        <pt x="247" y="1201" on="0"/>
        <pt x="193" y="1076" on="0"/>
        <pt x="161" y="1045" on="1"/>
        <pt x="91" y="1074" on="1"/>
      </contour>
    </TTGlyph>
    <TTGlyph name="ccaron" xMin="69" yMin="-23" xMax="948" yMax="1797">
      <component glyphName="caron" x="79" y="0" flags="0x0"/>
      <component glyphName="c" x="0" y="0" flags="0x0"/>
    </TTGlyph>
    <TTGlyph name="ccedilla" xMin="69" yMin="-481" xMax="948" yMax="1168">
      <contour>
        <pt x="891" y="65" on="0"/>
        <pt x="687" y="-21" on="0"/>
        <pt x="587" y="-23" on="1"/>
        <pt x="628" y="-71" on="0"/>
        <pt x="694" y="-211" on="0"/>
        <pt x="694" y="-282" on="1"/>
        <pt x="694" y="-389" on="0"/>
        <pt x="568" y="-481" on="0"/>
        <pt x="444" y="-481" on="1"/>
        <pt x="443" y="-481" on="1"/>
        <pt x="408" y="-481" on="0"/>
        <pt x="325" y="-466" on="0"/>
        <pt x="299" y="-454" on="1"/>
        <pt x="300" y="-334" on="1"/>
        <pt x="320" y="-341" on="0"/>
        <pt x="377" y="-350" on="0"/>
        <pt x="394" y="-350" on="1"/>
        <pt x="395" y="-350" on="1"/>
        <pt x="450" y="-350" on="0"/>
        <pt x="515" y="-328" on="0"/>
        <pt x="550" y="-265" on="0"/>
        <pt x="550" y="-204" on="1"/>
        <pt x="550" y="-156" on="0"/>
        <pt x="514" y="-56" on="0"/>
        <pt x="491" y="-17" on="1"/>
        <pt x="356" y="3" on="0"/>
        <pt x="166" y="163" on="0"/>
        <pt x="69" y="410" on="0"/>
        <pt x="69" y="559" on="1"/>
        <pt x="69" y="725" on="0"/>
        <pt x="198" y="1002" on="0"/>
        <pt x="454" y="1168" on="0"/>
        <pt x="638" y="1168" on="1"/>
        <pt x="718" y="1168" on="0"/>
        <pt x="872" y="1129" on="0"/>
        <pt x="926" y="1106" on="1"/>
        <pt x="917" y="814" on="1"/>
        <pt x="815" y="814" on="1"/>
        <pt x="772" y="1009" on="1"/>
        <pt x="758" y="1071" on="0"/>
        <pt x="596" y="1071" on="1"/>
        <pt x="490" y="1071" on="0"/>
        <pt x="332" y="960" on="0"/>
        <pt x="246" y="752" on="0"/>
        <pt x="246" y="611" on="1"/>
        <pt x="246" y="441" on="0"/>
        <pt x="342" y="210" on="0"/>
        <pt x="508" y="97" on="0"/>
        <pt x="614" y="97" on="1"/>
        <pt x="701" y="97" on="0"/>
        <pt x="864" y="153" on="0"/>
        <pt x="915" y="191" on="1"/>
        <pt x="948" y="123" on="1"/>
      </contour>
    </TTGlyph>
    <TTGlyph name="ccircumflex" xMin="69" yMin="-23" xMax="948" yMax="1776">
      <component glyphName="circumflex" x="59" y="0" flags="0x0"/>
      <component glyphName="c" x="0" y="0" flags="0x0"/>
    </TTGlyph>
    <TTGlyph name="cdotaccent" xMin="69" yMin="-23" xMax="948" yMax="1625">
      <component glyphName="c" x="0" y="0" flags="0x0"/>
      <component glyphName="dotaccent" x="274" y="0" flags="0x0"/>
    </TTGlyph>
    <TTGlyph name="cedilla" xMin="1" yMin="-481" xMax="396" yMax="12">
      <contour>
        <pt x="267" y="1" on="1"/>
        <pt x="292" y="-22" on="0"/>
        <pt x="352" y="-110" on="0"/>
        <pt x="396" y="-225" on="0"/>
        <pt x="396" y="-282" on="1"/>
        <pt x="396" y="-389" on="0"/>
        <pt x="270" y="-481" on="0"/>
        <pt x="146" y="-481" on="1"/>
        <pt x="145" y="-481" on="1"/>
        <pt x="110" y="-481" on="0"/>
        <pt x="27" y="-466" on="0"/>
        <pt x="1" y="-454" on="1"/>
        <pt x="2" y="-334" on="1"/>
        <pt x="22" y="-341" on="0"/>
        <pt x="79" y="-350" on="0"/>
        <pt x="96" y="-350" on="1"/>
        <pt x="97" y="-350" on="1"/>
        <pt x="152" y="-350" on="0"/>
        <pt x="217" y="-328" on="0"/>
        <pt x="252" y="-265" on="0"/>
        <pt x="252" y="-204" on="1"/>
        <pt x="252" y="-149" on="0"/>
        <pt x="205" y="-32" on="0"/>
        <pt x="182" y="1" on="1"/>
        <pt x="230" y="12" on="1"/>
      </contour>
    </TTGlyph>
    <TTGlyph name="cent" xMin="119" yMin="-243" xMax="998" yMax="1375">
      <contour>
        <pt x="642" y="1375" on="1"/>
        <pt x="757" y="1375" on="1"/>
        <pt x="745" y="1165" on="1"/>
        <pt x="810" y="1159" on="0"/>
        <pt x="931" y="1125" on="0"/>
        <pt x="976" y="1106" on="1"/>
        <pt x="967" y="814" on="1"/>
        <pt x="865" y="814" on="1"/>
        <pt x="822" y="1009" on="1"/>
        <pt x="808" y="1071" on="0"/>
        <pt x="646" y="1071" on="1"/>
        <pt x="540" y="1071" on="0"/>
        <pt x="382" y="960" on="0"/>
        <pt x="296" y="752" on="0"/>
        <pt x="296" y="611" on="1"/>
        <pt x="296" y="441" on="0"/>
        <pt x="392" y="210" on="0"/>
        <pt x="558" y="97" on="0"/>
        <pt x="664" y="97" on="1"/>
        <pt x="751" y="97" on="0"/>
        <pt x="914" y="153" on="0"/>
        <pt x="965" y="191" on="1"/>
        <pt x="998" y="123" on="1"/>
        <pt x="944" y="68" on="0"/>
        <pt x="754" y="-15" on="0"/>
        <pt x="658" y="-22" on="1"/>
        <pt x="646" y="-243" on="1"/>
        <pt x="531" y="-243" on="1"/>
        <pt x="543" y="-17" on="1"/>
        <pt x="407" y="2" on="0"/>
        <pt x="216" y="162" on="0"/>
        <pt x="119" y="409" on="0"/>
        <pt x="119" y="559" on="1"/>
        <pt x="119" y="716" on="0"/>
        <pt x="234" y="982" on="0"/>
        <pt x="465" y="1153" on="0"/>
        <pt x="630" y="1166" on="1"/>
      </contour>
    </TTGlyph>
    <TTGlyph name="circumflex" xMin="168" yMin="1333" xMax="883" yMax="1776">
      <contour>
        <pt x="452" y="1776" on="1"/>
        <pt x="607" y="1776" on="1"/>
        <pt x="883" y="1376" on="1"/>
        <pt x="810" y="1334" on="1"/>
        <pt x="529" y="1643" on="1"/>
        <pt x="233" y="1333" on="1"/>
        <pt x="168" y="1375" on="1"/>
      </contour>
    </TTGlyph>
    <TTGlyph name="circumflex.cap" xMin="192" yMin="1673" xMax="873" yMax="2014">
      <contour>
        <pt x="454" y="2014" on="1"/>
        <pt x="608" y="2014" on="1"/>
        <pt x="873" y="1718" on="1"/>
        <pt x="798" y="1673" on="1"/>
        <pt x="532" y="1890" on="1"/>
        <pt x="260" y="1673" on="1"/>
        <pt x="192" y="1716" on="1"/>
      </contour>
    </TTGlyph>
    <TTGlyph name="colon" xMin="231" yMin="-22" xMax="474" yMax="1079">
      <component glyphName="period" x="101" y="851" flags="0x4"/>
      <component glyphName="period" x="101" y="0" flags="0x0"/>
    </TTGlyph>
    <TTGlyph name="colonmonetary" xMin="205" yMin="-308" xMax="1326" yMax="1801">
      <contour>
        <pt x="466" y="77" on="0"/>
        <pt x="294" y="280" on="0"/>
        <pt x="205" y="560" on="0"/>
        <pt x="205" y="725" on="1"/>
        <pt x="205" y="924" on="0"/>
        <pt x="324" y="1239" on="0"/>
        <pt x="543" y="1451" on="0"/>
        <pt x="690" y="1500" on="1"/>
        <pt x="710" y="1801" on="1"/>
        <pt x="818" y="1801" on="1"/>
        <pt x="799" y="1527" on="1"/>
        <pt x="875" y="1540" on="0"/>
        <pt x="944" y="1540" on="1"/>
        <pt x="971" y="1540" on="0"/>
        <pt x="985" y="1539" on="1"/>
        <pt x="1002" y="1801" on="1"/>
        <pt x="1109" y="1801" on="1"/>
        <pt x="1090" y="1526" on="1"/>
        <pt x="1155" y="1515" on="0"/>
        <pt x="1239" y="1490" on="1"/>
        <pt x="1308" y="1471" on="0"/>
        <pt x="1326" y="1471" on="1"/>
        <pt x="1307" y="1172" on="1"/>
        <pt x="1213" y="1172" on="1"/>
        <pt x="1184" y="1370" on="1"/>
        <pt x="1152" y="1399" on="0"/>
        <pt x="1082" y="1415" on="1"/>
        <pt x="993" y="80" on="1"/>
        <pt x="1048" y="92" on="0"/>
        <pt x="1138" y="137" on="0"/>
        <pt x="1165" y="163" on="1"/>
        <pt x="1230" y="324" on="1"/>
        <pt x="1325" y="310" on="1"/>
        <pt x="1300" y="68" on="1"/>
        <pt x="1279" y="67" on="0"/>
        <pt x="1238" y="55" on="0"/>
        <pt x="1196" y="39" on="1"/>
        <pt x="1138" y="17" on="0"/>
        <pt x="1047" y="-11" on="0"/>
        <pt x="985" y="-19" on="1"/>
        <pt x="963" y="-308" on="1"/>
        <pt x="856" y="-308" on="1"/>
        <pt x="877" y="-28" on="1"/>
        <pt x="854" y="-28" on="1"/>
        <pt x="769" y="-28" on="0"/>
        <pt x="694" y="-10" on="1"/>
        <pt x="671" y="-308" on="1"/>
        <pt x="563" y="-308" on="1"/>
        <pt x="588" y="24" on="1"/>
      </contour>
      <contour>
        <pt x="977" y="1432" on="1"/>
        <pt x="942" y="1436" on="0"/>
        <pt x="896" y="1436" on="1"/>
        <pt x="846" y="1436" on="0"/>
        <pt x="791" y="1426" on="1"/>
        <pt x="701" y="104" on="1"/>
        <pt x="785" y="69" on="0"/>
        <pt x="885" y="69" on="1"/>
      </contour>
      <contour>
        <pt x="681" y="1389" on="1"/>
        <pt x="541" y="1322" on="0"/>
        <pt x="388" y="1000" on="0"/>
        <pt x="388" y="759" on="1"/>
        <pt x="388" y="563" on="0"/>
        <pt x="490" y="253" on="0"/>
        <pt x="598" y="165" on="1"/>
      </contour>
    </TTGlyph>
    <TTGlyph name="comma" xMin="220" yMin="-438" xMax="488" yMax="284">
      <contour>
        <pt x="418" y="284" on="0"/>
        <pt x="488" y="149" on="0"/>
        <pt x="488" y="32" on="1"/>
        <pt x="488" y="-80" on="0"/>
        <pt x="426" y="-273" on="0"/>
        <pt x="327" y="-408" on="0"/>
        <pt x="273" y="-438" on="1"/>
        <pt x="271" y="-438" on="1"/>
        <pt x="220" y="-398" on="1"/>
        <pt x="220" y="-379" on="1"/>
        <pt x="270" y="-339" on="0"/>
        <pt x="346" y="-199" on="0"/>
        <pt x="346" y="-88" on="1"/>
        <pt x="346" y="-32" on="0"/>
        <pt x="319" y="31" on="0"/>
        <pt x="292" y="66" on="1"/>
        <pt x="269" y="96" on="0"/>
        <pt x="247" y="143" on="0"/>
        <pt x="247" y="181" on="1"/>
        <pt x="247" y="228" on="0"/>
        <pt x="306" y="284" on="0"/>
        <pt x="348" y="284" on="1"/>
        <pt x="356" y="284" on="1"/>
      </contour>
    </TTGlyph>
    <TTGlyph name="copyright" xMin="194" yMin="122" xMax="1935" yMax="1880">
      <contour>
        <pt x="1303" y="1880" on="0"/>
        <pt x="1703" y="1645" on="0"/>
        <pt x="1935" y="1242" on="0"/>
        <pt x="1935" y="1003" on="1"/>
        <pt x="1935" y="763" on="0"/>
        <pt x="1702" y="359" on="0"/>
        <pt x="1303" y="122" on="0"/>
        <pt x="1064" y="122" on="1"/>
        <pt x="825" y="122" on="0"/>
        <pt x="426" y="359" on="0"/>
        <pt x="194" y="763" on="0"/>
        <pt x="194" y="1003" on="1"/>
        <pt x="194" y="1242" on="0"/>
        <pt x="426" y="1645" on="0"/>
        <pt x="825" y="1880" on="0"/>
        <pt x="1064" y="1880" on="1"/>
      </contour>
      <contour>
        <pt x="1274" y="222" on="0"/>
        <pt x="1622" y="434" on="0"/>
        <pt x="1822" y="793" on="0"/>
        <pt x="1822" y="1003" on="1"/>
        <pt x="1822" y="1213" on="0"/>
        <pt x="1622" y="1571" on="0"/>
        <pt x="1274" y="1783" on="0"/>
        <pt x="1064" y="1783" on="1"/>
        <pt x="854" y="1783" on="0"/>
        <pt x="506" y="1571" on="0"/>
        <pt x="306" y="1213" on="0"/>
        <pt x="306" y="1003" on="1"/>
        <pt x="306" y="793" on="0"/>
        <pt x="506" y="434" on="0"/>
        <pt x="854" y="222" on="0"/>
        <pt x="1064" y="222" on="1"/>
      </contour>
      <contour>
        <pt x="622" y="1132" on="0"/>
        <pt x="754" y="1362" on="0"/>
        <pt x="986" y="1495" on="0"/>
        <pt x="1129" y="1495" on="1"/>
        <pt x="1202" y="1495" on="0"/>
        <pt x="1357" y="1462" on="0"/>
        <pt x="1385" y="1435" on="1"/>
        <pt x="1384" y="1220" on="1"/>
        <pt x="1287" y="1220" on="1"/>
        <pt x="1247" y="1352" on="1"/>
        <pt x="1222" y="1370" on="0"/>
        <pt x="1141" y="1388" on="0"/>
        <pt x="1067" y="1388" on="1"/>
        <pt x="979" y="1388" on="0"/>
        <pt x="851" y="1300" on="0"/>
        <pt x="783" y="1137" on="0"/>
        <pt x="783" y="1026" on="1"/>
        <pt x="783" y="911" on="0"/>
        <pt x="868" y="738" on="0"/>
        <pt x="1024" y="644" on="0"/>
        <pt x="1127" y="644" on="1"/>
        <pt x="1195" y="644" on="0"/>
        <pt x="1310" y="693" on="0"/>
        <pt x="1354" y="737" on="1"/>
        <pt x="1395" y="668" on="1"/>
        <pt x="1365" y="630" on="0"/>
        <pt x="1265" y="560" on="0"/>
        <pt x="1137" y="516" on="0"/>
        <pt x="1070" y="516" on="1"/>
        <pt x="926" y="516" on="0"/>
        <pt x="724" y="637" on="0"/>
        <pt x="622" y="853" on="0"/>
        <pt x="622" y="994" on="1"/>
      </contour>
    </TTGlyph>
    <TTGlyph name="currency" xMin="215" yMin="190" xMax="1332" yMax="1356">
      <contour>
        <pt x="341" y="616" on="0"/>
        <pt x="341" y="763" on="1"/>
        <pt x="341" y="839" on="0"/>
        <pt x="385" y="979" on="0"/>
        <pt x="427" y="1037" on="1"/>
        <pt x="215" y="1250" on="1"/>
        <pt x="317" y="1354" on="1"/>
        <pt x="530" y="1140" on="1"/>
        <pt x="636" y="1216" on="0"/>
        <pt x="770" y="1216" on="1"/>
        <pt x="837" y="1216" on="0"/>
        <pt x="963" y="1179" on="0"/>
        <pt x="1016" y="1145" on="1"/>
        <pt x="1228" y="1356" on="1"/>
        <pt x="1332" y="1252" on="1"/>
        <pt x="1124" y="1045" on="1"/>
        <pt x="1165" y="990" on="0"/>
        <pt x="1210" y="857" on="0"/>
        <pt x="1210" y="783" on="1"/>
        <pt x="1210" y="707" on="0"/>
        <pt x="1163" y="566" on="0"/>
        <pt x="1119" y="507" on="1"/>
        <pt x="1328" y="298" on="1"/>
        <pt x="1225" y="194" on="1"/>
        <pt x="1013" y="405" on="1"/>
        <pt x="960" y="369" on="0"/>
        <pt x="836" y="330" on="0"/>
        <pt x="770" y="330" on="1"/>
        <pt x="637" y="330" on="0"/>
        <pt x="529" y="400" on="1"/>
        <pt x="318" y="190" on="1"/>
        <pt x="215" y="294" on="1"/>
        <pt x="422" y="502" on="1"/>
      </contour>
      <contour>
        <pt x="1069" y="855" on="0"/>
        <pt x="987" y="1003" on="0"/>
        <pt x="847" y="1091" on="0"/>
        <pt x="765" y="1091" on="1"/>
        <pt x="673" y="1091" on="0"/>
        <pt x="542" y="1001" on="0"/>
        <pt x="474" y="853" on="0"/>
        <pt x="474" y="766" on="1"/>
        <pt x="474" y="680" on="0"/>
        <pt x="553" y="538" on="0"/>
        <pt x="689" y="455" on="0"/>
        <pt x="771" y="455" on="1"/>
        <pt x="869" y="455" on="0"/>
        <pt x="1003" y="538" on="0"/>
        <pt x="1069" y="681" on="0"/>
        <pt x="1069" y="770" on="1"/>
      </contour>
    </TTGlyph>
    <TTGlyph name="d" xMin="94" yMin="-23" xMax="1185" yMax="1677">
      <contour>
        <pt x="94" y="716" on="0"/>
        <pt x="237" y="1002" on="0"/>
        <pt x="502" y="1168" on="0"/>
        <pt x="678" y="1168" on="1"/>
        <pt x="786" y="1168" on="0"/>
        <pt x="895" y="1143" on="1"/>
        <pt x="895" y="1549" on="1"/>
        <pt x="682" y="1568" on="1"/>
        <pt x="682" y="1643" on="1"/>
        <pt x="1017" y="1677" on="1"/>
        <pt x="1022" y="1677" on="1"/>
        <pt x="1060" y="1648" on="1"/>
        <pt x="1060" y="92" on="1"/>
        <pt x="1185" y="92" on="1"/>
        <pt x="1185" y="13" on="1"/>
        <pt x="1165" y="8" on="1"/>
        <pt x="1111" y="-5" on="0"/>
        <pt x="1035" y="-19" on="0"/>
        <pt x="990" y="-19" on="1"/>
        <pt x="958" y="-19" on="0"/>
        <pt x="923" y="-7" on="0"/>
        <pt x="904" y="31" on="0"/>
        <pt x="904" y="69" on="1"/>
        <pt x="904" y="142" on="1"/>
        <pt x="841" y="72" on="0"/>
        <pt x="656" y="-23" on="0"/>
        <pt x="542" y="-23" on="1"/>
        <pt x="421" y="-23" on="0"/>
        <pt x="218" y="102" on="0"/>
        <pt x="94" y="357" on="0"/>
        <pt x="94" y="541" on="1"/>
      </contour>
      <contour>
        <pt x="895" y="996" on="1"/>
        <pt x="878" y="1024" on="0"/>
        <pt x="741" y="1064" on="0"/>
        <pt x="663" y="1064" on="1"/>
        <pt x="548" y="1064" on="0"/>
        <pt x="374" y="956" on="0"/>
        <pt x="275" y="729" on="0"/>
        <pt x="275" y="555" on="1"/>
        <pt x="275" y="401" on="0"/>
        <pt x="365" y="200" on="0"/>
        <pt x="516" y="107" on="0"/>
        <pt x="610" y="107" on="1"/>
        <pt x="671" y="107" on="0"/>
        <pt x="784" y="147" on="0"/>
        <pt x="870" y="209" on="0"/>
        <pt x="895" y="241" on="1"/>
      </contour>
    </TTGlyph>
    <TTGlyph name="dagger" xMin="163" yMin="117" xMax="904" yMax="1649">
      <contour>
        <pt x="476" y="1135" on="1"/>
        <pt x="163" y="1130" on="1"/>
        <pt x="164" y="1257" on="1"/>
        <pt x="476" y="1252" on="1"/>
        <pt x="458" y="1476" on="1"/>
        <pt x="458" y="1649" on="1"/>
        <pt x="608" y="1649" on="1"/>
        <pt x="608" y="1476" on="1"/>
        <pt x="592" y="1252" on="1"/>
        <pt x="904" y="1257" on="1"/>
        <pt x="904" y="1130" on="1"/>
        <pt x="592" y="1135" on="1"/>
        <pt x="610" y="920" on="1"/>
        <pt x="579" y="117" on="1"/>
        <pt x="490" y="117" on="1"/>
        <pt x="457" y="920" on="1"/>
      </contour>
    </TTGlyph>
    <TTGlyph name="daggerdbl" xMin="162" yMin="-439" xMax="905" yMax="1649">
      <contour>
        <pt x="477" y="628" on="1"/>
        <pt x="458" y="922" on="1"/>
        <pt x="477" y="1135" on="1"/>
        <pt x="162" y="1130" on="1"/>
        <pt x="162" y="1257" on="1"/>
        <pt x="477" y="1252" on="1"/>
        <pt x="458" y="1476" on="1"/>
        <pt x="458" y="1649" on="1"/>
        <pt x="609" y="1649" on="1"/>
        <pt x="609" y="1476" on="1"/>
        <pt x="592" y="1252" on="1"/>
        <pt x="905" y="1257" on="1"/>
        <pt x="905" y="1130" on="1"/>
        <pt x="592" y="1135" on="1"/>
        <pt x="610" y="922" on="1"/>
        <pt x="592" y="628" on="1"/>
        <pt x="905" y="633" on="1"/>
        <pt x="905" y="507" on="1"/>
        <pt x="592" y="511" on="1"/>
        <pt x="610" y="296" on="1"/>
        <pt x="579" y="-439" on="1"/>
        <pt x="490" y="-439" on="1"/>
        <pt x="458" y="296" on="1"/>
        <pt x="477" y="511" on="1"/>
        <pt x="162" y="507" on="1"/>
        <pt x="162" y="633" on="1"/>
      </contour>
    </TTGlyph>
    <TTGlyph name="dcaron" xMin="94" yMin="-23" xMax="1473" yMax="1678">
      <component glyphName="d" x="0" y="0" flags="0x0"/>
      <component glyphName="caronvertical" x="1194" y="0" flags="0x0"/>
    </TTGlyph>
    <TTGlyph name="dcroat" xMin="88" yMin="-23" xMax="1204" yMax="1677">
      <contour>
        <pt x="889" y="1409" on="1"/>
        <pt x="889" y="1549" on="1"/>
        <pt x="676" y="1568" on="1"/>
        <pt x="676" y="1643" on="1"/>
        <pt x="1011" y="1677" on="1"/>
        <pt x="1016" y="1677" on="1"/>
        <pt x="1054" y="1648" on="1"/>
        <pt x="1054" y="1409" on="1"/>
        <pt x="1204" y="1409" on="1"/>
        <pt x="1204" y="1310" on="1"/>
        <pt x="1054" y="1310" on="1"/>
        <pt x="1054" y="92" on="1"/>
        <pt x="1179" y="92" on="1"/>
        <pt x="1179" y="13" on="1"/>
        <pt x="1159" y="8" on="1"/>
        <pt x="1105" y="-5" on="0"/>
        <pt x="1029" y="-19" on="0"/>
        <pt x="984" y="-19" on="1"/>
        <pt x="952" y="-19" on="0"/>
        <pt x="917" y="-7" on="0"/>
        <pt x="898" y="31" on="0"/>
        <pt x="898" y="69" on="1"/>
        <pt x="898" y="142" on="1"/>
        <pt x="835" y="72" on="0"/>
        <pt x="650" y="-23" on="0"/>
        <pt x="536" y="-23" on="1"/>
        <pt x="415" y="-23" on="0"/>
        <pt x="212" y="102" on="0"/>
        <pt x="88" y="357" on="0"/>
        <pt x="88" y="541" on="1"/>
        <pt x="88" y="716" on="0"/>
        <pt x="231" y="1002" on="0"/>
        <pt x="496" y="1168" on="0"/>
        <pt x="672" y="1168" on="1"/>
        <pt x="780" y="1168" on="0"/>
        <pt x="889" y="1143" on="1"/>
        <pt x="889" y="1310" on="1"/>
        <pt x="621" y="1310" on="1"/>
        <pt x="621" y="1409" on="1"/>
      </contour>
      <contour>
        <pt x="889" y="996" on="1"/>
        <pt x="872" y="1024" on="0"/>
        <pt x="735" y="1064" on="0"/>
        <pt x="657" y="1064" on="1"/>
        <pt x="542" y="1064" on="0"/>
        <pt x="368" y="956" on="0"/>
        <pt x="269" y="729" on="0"/>
        <pt x="269" y="555" on="1"/>
        <pt x="269" y="401" on="0"/>
        <pt x="359" y="200" on="0"/>
        <pt x="510" y="107" on="0"/>
        <pt x="604" y="107" on="1"/>
        <pt x="665" y="107" on="0"/>
        <pt x="778" y="147" on="0"/>
        <pt x="864" y="209" on="0"/>
        <pt x="889" y="241" on="1"/>
      </contour>
    </TTGlyph>
    <TTGlyph name="degree" xMin="115" yMin="951" xMax="802" yMax="1634">
      <contour>
        <pt x="115" y="1389" on="0"/>
        <pt x="207" y="1545" on="0"/>
        <pt x="364" y="1634" on="0"/>
        <pt x="457" y="1634" on="1"/>
        <pt x="555" y="1634" on="0"/>
        <pt x="713" y="1542" on="0"/>
        <pt x="802" y="1385" on="0"/>
        <pt x="802" y="1293" on="1"/>
        <pt x="802" y="1196" on="0"/>
        <pt x="710" y="1040" on="0"/>
        <pt x="552" y="951" on="0"/>
        <pt x="457" y="951" on="1"/>
        <pt x="365" y="951" on="0"/>
        <pt x="208" y="1044" on="0"/>
        <pt x="115" y="1201" on="0"/>
        <pt x="115" y="1293" on="1"/>
      </contour>
      <contour>
        <pt x="682" y="1355" on="0"/>
        <pt x="622" y="1459" on="0"/>
        <pt x="519" y="1521" on="0"/>
        <pt x="456" y="1521" on="1"/>
        <pt x="392" y="1521" on="0"/>
        <pt x="291" y="1462" on="0"/>
        <pt x="233" y="1358" on="0"/>
        <pt x="233" y="1293" on="1"/>
        <pt x="233" y="1232" on="0"/>
        <pt x="295" y="1127" on="0"/>
        <pt x="398" y="1065" on="0"/>
        <pt x="459" y="1065" on="1"/>
        <pt x="524" y="1065" on="0"/>
        <pt x="625" y="1123" on="0"/>
        <pt x="682" y="1226" on="0"/>
        <pt x="682" y="1293" on="1"/>
      </contour>
    </TTGlyph>
    <TTGlyph name="dieresis" xMin="175" yMin="1372" xMax="851" yMax="1624">
      <contour>
        <pt x="175" y="1544" on="0"/>
        <pt x="238" y="1624" on="0"/>
        <pt x="295" y="1624" on="1"/>
        <pt x="296" y="1624" on="1"/>
        <pt x="345" y="1624" on="0"/>
        <pt x="403" y="1553" on="0"/>
        <pt x="403" y="1506" on="1"/>
        <pt x="403" y="1448" on="0"/>
        <pt x="339" y="1372" on="0"/>
        <pt x="279" y="1372" on="1"/>
        <pt x="278" y="1372" on="1"/>
        <pt x="231" y="1372" on="0"/>
        <pt x="175" y="1439" on="0"/>
        <pt x="175" y="1488" on="1"/>
      </contour>
      <contour>
        <pt x="623" y="1544" on="0"/>
        <pt x="686" y="1624" on="0"/>
        <pt x="743" y="1624" on="1"/>
        <pt x="744" y="1624" on="1"/>
        <pt x="794" y="1624" on="0"/>
        <pt x="851" y="1553" on="0"/>
        <pt x="851" y="1506" on="1"/>
        <pt x="851" y="1448" on="0"/>
        <pt x="787" y="1372" on="0"/>
        <pt x="727" y="1372" on="1"/>
        <pt x="726" y="1372" on="1"/>
        <pt x="680" y="1372" on="0"/>
        <pt x="623" y="1439" on="0"/>
        <pt x="623" y="1488" on="1"/>
      </contour>
    </TTGlyph>
    <TTGlyph name="dieresis.cap" xMin="154" yMin="1708" xMax="868" yMax="1961">
      <contour>
        <pt x="154" y="1881" on="0"/>
        <pt x="216" y="1961" on="0"/>
        <pt x="273" y="1961" on="1"/>
        <pt x="274" y="1961" on="1"/>
        <pt x="323" y="1961" on="0"/>
        <pt x="382" y="1889" on="0"/>
        <pt x="382" y="1842" on="1"/>
        <pt x="382" y="1785" on="0"/>
        <pt x="317" y="1708" on="0"/>
        <pt x="258" y="1708" on="1"/>
        <pt x="257" y="1708" on="1"/>
        <pt x="210" y="1708" on="0"/>
        <pt x="154" y="1775" on="0"/>
        <pt x="154" y="1825" on="1"/>
      </contour>
      <contour>
        <pt x="640" y="1881" on="0"/>
        <pt x="703" y="1961" on="0"/>
        <pt x="760" y="1961" on="1"/>
        <pt x="761" y="1961" on="1"/>
        <pt x="811" y="1961" on="0"/>
        <pt x="868" y="1889" on="0"/>
        <pt x="868" y="1842" on="1"/>
        <pt x="868" y="1784" on="0"/>
        <pt x="804" y="1708" on="0"/>
        <pt x="744" y="1708" on="1"/>
        <pt x="743" y="1708" on="1"/>
        <pt x="696" y="1708" on="0"/>
        <pt x="640" y="1775" on="0"/>
        <pt x="640" y="1825" on="1"/>
      </contour>
    </TTGlyph>
    <TTGlyph name="divide" xMin="219" yMin="80" xMax="1145" yMax="1150">
      <contour>
        <pt x="577" y="1053" on="0"/>
        <pt x="617" y="1114" on="0"/>
        <pt x="680" y="1150" on="0"/>
        <pt x="713" y="1150" on="1"/>
        <pt x="771" y="1150" on="0"/>
        <pt x="828" y="1086" on="0"/>
        <pt x="828" y="1036" on="1"/>
        <pt x="828" y="998" on="0"/>
        <pt x="790" y="938" on="0"/>
        <pt x="727" y="904" on="0"/>
        <pt x="692" y="904" on="1"/>
        <pt x="645" y="904" on="0"/>
        <pt x="577" y="967" on="0"/>
        <pt x="577" y="1017" on="1"/>
      </contour>
      <contour>
        <pt x="1145" y="678" on="1"/>
        <pt x="1145" y="552" on="1"/>
        <pt x="219" y="552" on="1"/>
        <pt x="219" y="678" on="1"/>
      </contour>
      <contour>
        <pt x="751" y="326" on="0"/>
        <pt x="809" y="261" on="0"/>
        <pt x="809" y="212" on="1"/>
        <pt x="809" y="174" on="0"/>
        <pt x="770" y="114" on="0"/>
        <pt x="707" y="80" on="0"/>
        <pt x="672" y="80" on="1"/>
        <pt x="626" y="80" on="0"/>
        <pt x="558" y="142" on="0"/>
        <pt x="558" y="193" on="1"/>
        <pt x="558" y="229" on="0"/>
        <pt x="597" y="290" on="0"/>
        <pt x="661" y="326" on="0"/>
        <pt x="694" y="326" on="1"/>
      </contour>
    </TTGlyph>
    <TTGlyph name="dollar" xMin="210" yMin="-258" xMax="1165" yMax="1762">
      <contour>
        <pt x="723" y="-258" on="1"/>
        <pt x="594" y="-258" on="1"/>
        <pt x="596" y="-20" on="1"/>
        <pt x="481" y="-13" on="0"/>
        <pt x="261" y="44" on="0"/>
        <pt x="210" y="69" on="1"/>
        <pt x="225" y="413" on="1"/>
        <pt x="328" y="413" on="1"/>
        <pt x="368" y="158" on="1"/>
        <pt x="416" y="119" on="0"/>
        <pt x="572" y="76" on="0"/>
        <pt x="671" y="76" on="1"/>
        <pt x="830" y="76" on="0"/>
        <pt x="999" y="214" on="0"/>
        <pt x="999" y="350" on="1"/>
        <pt x="999" y="426" on="0"/>
        <pt x="908" y="544" on="0"/>
        <pt x="772" y="631" on="0"/>
        <pt x="652" y="693" on="1"/>
        <pt x="609" y="716" on="1"/>
        <pt x="477" y="785" on="0"/>
        <pt x="318" y="906" on="0"/>
        <pt x="232" y="1066" on="0"/>
        <pt x="232" y="1178" on="1"/>
        <pt x="232" y="1278" on="0"/>
        <pt x="338" y="1431" on="0"/>
        <pt x="518" y="1523" on="0"/>
        <pt x="628" y="1535" on="1"/>
        <pt x="628" y="1762" on="1"/>
        <pt x="759" y="1762" on="1"/>
        <pt x="759" y="1538" on="1"/>
        <pt x="864" y="1532" on="0"/>
        <pt x="1019" y="1488" on="0"/>
        <pt x="1084" y="1461" on="1"/>
        <pt x="1073" y="1136" on="1"/>
        <pt x="974" y="1136" on="1"/>
        <pt x="927" y="1381" on="1"/>
        <pt x="848" y="1442" on="0"/>
        <pt x="701" y="1442" on="1"/>
        <pt x="566" y="1442" on="0"/>
        <pt x="391" y="1326" on="0"/>
        <pt x="391" y="1203" on="1"/>
        <pt x="391" y="1124" on="0"/>
        <pt x="469" y="1008" on="0"/>
        <pt x="585" y="930" on="0"/>
        <pt x="684" y="876" on="1"/>
        <pt x="715" y="859" on="1"/>
        <pt x="764" y="831" on="1"/>
        <pt x="917" y="745" on="0"/>
        <pt x="1072" y="636" on="0"/>
        <pt x="1165" y="487" on="0"/>
        <pt x="1165" y="379" on="1"/>
        <pt x="1165" y="267" on="0"/>
        <pt x="1060" y="94" on="0"/>
        <pt x="862" y="-10" on="0"/>
        <pt x="725" y="-20" on="1"/>
      </contour>
    </TTGlyph>
    <TTGlyph name="dong" xMin="184" yMin="0" xMax="1212" yMax="1676">
      <contour>
        <pt x="874" y="1415" on="1"/>
        <pt x="874" y="1550" on="1"/>
        <pt x="674" y="1563" on="1"/>
        <pt x="674" y="1641" on="1"/>
        <pt x="993" y="1676" on="1"/>
        <pt x="998" y="1676" on="1"/>
        <pt x="1035" y="1650" on="1"/>
        <pt x="1035" y="1415" on="1"/>
        <pt x="1212" y="1415" on="1"/>
        <pt x="1212" y="1317" on="1"/>
        <pt x="1035" y="1317" on="1"/>
        <pt x="1035" y="369" on="1"/>
        <pt x="1161" y="369" on="1"/>
        <pt x="1161" y="288" on="1"/>
        <pt x="1108" y="273" on="0"/>
        <pt x="1016" y="256" on="0"/>
        <pt x="965" y="256" on="1"/>
        <pt x="933" y="256" on="0"/>
        <pt x="898" y="267" on="0"/>
        <pt x="880" y="302" on="0"/>
        <pt x="880" y="338" on="1"/>
        <pt x="880" y="420" on="1"/>
        <pt x="737" y="265" on="0"/>
        <pt x="540" y="265" on="1"/>
        <pt x="448" y="265" on="0"/>
        <pt x="285" y="365" on="0"/>
        <pt x="184" y="560" on="0"/>
        <pt x="184" y="696" on="1"/>
        <pt x="184" y="833" on="0"/>
        <pt x="296" y="1047" on="0"/>
        <pt x="509" y="1167" on="0"/>
        <pt x="656" y="1167" on="1"/>
        <pt x="713" y="1167" on="0"/>
        <pt x="818" y="1147" on="0"/>
        <pt x="874" y="1131" on="1"/>
        <pt x="874" y="1317" on="1"/>
        <pt x="563" y="1317" on="1"/>
        <pt x="563" y="1415" on="1"/>
      </contour>
      <contour>
        <pt x="874" y="1012" on="1"/>
        <pt x="860" y="1037" on="0"/>
        <pt x="721" y="1074" on="0"/>
        <pt x="640" y="1074" on="1"/>
        <pt x="560" y="1074" on="0"/>
        <pt x="428" y="997" on="0"/>
        <pt x="349" y="832" on="0"/>
        <pt x="349" y="705" on="1"/>
        <pt x="349" y="599" on="0"/>
        <pt x="416" y="454" on="0"/>
        <pt x="526" y="383" on="0"/>
        <pt x="591" y="383" on="1"/>
        <pt x="681" y="383" on="0"/>
        <pt x="828" y="468" on="0"/>
        <pt x="874" y="524" on="1"/>
      </contour>
      <contour>
        <pt x="1187" y="100" on="1"/>
        <pt x="1187" y="0" on="1"/>
        <pt x="202" y="0" on="1"/>
        <pt x="202" y="100" on="1"/>
      </contour>
    </TTGlyph>
    <TTGlyph name="dotaccent" xMin="178" yMin="1372" xMax="405" yMax="1625">
      <contour>
        <pt x="178" y="1544" on="0"/>
        <pt x="241" y="1625" on="0"/>
        <pt x="298" y="1625" on="1"/>
        <pt x="299" y="1625" on="1"/>
        <pt x="348" y="1625" on="0"/>
        <pt x="405" y="1554" on="0"/>
        <pt x="405" y="1507" on="1"/>
        <pt x="405" y="1448" on="0"/>
        <pt x="342" y="1372" on="0"/>
        <pt x="282" y="1372" on="1"/>
        <pt x="281" y="1372" on="1"/>
        <pt x="234" y="1372" on="0"/>
        <pt x="178" y="1439" on="0"/>
        <pt x="178" y="1488" on="1"/>
      </contour>
    </TTGlyph>
    <TTGlyph name="dotaccent.cap" xMin="177" yMin="1713" xMax="405" yMax="1965">
      <contour>
        <pt x="177" y="1885" on="0"/>
        <pt x="239" y="1965" on="0"/>
        <pt x="296" y="1965" on="1"/>
        <pt x="297" y="1965" on="1"/>
        <pt x="347" y="1965" on="0"/>
        <pt x="405" y="1893" on="0"/>
        <pt x="405" y="1846" on="1"/>
        <pt x="405" y="1788" on="0"/>
        <pt x="341" y="1713" on="0"/>
        <pt x="281" y="1713" on="1"/>
        <pt x="280" y="1713" on="1"/>
        <pt x="233" y="1713" on="0"/>
        <pt x="177" y="1779" on="0"/>
        <pt x="177" y="1829" on="1"/>
      </contour>
    </TTGlyph>
    <TTGlyph name="dotlessi" xMin="87" yMin="0" xMax="611" yMax="1161">
      <contour>
        <pt x="267" y="104" on="1"/>
        <pt x="267" y="1001" on="1"/>
        <pt x="106" y="1037" on="1"/>
        <pt x="106" y="1129" on="1"/>
        <pt x="387" y="1161" on="1"/>
        <pt x="392" y="1161" on="1"/>
        <pt x="432" y="1129" on="1"/>
        <pt x="432" y="103" on="1"/>
        <pt x="611" y="88" on="1"/>
        <pt x="611" y="0" on="1"/>
        <pt x="87" y="0" on="1"/>
        <pt x="87" y="88" on="1"/>
      </contour>
    </TTGlyph>
    <TTGlyph name="e" xMin="96" yMin="-23" xMax="1013" yMax="1168">
      <contour>
        <pt x="96" y="747" on="0"/>
        <pt x="232" y="1017" on="0"/>
        <pt x="472" y="1168" on="0"/>
        <pt x="621" y="1168" on="1"/>
        <pt x="803" y="1168" on="0"/>
        <pt x="1006" y="960" on="0"/>
        <pt x="1013" y="762" on="1"/>
        <pt x="1013" y="729" on="1"/>
        <pt x="1013" y="628" on="0"/>
        <pt x="1002" y="582" on="1"/>
        <pt x="273" y="582" on="1"/>
        <pt x="273" y="565" on="0"/>
        <pt x="274" y="557" on="1"/>
        <pt x="278" y="404" on="0"/>
        <pt x="378" y="196" on="0"/>
        <pt x="542" y="94" on="0"/>
        <pt x="643" y="94" on="1"/>
        <pt x="728" y="94" on="0"/>
        <pt x="908" y="156" on="0"/>
        <pt x="958" y="198" on="1"/>
        <pt x="991" y="123" on="1"/>
        <pt x="931" y="61" on="0"/>
        <pt x="705" y="-23" on="0"/>
        <pt x="590" y="-23" on="1"/>
        <pt x="432" y="-23" on="0"/>
        <pt x="209" y="128" on="0"/>
        <pt x="96" y="397" on="0"/>
        <pt x="96" y="574" on="1"/>
      </contour>
      <contour>
        <pt x="830" y="678" on="1"/>
        <pt x="835" y="726" on="0"/>
        <pt x="835" y="769" on="1"/>
        <pt x="834" y="903" on="0"/>
        <pt x="709" y="1062" on="0"/>
        <pt x="579" y="1062" on="1"/>
        <pt x="299" y="1062" on="0"/>
        <pt x="275" y="678" on="1"/>
      </contour>
    </TTGlyph>
    <TTGlyph name="eacute" xMin="96" yMin="-23" xMax="1013" yMax="1799">
      <component glyphName="acute" x="254" y="0" flags="0x0"/>
      <component glyphName="e" x="0" y="0" flags="0x0"/>
    </TTGlyph>
    <TTGlyph name="ebreve" xMin="96" yMin="-23" xMax="1013" yMax="1748">
      <component glyphName="e" x="0" y="0" flags="0x0"/>
      <component glyphName="breve" x="84" y="0" flags="0x0"/>
    </TTGlyph>
    <TTGlyph name="ecaron" xMin="96" yMin="-23" xMax="1013" yMax="1797">
      <component glyphName="caron" x="85" y="0" flags="0x0"/>
      <component glyphName="e" x="0" y="0" flags="0x0"/>
    </TTGlyph>
    <TTGlyph name="ecircumflex" xMin="96" yMin="-23" xMax="1013" yMax="1776">
      <component glyphName="circumflex" x="63" y="0" flags="0x0"/>
      <component glyphName="e" x="0" y="0" flags="0x0"/>
    </TTGlyph>
    <TTGlyph name="edieresis" xMin="96" yMin="-23" xMax="1013" yMax="1624">
      <component glyphName="dieresis" x="84" y="0" flags="0x0"/>
      <component glyphName="e" x="0" y="0" flags="0x0"/>
    </TTGlyph>
    <TTGlyph name="edotaccent" xMin="96" yMin="-23" xMax="1013" yMax="1625">
      <component glyphName="e" x="0" y="0" flags="0x0"/>
      <component glyphName="dotaccent" x="309" y="0" flags="0x0"/>
    </TTGlyph>
    <TTGlyph name="egrave" xMin="96" yMin="-23" xMax="1013" yMax="1799">
      <component glyphName="e" x="0" y="0" flags="0x0"/>
      <component glyphName="grave" x="254" y="0" flags="0x0"/>
    </TTGlyph>
    <TTGlyph name="eight" xMin="147" yMin="-18" xMax="1147" yMax="1559">
      <contour>
        <pt x="348" y="864" on="0"/>
        <pt x="211" y="1048" on="0"/>
        <pt x="211" y="1180" on="1"/>
        <pt x="211" y="1299" on="0"/>
        <pt x="337" y="1471" on="0"/>
        <pt x="542" y="1559" on="0"/>
        <pt x="658" y="1559" on="1"/>
        <pt x="781" y="1559" on="0"/>
        <pt x="974" y="1476" on="0"/>
        <pt x="1084" y="1323" on="0"/>
        <pt x="1084" y="1221" on="1"/>
        <pt x="1084" y="1100" on="0"/>
        <pt x="936" y="883" on="0"/>
        <pt x="804" y="804" on="1"/>
        <pt x="910" y="746" on="0"/>
        <pt x="1055" y="635" on="0"/>
        <pt x="1147" y="488" on="0"/>
        <pt x="1147" y="394" on="1"/>
        <pt x="1147" y="272" on="0"/>
        <pt x="1004" y="84" on="0"/>
        <pt x="771" y="-18" on="0"/>
        <pt x="642" y="-18" on="1"/>
        <pt x="518" y="-18" on="0"/>
        <pt x="292" y="64" on="0"/>
        <pt x="147" y="241" on="0"/>
        <pt x="147" y="376" on="1"/>
        <pt x="147" y="499" on="0"/>
        <pt x="308" y="716" on="0"/>
        <pt x="469" y="790" on="1"/>
      </contour>
      <contour>
        <pt x="816" y="903" on="0"/>
        <pt x="939" y="1076" on="0"/>
        <pt x="939" y="1174" on="1"/>
        <pt x="939" y="1267" on="0"/>
        <pt x="867" y="1403" on="0"/>
        <pt x="736" y="1475" on="0"/>
        <pt x="650" y="1475" on="1"/>
        <pt x="569" y="1475" on="0"/>
        <pt x="436" y="1412" on="0"/>
        <pt x="357" y="1295" on="0"/>
        <pt x="357" y="1217" on="1"/>
        <pt x="357" y="1137" on="0"/>
        <pt x="452" y="1011" on="0"/>
        <pt x="596" y="916" on="0"/>
        <pt x="715" y="853" on="1"/>
      </contour>
      <contour>
        <pt x="444" y="692" on="0"/>
        <pt x="309" y="517" on="0"/>
        <pt x="309" y="412" on="1"/>
        <pt x="309" y="308" on="0"/>
        <pt x="395" y="154" on="0"/>
        <pt x="553" y="71" on="0"/>
        <pt x="660" y="71" on="1"/>
        <pt x="739" y="71" on="0"/>
        <pt x="886" y="144" on="0"/>
        <pt x="978" y="274" on="0"/>
        <pt x="978" y="356" on="1"/>
        <pt x="978" y="435" on="0"/>
        <pt x="888" y="554" on="0"/>
        <pt x="754" y="639" on="0"/>
        <pt x="637" y="699" on="1"/>
        <pt x="552" y="743" on="1"/>
      </contour>
    </TTGlyph>
    <TTGlyph name="eight.dnom" xMin="110" yMin="-20" xMax="912" yMax="1027">
      <contour>
        <pt x="110" y="341" on="0"/>
        <pt x="220" y="472" on="0"/>
        <pt x="327" y="513" on="1"/>
        <pt x="248" y="556" on="0"/>
        <pt x="159" y="668" on="0"/>
        <pt x="159" y="747" on="1"/>
        <pt x="159" y="833" on="0"/>
        <pt x="257" y="960" on="0"/>
        <pt x="420" y="1027" on="0"/>
        <pt x="517" y="1027" on="1"/>
        <pt x="622" y="1027" on="0"/>
        <pt x="780" y="961" on="0"/>
        <pt x="864" y="845" on="0"/>
        <pt x="864" y="774" on="1"/>
        <pt x="864" y="708" on="0"/>
        <pt x="767" y="568" on="0"/>
        <pt x="682" y="518" on="1"/>
        <pt x="791" y="469" on="0"/>
        <pt x="912" y="351" on="0"/>
        <pt x="912" y="262" on="1"/>
        <pt x="912" y="177" on="0"/>
        <pt x="806" y="49" on="0"/>
        <pt x="628" y="-20" on="0"/>
        <pt x="523" y="-20" on="1"/>
        <pt x="419" y="-20" on="0"/>
        <pt x="230" y="40" on="0"/>
        <pt x="110" y="169" on="0"/>
        <pt x="110" y="268" on="1"/>
      </contour>
      <contour>
        <pt x="653" y="588" on="0"/>
        <pt x="727" y="703" on="0"/>
        <pt x="727" y="752" on="1"/>
        <pt x="727" y="811" on="0"/>
        <pt x="673" y="901" on="0"/>
        <pt x="575" y="950" on="0"/>
        <pt x="512" y="950" on="1"/>
        <pt x="454" y="950" on="0"/>
        <pt x="355" y="904" on="0"/>
        <pt x="297" y="824" on="0"/>
        <pt x="297" y="775" on="1"/>
        <pt x="297" y="726" on="0"/>
        <pt x="369" y="652" on="0"/>
        <pt x="476" y="600" on="0"/>
        <pt x="569" y="564" on="1"/>
        <pt x="594" y="554" on="1"/>
      </contour>
      <contour>
        <pt x="338" y="452" on="0"/>
        <pt x="261" y="350" on="0"/>
        <pt x="261" y="292" on="1"/>
        <pt x="261" y="182" on="0"/>
        <pt x="400" y="55" on="0"/>
        <pt x="520" y="55" on="1"/>
        <pt x="578" y="55" on="0"/>
        <pt x="687" y="99" on="0"/>
        <pt x="755" y="180" on="0"/>
        <pt x="755" y="231" on="1"/>
        <pt x="755" y="280" on="0"/>
        <pt x="686" y="352" on="0"/>
        <pt x="584" y="402" on="0"/>
        <pt x="494" y="438" on="1"/>
        <pt x="403" y="476" on="1"/>
      </contour>
    </TTGlyph>
    <TTGlyph name="ellipsis" xMin="129" yMin="-22" xMax="1378" yMax="228">
      <contour>
        <pt x="129" y="130" on="0"/>
        <pt x="167" y="192" on="0"/>
        <pt x="229" y="228" on="0"/>
        <pt x="262" y="228" on="1"/>
        <pt x="318" y="228" on="0"/>
        <pt x="373" y="162" on="0"/>
        <pt x="373" y="113" on="1"/>
        <pt x="373" y="74" on="0"/>
        <pt x="336" y="13" on="0"/>
        <pt x="276" y="-22" on="0"/>
        <pt x="241" y="-22" on="1"/>
        <pt x="194" y="-22" on="0"/>
        <pt x="129" y="42" on="0"/>
        <pt x="129" y="93" on="1"/>
      </contour>
      <contour>
        <pt x="632" y="130" on="0"/>
        <pt x="670" y="192" on="0"/>
        <pt x="731" y="228" on="0"/>
        <pt x="764" y="228" on="1"/>
        <pt x="820" y="228" on="0"/>
        <pt x="876" y="162" on="0"/>
        <pt x="876" y="113" on="1"/>
        <pt x="876" y="74" on="0"/>
        <pt x="839" y="13" on="0"/>
        <pt x="779" y="-22" on="0"/>
        <pt x="744" y="-22" on="1"/>
        <pt x="697" y="-22" on="0"/>
        <pt x="632" y="42" on="0"/>
        <pt x="632" y="93" on="1"/>
      </contour>
      <contour>
        <pt x="1135" y="130" on="0"/>
        <pt x="1173" y="192" on="0"/>
        <pt x="1234" y="228" on="0"/>
        <pt x="1267" y="228" on="1"/>
        <pt x="1323" y="228" on="0"/>
        <pt x="1378" y="162" on="0"/>
        <pt x="1378" y="113" on="1"/>
        <pt x="1378" y="74" on="0"/>
        <pt x="1342" y="12" on="0"/>
        <pt x="1281" y="-22" on="0"/>
        <pt x="1246" y="-22" on="1"/>
        <pt x="1200" y="-22" on="0"/>
        <pt x="1135" y="42" on="0"/>
        <pt x="1135" y="93" on="1"/>
      </contour>
    </TTGlyph>
    <TTGlyph name="emacron" xMin="96" yMin="-23" xMax="1013" yMax="1557">
      <component glyphName="e" x="0" y="0" flags="0x0"/>
      <component glyphName="macron" x="254" y="0" flags="0x0"/>
    </TTGlyph>
    <TTGlyph name="emdash" xMin="230" yMin="553" xMax="2172" yMax="678">
      <contour>
        <pt x="2172" y="678" on="1"/>
        <pt x="2172" y="553" on="1"/>
        <pt x="230" y="553" on="1"/>
        <pt x="230" y="678" on="1"/>
      </contour>
    </TTGlyph>
    <TTGlyph name="endash" xMin="230" yMin="552" xMax="1434" yMax="678">
      <contour>
        <pt x="1434" y="678" on="1"/>
        <pt x="1434" y="552" on="1"/>
        <pt x="230" y="552" on="1"/>
        <pt x="230" y="678" on="1"/>
      </contour>
    </TTGlyph>
    <TTGlyph name="eng" xMin="87" yMin="-502" xMax="1150" yMax="1165">
      <contour>
        <pt x="247" y="104" on="1"/>
        <pt x="247" y="1004" on="1"/>
        <pt x="87" y="1039" on="1"/>
        <pt x="87" y="1131" on="1"/>
        <pt x="349" y="1164" on="1"/>
        <pt x="354" y="1164" on="1"/>
        <pt x="393" y="1131" on="1"/>
        <pt x="393" y="1046" on="1"/>
        <pt x="392" y="989" on="1"/>
        <pt x="439" y="1031" on="0"/>
        <pt x="586" y="1112" on="0"/>
        <pt x="751" y="1165" on="0"/>
        <pt x="823" y="1165" on="1"/>
        <pt x="954" y="1165" on="0"/>
        <pt x="1095" y="1067" on="0"/>
        <pt x="1150" y="864" on="0"/>
        <pt x="1150" y="690" on="1"/>
        <pt x="1150" y="22" on="1"/>
        <pt x="1150" y="-229" on="0"/>
        <pt x="984" y="-489" on="0"/>
        <pt x="827" y="-501" on="1"/>
        <pt x="809" y="-502" on="0"/>
        <pt x="727" y="-498" on="0"/>
        <pt x="718" y="-493" on="1"/>
        <pt x="710" y="-408" on="1"/>
        <pt x="725" y="-410" on="0"/>
        <pt x="797" y="-399" on="0"/>
        <pt x="820" y="-391" on="1"/>
        <pt x="910" y="-366" on="0"/>
        <pt x="985" y="-140" on="0"/>
        <pt x="985" y="46" on="1"/>
        <pt x="985" y="690" on="1"/>
        <pt x="985" y="818" on="0"/>
        <pt x="951" y="964" on="0"/>
        <pt x="851" y="1037" on="0"/>
        <pt x="753" y="1037" on="1"/>
        <pt x="673" y="1037" on="0"/>
        <pt x="483" y="956" on="0"/>
        <pt x="411" y="901" on="1"/>
        <pt x="411" y="104" on="1"/>
        <pt x="560" y="88" on="1"/>
        <pt x="560" y="0" on="1"/>
        <pt x="109" y="0" on="1"/>
        <pt x="109" y="88" on="1"/>
      </contour>
    </TTGlyph>
    <TTGlyph name="eogonek" xMin="96" yMin="-509" xMax="1013" yMax="1168">
      <contour>
        <pt x="96" y="747" on="0"/>
        <pt x="232" y="1017" on="0"/>
        <pt x="472" y="1168" on="0"/>
        <pt x="621" y="1168" on="1"/>
        <pt x="803" y="1168" on="0"/>
        <pt x="1006" y="960" on="0"/>
        <pt x="1013" y="762" on="1"/>
        <pt x="1013" y="729" on="1"/>
        <pt x="1013" y="628" on="0"/>
        <pt x="1002" y="582" on="1"/>
        <pt x="273" y="582" on="1"/>
        <pt x="273" y="565" on="0"/>
        <pt x="274" y="557" on="1"/>
        <pt x="278" y="404" on="0"/>
        <pt x="378" y="196" on="0"/>
        <pt x="542" y="94" on="0"/>
        <pt x="643" y="94" on="1"/>
        <pt x="728" y="94" on="0"/>
        <pt x="908" y="156" on="0"/>
        <pt x="958" y="198" on="1"/>
        <pt x="991" y="123" on="1"/>
        <pt x="951" y="81" on="0"/>
        <pt x="876" y="44" on="1"/>
        <pt x="748" y="-53" on="0"/>
        <pt x="632" y="-192" on="0"/>
        <pt x="632" y="-253" on="1"/>
        <pt x="632" y="-325" on="0"/>
        <pt x="733" y="-395" on="0"/>
        <pt x="809" y="-395" on="1"/>
        <pt x="847" y="-395" on="0"/>
        <pt x="923" y="-376" on="0"/>
        <pt x="956" y="-359" on="1"/>
        <pt x="956" y="-445" on="1"/>
        <pt x="916" y="-475" on="0"/>
        <pt x="799" y="-509" on="0"/>
        <pt x="737" y="-509" on="1"/>
        <pt x="625" y="-509" on="0"/>
        <pt x="470" y="-412" on="0"/>
        <pt x="470" y="-308" on="1"/>
        <pt x="470" y="-262" on="0"/>
        <pt x="526" y="-154" on="0"/>
        <pt x="626" y="-52" on="0"/>
        <pt x="691" y="-14" on="1"/>
        <pt x="640" y="-23" on="0"/>
        <pt x="590" y="-23" on="1"/>
        <pt x="432" y="-23" on="0"/>
        <pt x="209" y="128" on="0"/>
        <pt x="96" y="397" on="0"/>
        <pt x="96" y="574" on="1"/>
      </contour>
      <contour>
        <pt x="830" y="678" on="1"/>
        <pt x="835" y="726" on="0"/>
        <pt x="835" y="769" on="1"/>
        <pt x="834" y="903" on="0"/>
        <pt x="709" y="1062" on="0"/>
        <pt x="579" y="1062" on="1"/>
        <pt x="299" y="1062" on="0"/>
        <pt x="275" y="678" on="1"/>
      </contour>
    </TTGlyph>
    <TTGlyph name="equal" xMin="210" yMin="269" xMax="1127" yMax="962">
      <contour>
        <pt x="1127" y="962" on="1"/>
        <pt x="1127" y="836" on="1"/>
        <pt x="210" y="836" on="1"/>
        <pt x="210" y="962" on="1"/>
      </contour>
      <contour>
        <pt x="1127" y="395" on="1"/>
        <pt x="1127" y="269" on="1"/>
        <pt x="210" y="269" on="1"/>
        <pt x="210" y="395" on="1"/>
      </contour>
    </TTGlyph>
    <TTGlyph name="estimated" xMin="113" yMin="-17" xMax="1280" yMax="1360">
      <contour>
        <pt x="113" y="870" on="0"/>
        <pt x="258" y="1178" on="0"/>
        <pt x="545" y="1354" on="0"/>
        <pt x="751" y="1357" on="1"/>
        <pt x="897" y="1360" on="0"/>
        <pt x="1134" y="1233" on="0"/>
        <pt x="1275" y="993" on="0"/>
        <pt x="1280" y="832" on="1"/>
        <pt x="1280" y="750" on="0"/>
        <pt x="1276" y="660" on="0"/>
        <pt x="1269" y="626" on="1"/>
        <pt x="371" y="626" on="1"/>
        <pt x="371" y="265" on="1"/>
        <pt x="434" y="176" on="0"/>
        <pt x="629" y="84" on="0"/>
        <pt x="747" y="84" on="1"/>
        <pt x="859" y="84" on="0"/>
        <pt x="1080" y="134" on="0"/>
        <pt x="1133" y="170" on="1"/>
        <pt x="1174" y="90" on="1"/>
        <pt x="1111" y="45" on="0"/>
        <pt x="855" y="-17" on="0"/>
        <pt x="738" y="-17" on="1"/>
        <pt x="558" y="-17" on="0"/>
        <pt x="273" y="159" on="0"/>
        <pt x="113" y="473" on="0"/>
        <pt x="113" y="671" on="1"/>
      </contour>
      <contour>
        <pt x="371" y="736" on="1"/>
        <pt x="1039" y="736" on="1"/>
        <pt x="1039" y="1140" on="1"/>
        <pt x="942" y="1264" on="0"/>
        <pt x="741" y="1264" on="1"/>
        <pt x="608" y="1264" on="0"/>
        <pt x="426" y="1180" on="0"/>
        <pt x="371" y="1090" on="1"/>
      </contour>
    </TTGlyph>
    <TTGlyph name="eth" xMin="86" yMin="-23" xMax="1087" yMax="1838">
      <contour>
        <pt x="389" y="1600" on="1"/>
        <pt x="338" y="1634" on="0"/>
        <pt x="209" y="1696" on="0"/>
        <pt x="164" y="1708" on="1"/>
        <pt x="199" y="1791" on="1"/>
        <pt x="277" y="1768" on="0"/>
        <pt x="389" y="1719" on="0"/>
        <pt x="460" y="1680" on="1"/>
        <pt x="494" y="1718" on="0"/>
        <pt x="581" y="1822" on="0"/>
        <pt x="594" y="1838" on="1"/>
        <pt x="670" y="1773" on="1"/>
        <pt x="657" y="1758" on="0"/>
        <pt x="575" y="1662" on="0"/>
        <pt x="544" y="1628" on="1"/>
        <pt x="801" y="1455" on="0"/>
        <pt x="1087" y="971" on="0"/>
        <pt x="1087" y="662" on="1"/>
        <pt x="1087" y="481" on="0"/>
        <pt x="985" y="170" on="0"/>
        <pt x="763" y="-23" on="0"/>
        <pt x="591" y="-23" on="1"/>
        <pt x="420" y="-23" on="0"/>
        <pt x="194" y="118" on="0"/>
        <pt x="86" y="367" on="0"/>
        <pt x="86" y="530" on="1"/>
        <pt x="86" y="734" on="0"/>
        <pt x="231" y="1022" on="0"/>
        <pt x="470" y="1168" on="0"/>
        <pt x="610" y="1168" on="1"/>
        <pt x="722" y="1168" on="0"/>
        <pt x="820" y="1123" on="1"/>
        <pt x="769" y="1242" on="0"/>
        <pt x="586" y="1468" on="0"/>
        <pt x="467" y="1545" on="1"/>
        <pt x="319" y="1369" on="1"/>
        <pt x="237" y="1427" on="1"/>
      </contour>
      <contour>
        <pt x="906" y="818" on="0"/>
        <pt x="861" y="968" on="1"/>
        <pt x="833" y="1009" on="0"/>
        <pt x="700" y="1078" on="0"/>
        <pt x="606" y="1078" on="1"/>
        <pt x="506" y="1078" on="0"/>
        <pt x="353" y="949" on="0"/>
        <pt x="268" y="707" on="0"/>
        <pt x="268" y="543" on="1"/>
        <pt x="268" y="338" on="0"/>
        <pt x="425" y="76" on="0"/>
        <pt x="595" y="76" on="1"/>
        <pt x="755" y="76" on="0"/>
        <pt x="906" y="373" on="0"/>
        <pt x="906" y="649" on="1"/>
      </contour>
    </TTGlyph>
    <TTGlyph name="exclam" xMin="236" yMin="-22" xMax="487" yMax="1780">
      <contour>
        <pt x="448" y="1780" on="1"/>
        <pt x="405" y="472" on="1"/>
        <pt x="301" y="472" on="1"/>
        <pt x="254" y="1780" on="1"/>
      </contour>
      <contour>
        <pt x="429" y="224" on="0"/>
        <pt x="487" y="160" on="0"/>
        <pt x="487" y="111" on="1"/>
        <pt x="487" y="72" on="0"/>
        <pt x="449" y="11" on="0"/>
        <pt x="386" y="-22" on="0"/>
        <pt x="351" y="-22" on="1"/>
        <pt x="304" y="-22" on="0"/>
        <pt x="236" y="40" on="0"/>
        <pt x="236" y="91" on="1"/>
        <pt x="236" y="127" on="0"/>
        <pt x="275" y="188" on="0"/>
        <pt x="338" y="224" on="0"/>
        <pt x="371" y="224" on="1"/>
      </contour>
    </TTGlyph>
    <TTGlyph name="exclamdbl" xMin="236" yMin="-22" xMax="1114" yMax="1780">
      <component glyphName="exclam" x="627" y="0" flags="0x0"/>
      <component glyphName="exclam" x="0" y="0" flags="0x0"/>
    </TTGlyph>
    <TTGlyph name="exclamdown" xMin="241" yMin="-364" xMax="492" yMax="1438">
      <contour>
        <pt x="299" y="1192" on="0"/>
        <pt x="241" y="1256" on="0"/>
        <pt x="241" y="1305" on="1"/>
        <pt x="241" y="1344" on="0"/>
        <pt x="279" y="1405" on="0"/>
        <pt x="342" y="1438" on="0"/>
        <pt x="377" y="1438" on="1"/>
        <pt x="424" y="1438" on="0"/>
        <pt x="492" y="1376" on="0"/>
        <pt x="492" y="1325" on="1"/>
        <pt x="492" y="1289" on="0"/>
        <pt x="453" y="1228" on="0"/>
        <pt x="390" y="1192" on="0"/>
        <pt x="357" y="1192" on="1"/>
      </contour>
      <contour>
        <pt x="280" y="-364" on="1"/>
        <pt x="323" y="944" on="1"/>
        <pt x="427" y="944" on="1"/>
        <pt x="474" y="-364" on="1"/>
      </contour>
    </TTGlyph>
    <TTGlyph name="f" xMin="63" yMin="0" xMax="825" yMax="1688">
      <contour>
        <pt x="271" y="104" on="1"/>
        <pt x="271" y="1014" on="1"/>
        <pt x="63" y="1014" on="1"/>
        <pt x="63" y="1095" on="1"/>
        <pt x="271" y="1135" on="1"/>
        <pt x="271" y="1234" on="1"/>
        <pt x="271" y="1357" on="0"/>
        <pt x="397" y="1566" on="0"/>
        <pt x="601" y="1688" on="0"/>
        <pt x="711" y="1688" on="1"/>
        <pt x="753" y="1688" on="0"/>
        <pt x="802" y="1680" on="0"/>
        <pt x="825" y="1672" on="1"/>
        <pt x="825" y="1503" on="1"/>
        <pt x="807" y="1516" on="0"/>
        <pt x="708" y="1540" on="0"/>
        <pt x="643" y="1540" on="1"/>
        <pt x="571" y="1540" on="0"/>
        <pt x="481" y="1492" on="0"/>
        <pt x="437" y="1382" on="0"/>
        <pt x="437" y="1289" on="1"/>
        <pt x="437" y="1135" on="1"/>
        <pt x="734" y="1135" on="1"/>
        <pt x="734" y="1014" on="1"/>
        <pt x="437" y="1014" on="1"/>
        <pt x="437" y="103" on="1"/>
        <pt x="670" y="88" on="1"/>
        <pt x="670" y="0" on="1"/>
        <pt x="91" y="0" on="1"/>
        <pt x="91" y="88" on="1"/>
      </contour>
    </TTGlyph>
    <TTGlyph name="f_f" xMin="63" yMin="0" xMax="1634" yMax="1688">
      <component glyphName="f" x="0" y="0" flags="0x0"/>
      <component glyphName="f" x="809" y="0" flags="0x0"/>
    </TTGlyph>
    <TTGlyph name="f_f_i" xMin="63" yMin="0" xMax="2229" yMax="1688">
      <component glyphName="f" x="0" y="0" flags="0x0"/>
      <component glyphName="f" x="809" y="0" flags="0x0"/>
      <component glyphName="dotlessi" x="1618" y="0" flags="0x0"/>
      <component glyphName="dotaccent" x="1668" y="0" flags="0x0"/>
    </TTGlyph>
    <TTGlyph name="f_f_l" xMin="63" yMin="0" xMax="2236" yMax="1688">
      <component glyphName="f" x="0" y="0" flags="0x0"/>
      <component glyphName="f" x="809" y="0" flags="0x0"/>
      <component glyphName="l" x="1618" y="0" flags="0x0"/>
    </TTGlyph>
    <TTGlyph name="fi" xMin="63" yMin="0" xMax="1420" yMax="1688">
      <component glyphName="f" x="0" y="0" flags="0x0"/>
      <component glyphName="dotlessi" x="809" y="0" flags="0x0"/>
      <component glyphName="dotaccent" x="859" y="0" flags="0x0"/>
    </TTGlyph>
    <TTGlyph name="five" xMin="195" yMin="-330" xMax="1049" yMax="1318">
      <contour>
        <pt x="471" y="-244" on="0"/>
        <pt x="718" y="-124" on="0"/>
        <pt x="862" y="93" on="0"/>
        <pt x="862" y="233" on="1"/>
        <pt x="862" y="418" on="0"/>
        <pt x="693" y="590" on="0"/>
        <pt x="542" y="590" on="1"/>
        <pt x="474" y="590" on="0"/>
        <pt x="303" y="551" on="0"/>
        <pt x="241" y="521" on="1"/>
        <pt x="195" y="556" on="1"/>
        <pt x="297" y="1279" on="1"/>
        <pt x="847" y="1279" on="1"/>
        <pt x="868" y="1318" on="1"/>
        <pt x="987" y="1318" on="1"/>
        <pt x="955" y="1137" on="1"/>
        <pt x="421" y="1137" on="1"/>
        <pt x="324" y="626" on="1"/>
        <pt x="377" y="656" on="0"/>
        <pt x="549" y="698" on="0"/>
        <pt x="632" y="698" on="1"/>
        <pt x="757" y="698" on="0"/>
        <pt x="944" y="601" on="0"/>
        <pt x="1049" y="403" on="0"/>
        <pt x="1049" y="255" on="1"/>
        <pt x="1049" y="105" on="0"/>
        <pt x="874" y="-164" on="0"/>
        <pt x="551" y="-330" on="0"/>
        <pt x="341" y="-330" on="1"/>
        <pt x="258" y="-330" on="0"/>
        <pt x="198" y="-316" on="1"/>
        <pt x="199" y="-237" on="1"/>
        <pt x="254" y="-244" on="0"/>
        <pt x="321" y="-244" on="1"/>
      </contour>
    </TTGlyph>
    <TTGlyph name="five.numr" xMin="184" yMin="529" xMax="880" yMax="1539">
      <contour>
        <pt x="238" y="617" on="0"/>
        <pt x="318" y="610" on="0"/>
        <pt x="350" y="610" on="1"/>
        <pt x="455" y="610" on="0"/>
        <pt x="623" y="674" on="0"/>
        <pt x="718" y="790" on="0"/>
        <pt x="718" y="865" on="1"/>
        <pt x="718" y="965" on="0"/>
        <pt x="611" y="1066" on="0"/>
        <pt x="498" y="1066" on="1"/>
        <pt x="383" y="1066" on="0"/>
        <pt x="251" y="1013" on="0"/>
        <pt x="247" y="1011" on="1"/>
        <pt x="184" y="1057" on="1"/>
        <pt x="232" y="1539" on="1"/>
        <pt x="842" y="1539" on="1"/>
        <pt x="839" y="1430" on="1"/>
        <pt x="345" y="1430" on="1"/>
        <pt x="300" y="1104" on="1"/>
        <pt x="334" y="1120" on="0"/>
        <pt x="487" y="1160" on="0"/>
        <pt x="556" y="1160" on="1"/>
        <pt x="880" y="1160" on="0"/>
        <pt x="880" y="880" on="1"/>
        <pt x="880" y="785" on="0"/>
        <pt x="760" y="624" on="0"/>
        <pt x="535" y="529" on="0"/>
        <pt x="384" y="529" on="1"/>
        <pt x="264" y="529" on="0"/>
        <pt x="192" y="549" on="1"/>
        <pt x="213" y="624" on="1"/>
      </contour>
    </TTGlyph>
    <TTGlyph name="fiveeighths" xMin="184" yMin="-146" xMax="2309" yMax="1669">
      <contour>
        <pt x="1525" y="1669" on="1"/>
        <pt x="1647" y="1655" on="1"/>
        <pt x="890" y="-146" on="1"/>
        <pt x="766" y="-136" on="1"/>
      </contour>
      <contour>
        <pt x="238" y="617" on="0"/>
        <pt x="318" y="610" on="0"/>
        <pt x="350" y="610" on="1"/>
        <pt x="455" y="610" on="0"/>
        <pt x="623" y="674" on="0"/>
        <pt x="718" y="790" on="0"/>
        <pt x="718" y="865" on="1"/>
        <pt x="718" y="965" on="0"/>
        <pt x="611" y="1066" on="0"/>
        <pt x="498" y="1066" on="1"/>
        <pt x="383" y="1066" on="0"/>
        <pt x="251" y="1013" on="0"/>
        <pt x="247" y="1011" on="1"/>
        <pt x="184" y="1057" on="1"/>
        <pt x="232" y="1539" on="1"/>
        <pt x="842" y="1539" on="1"/>
        <pt x="839" y="1430" on="1"/>
        <pt x="345" y="1430" on="1"/>
        <pt x="300" y="1104" on="1"/>
        <pt x="334" y="1120" on="0"/>
        <pt x="487" y="1160" on="0"/>
        <pt x="556" y="1160" on="1"/>
        <pt x="880" y="1160" on="0"/>
        <pt x="880" y="880" on="1"/>
        <pt x="880" y="785" on="0"/>
        <pt x="760" y="624" on="0"/>
        <pt x="535" y="529" on="0"/>
        <pt x="384" y="529" on="1"/>
        <pt x="264" y="529" on="0"/>
        <pt x="192" y="549" on="1"/>
        <pt x="213" y="624" on="1"/>
      </contour>
      <contour>
        <pt x="1507" y="341" on="0"/>
        <pt x="1617" y="472" on="0"/>
        <pt x="1724" y="513" on="1"/>
        <pt x="1645" y="556" on="0"/>
        <pt x="1556" y="668" on="0"/>
        <pt x="1556" y="747" on="1"/>
        <pt x="1556" y="833" on="0"/>
        <pt x="1654" y="960" on="0"/>
        <pt x="1817" y="1027" on="0"/>
        <pt x="1914" y="1027" on="1"/>
        <pt x="2019" y="1027" on="0"/>
        <pt x="2177" y="961" on="0"/>
        <pt x="2261" y="845" on="0"/>
        <pt x="2261" y="774" on="1"/>
        <pt x="2261" y="708" on="0"/>
        <pt x="2164" y="568" on="0"/>
        <pt x="2079" y="518" on="1"/>
        <pt x="2188" y="469" on="0"/>
        <pt x="2309" y="351" on="0"/>
        <pt x="2309" y="262" on="1"/>
        <pt x="2309" y="177" on="0"/>
        <pt x="2203" y="49" on="0"/>
        <pt x="2025" y="-20" on="0"/>
        <pt x="1920" y="-20" on="1"/>
        <pt x="1816" y="-20" on="0"/>
        <pt x="1627" y="40" on="0"/>
        <pt x="1507" y="169" on="0"/>
        <pt x="1507" y="268" on="1"/>
      </contour>
      <contour>
        <pt x="2050" y="588" on="0"/>
        <pt x="2124" y="703" on="0"/>
        <pt x="2124" y="752" on="1"/>
        <pt x="2124" y="811" on="0"/>
        <pt x="2070" y="901" on="0"/>
        <pt x="1972" y="950" on="0"/>
        <pt x="1909" y="950" on="1"/>
        <pt x="1851" y="950" on="0"/>
        <pt x="1752" y="904" on="0"/>
        <pt x="1694" y="824" on="0"/>
        <pt x="1694" y="775" on="1"/>
        <pt x="1694" y="726" on="0"/>
        <pt x="1766" y="652" on="0"/>
        <pt x="1873" y="600" on="0"/>
        <pt x="1966" y="564" on="1"/>
        <pt x="1991" y="554" on="1"/>
      </contour>
      <contour>
        <pt x="1735" y="452" on="0"/>
        <pt x="1658" y="350" on="0"/>
        <pt x="1658" y="292" on="1"/>
        <pt x="1658" y="182" on="0"/>
        <pt x="1797" y="55" on="0"/>
        <pt x="1917" y="55" on="1"/>
        <pt x="1975" y="55" on="0"/>
        <pt x="2084" y="99" on="0"/>
        <pt x="2152" y="180" on="0"/>
        <pt x="2152" y="231" on="1"/>
        <pt x="2152" y="280" on="0"/>
        <pt x="2083" y="352" on="0"/>
        <pt x="1981" y="402" on="0"/>
        <pt x="1891" y="438" on="1"/>
        <pt x="1800" y="476" on="1"/>
      </contour>
    </TTGlyph>
    <TTGlyph name="fl" xMin="63" yMin="0" xMax="1427" yMax="1688">
      <component glyphName="f" x="0" y="0" flags="0x0"/>
      <component glyphName="l" x="809" y="0" flags="0x0"/>
    </TTGlyph>
    <TTGlyph name="florin" xMin="226" yMin="-356" xMax="1035" yMax="1685">
      <contour>
        <pt x="226" y="1014" on="1"/>
        <pt x="232" y="1087" on="1"/>
        <pt x="444" y="1135" on="1"/>
        <pt x="455" y="1216" on="1"/>
        <pt x="467" y="1361" on="0"/>
        <pt x="596" y="1574" on="0"/>
        <pt x="787" y="1685" on="0"/>
        <pt x="890" y="1685" on="1"/>
        <pt x="946" y="1685" on="0"/>
        <pt x="1021" y="1674" on="0"/>
        <pt x="1035" y="1668" on="1"/>
        <pt x="1016" y="1524" on="1"/>
        <pt x="997" y="1535" on="0"/>
        <pt x="915" y="1553" on="0"/>
        <pt x="852" y="1553" on="1"/>
        <pt x="752" y="1553" on="0"/>
        <pt x="636" y="1431" on="0"/>
        <pt x="623" y="1273" on="1"/>
        <pt x="607" y="1135" on="1"/>
        <pt x="926" y="1135" on="1"/>
        <pt x="917" y="1014" on="1"/>
        <pt x="597" y="1014" on="1"/>
        <pt x="480" y="-356" on="1"/>
        <pt x="318" y="-356" on="1"/>
        <pt x="433" y="1014" on="1"/>
      </contour>
    </TTGlyph>
    <TTGlyph name="four" xMin="85" yMin="-330" xMax="1260" yMax="1391">
      <contour>
        <pt x="219" y="332" on="0"/>
        <pt x="574" y="1074" on="0"/>
        <pt x="717" y="1391" on="1"/>
        <pt x="765" y="1391" on="1"/>
        <pt x="886" y="1324" on="1"/>
        <pt x="313" y="215" on="1"/>
        <pt x="235" y="95" on="1"/>
        <pt x="810" y="122" on="1"/>
        <pt x="811" y="532" on="1"/>
        <pt x="957" y="545" on="1"/>
        <pt x="957" y="129" on="1"/>
        <pt x="1260" y="144" on="1"/>
        <pt x="1260" y="0" on="1"/>
        <pt x="957" y="0" on="1"/>
        <pt x="957" y="-330" on="1"/>
        <pt x="810" y="-330" on="1"/>
        <pt x="810" y="0" on="1"/>
        <pt x="129" y="0" on="1"/>
        <pt x="85" y="81" on="1"/>
      </contour>
    </TTGlyph>
    <TTGlyph name="four.dnom" xMin="60" yMin="0" xMax="950" yMax="1086">
      <contour>
        <pt x="60" y="270" on="0"/>
        <pt x="177" y="474" on="1"/>
        <pt x="225" y="558" on="0"/>
        <pt x="522" y="1079" on="0"/>
        <pt x="524" y="1086" on="1"/>
        <pt x="660" y="1086" on="1"/>
        <pt x="689" y="1052" on="1"/>
        <pt x="275" y="376" on="1"/>
        <pt x="207" y="284" on="1"/>
        <pt x="621" y="303" on="1"/>
        <pt x="635" y="586" on="1"/>
        <pt x="763" y="596" on="1"/>
        <pt x="763" y="310" on="1"/>
        <pt x="950" y="319" on="1"/>
        <pt x="950" y="201" on="1"/>
        <pt x="763" y="201" on="1"/>
        <pt x="763" y="0" on="1"/>
        <pt x="620" y="0" on="1"/>
        <pt x="620" y="201" on="1"/>
        <pt x="113" y="201" on="1"/>
        <pt x="60" y="270" on="1"/>
      </contour>
    </TTGlyph>
    <TTGlyph name="fraction" xMin="-256" yMin="-146" xMax="625" yMax="1669">
      <contour>
        <pt x="503" y="1669" on="1"/>
        <pt x="625" y="1655" on="1"/>
        <pt x="-132" y="-146" on="1"/>
        <pt x="-256" y="-136" on="1"/>
      </contour>
    </TTGlyph>
    <TTGlyph name="franc" xMin="100" yMin="0" xMax="1244" yMax="1522">
      <contour>
        <pt x="314" y="440" on="1"/>
        <pt x="314" y="1400" on="1"/>
        <pt x="139" y="1425" on="1"/>
        <pt x="139" y="1522" on="1"/>
        <pt x="1223" y="1522" on="1"/>
        <pt x="1244" y="1178" on="1"/>
        <pt x="1112" y="1178" on="1"/>
        <pt x="1052" y="1409" on="1"/>
        <pt x="516" y="1418" on="1"/>
        <pt x="516" y="830" on="1"/>
        <pt x="893" y="833" on="1"/>
        <pt x="930" y="1001" on="1"/>
        <pt x="1041" y="1001" on="1"/>
        <pt x="1041" y="532" on="1"/>
        <pt x="930" y="532" on="1"/>
        <pt x="893" y="712" on="1"/>
        <pt x="516" y="719" on="1"/>
        <pt x="516" y="440" on="1"/>
        <pt x="781" y="440" on="1"/>
        <pt x="781" y="310" on="1"/>
        <pt x="516" y="310" on="1"/>
        <pt x="516" y="122" on="1"/>
        <pt x="774" y="98" on="1"/>
        <pt x="774" y="0" on="1"/>
        <pt x="149" y="0" on="1"/>
        <pt x="149" y="98" on="1"/>
        <pt x="314" y="122" on="1"/>
        <pt x="314" y="310" on="1"/>
        <pt x="100" y="310" on="1"/>
        <pt x="100" y="440" on="1"/>
      </contour>
    </TTGlyph>
    <TTGlyph name="g" xMin="95" yMin="-552" xMax="1200" yMax="1168">
      <contour>
        <pt x="571" y="407" on="1"/>
        <pt x="487" y="407" on="0"/>
        <pt x="418" y="426" on="1"/>
        <pt x="381" y="397" on="0"/>
        <pt x="338" y="320" on="0"/>
        <pt x="338" y="283" on="1"/>
        <pt x="338" y="229" on="0"/>
        <pt x="382" y="169" on="0"/>
        <pt x="479" y="143" on="0"/>
        <pt x="564" y="143" on="1"/>
        <pt x="804" y="143" on="1"/>
        <pt x="994" y="143" on="0"/>
        <pt x="1177" y="-4" on="0"/>
        <pt x="1177" y="-137" on="1"/>
        <pt x="1177" y="-247" on="0"/>
        <pt x="1017" y="-438" on="0"/>
        <pt x="743" y="-552" on="0"/>
        <pt x="579" y="-552" on="1"/>
        <pt x="578" y="-552" on="1"/>
        <pt x="323" y="-552" on="0"/>
        <pt x="95" y="-390" on="0"/>
        <pt x="95" y="-246" on="1"/>
        <pt x="95" y="-154" on="0"/>
        <pt x="208" y="-1" on="0"/>
        <pt x="284" y="41" on="1"/>
        <pt x="188" y="93" on="0"/>
        <pt x="188" y="211" on="1"/>
        <pt x="188" y="287" on="0"/>
        <pt x="275" y="419" on="0"/>
        <pt x="341" y="455" on="1"/>
        <pt x="246" y="500" on="0"/>
        <pt x="138" y="666" on="0"/>
        <pt x="138" y="777" on="1"/>
        <pt x="138" y="897" on="0"/>
        <pt x="268" y="1074" on="0"/>
        <pt x="478" y="1168" on="0"/>
        <pt x="593" y="1168" on="1"/>
        <pt x="594" y="1168" on="1"/>
        <pt x="685" y="1168" on="0"/>
        <pt x="842" y="1126" on="0"/>
        <pt x="899" y="1083" on="1"/>
        <pt x="931" y="1111" on="0"/>
        <pt x="1059" y="1168" on="0"/>
        <pt x="1133" y="1168" on="1"/>
        <pt x="1200" y="1168" on="1"/>
        <pt x="1200" y="1016" on="1"/>
        <pt x="967" y="1016" on="1"/>
        <pt x="1026" y="933" on="0"/>
        <pt x="1026" y="817" on="1"/>
        <pt x="1026" y="696" on="0"/>
        <pt x="904" y="510" on="0"/>
        <pt x="696" y="407" on="0"/>
        <pt x="572" y="407" on="1"/>
      </contour>
      <contour>
        <pt x="582" y="1067" on="1"/>
        <pt x="311" y="1067" on="0"/>
        <pt x="311" y="798" on="1"/>
        <pt x="311" y="668" on="0"/>
        <pt x="450" y="508" on="0"/>
        <pt x="591" y="508" on="1"/>
        <pt x="592" y="508" on="1"/>
        <pt x="852" y="508" on="0"/>
        <pt x="852" y="795" on="1"/>
        <pt x="852" y="1067" on="0"/>
        <pt x="583" y="1067" on="1"/>
      </contour>
      <contour>
        <pt x="261" y="-83" on="0"/>
        <pt x="261" y="-213" on="1"/>
        <pt x="261" y="-291" on="0"/>
        <pt x="321" y="-393" on="0"/>
        <pt x="464" y="-448" on="0"/>
        <pt x="587" y="-448" on="1"/>
        <pt x="589" y="-448" on="1"/>
        <pt x="699" y="-448" on="0"/>
        <pt x="898" y="-384" on="0"/>
        <pt x="1021" y="-264" on="0"/>
        <pt x="1021" y="-184" on="1"/>
        <pt x="1021" y="-121" on="0"/>
        <pt x="983" y="-43" on="0"/>
        <pt x="870" y="-1" on="0"/>
        <pt x="763" y="-1" on="1"/>
        <pt x="509" y="-1" on="1"/>
        <pt x="421" y="-1" on="0"/>
        <pt x="361" y="13" on="1"/>
      </contour>
    </TTGlyph>
    <TTGlyph name="gbreve" xMin="95" yMin="-552" xMax="1200" yMax="1748">
      <component glyphName="g" x="0" y="0" flags="0x0"/>
      <component glyphName="breve" x="86" y="0" flags="0x0"/>
    </TTGlyph>
    <TTGlyph name="gcircumflex" xMin="87" yMin="-552" xMax="1192" yMax="1776">
      <component glyphName="circumflex" x="63" y="0" flags="0x0"/>
      <component glyphName="g" x="-8" y="0" flags="0x0"/>
    </TTGlyph>
    <TTGlyph name="gcommaaccent" xMin="87" yMin="-552" xMax="1192" yMax="1770">
      <contour>
        <pt x="606" y="1770" on="1"/>
        <pt x="660" y="1732" on="1"/>
        <pt x="660" y="1719" on="1"/>
        <pt x="630" y="1703" on="0"/>
        <pt x="591" y="1619" on="0"/>
        <pt x="591" y="1572" on="1"/>
        <pt x="591" y="1544" on="0"/>
        <pt x="614" y="1511" on="0"/>
        <pt x="634" y="1498" on="1"/>
        <pt x="653" y="1484" on="0"/>
        <pt x="674" y="1451" on="0"/>
        <pt x="674" y="1421" on="1"/>
        <pt x="674" y="1387" on="0"/>
        <pt x="642" y="1347" on="0"/>
        <pt x="600" y="1331" on="0"/>
        <pt x="583" y="1331" on="1"/>
        <pt x="574" y="1331" on="1"/>
        <pt x="517" y="1331" on="0"/>
        <pt x="450" y="1418" on="0"/>
        <pt x="450" y="1496" on="1"/>
        <pt x="450" y="1571" on="0"/>
        <pt x="512" y="1691" on="0"/>
        <pt x="587" y="1764" on="0"/>
        <pt x="604" y="1770" on="1"/>
      </contour>
      <contour>
        <pt x="563" y="407" on="1"/>
        <pt x="479" y="407" on="0"/>
        <pt x="410" y="426" on="1"/>
        <pt x="373" y="397" on="0"/>
        <pt x="330" y="320" on="0"/>
        <pt x="330" y="283" on="1"/>
        <pt x="330" y="229" on="0"/>
        <pt x="374" y="169" on="0"/>
        <pt x="471" y="143" on="0"/>
        <pt x="556" y="143" on="1"/>
        <pt x="796" y="143" on="1"/>
        <pt x="986" y="143" on="0"/>
        <pt x="1169" y="-4" on="0"/>
        <pt x="1169" y="-137" on="1"/>
        <pt x="1169" y="-247" on="0"/>
        <pt x="1009" y="-438" on="0"/>
        <pt x="735" y="-552" on="0"/>
        <pt x="571" y="-552" on="1"/>
        <pt x="570" y="-552" on="1"/>
        <pt x="315" y="-552" on="0"/>
        <pt x="87" y="-390" on="0"/>
        <pt x="87" y="-246" on="1"/>
        <pt x="87" y="-154" on="0"/>
        <pt x="200" y="-1" on="0"/>
        <pt x="276" y="41" on="1"/>
        <pt x="180" y="93" on="0"/>
        <pt x="180" y="211" on="1"/>
        <pt x="180" y="287" on="0"/>
        <pt x="267" y="419" on="0"/>
        <pt x="333" y="455" on="1"/>
        <pt x="238" y="500" on="0"/>
        <pt x="130" y="666" on="0"/>
        <pt x="130" y="777" on="1"/>
        <pt x="130" y="897" on="0"/>
        <pt x="260" y="1074" on="0"/>
        <pt x="470" y="1168" on="0"/>
        <pt x="585" y="1168" on="1"/>
        <pt x="586" y="1168" on="1"/>
        <pt x="677" y="1168" on="0"/>
        <pt x="834" y="1126" on="0"/>
        <pt x="891" y="1083" on="1"/>
        <pt x="923" y="1111" on="0"/>
        <pt x="1051" y="1168" on="0"/>
        <pt x="1125" y="1168" on="1"/>
        <pt x="1192" y="1168" on="1"/>
        <pt x="1192" y="1016" on="1"/>
        <pt x="959" y="1016" on="1"/>
        <pt x="1018" y="933" on="0"/>
        <pt x="1018" y="817" on="1"/>
        <pt x="1018" y="696" on="0"/>
        <pt x="896" y="510" on="0"/>
        <pt x="688" y="407" on="0"/>
        <pt x="564" y="407" on="1"/>
      </contour>
      <contour>
        <pt x="574" y="1067" on="1"/>
        <pt x="303" y="1067" on="0"/>
        <pt x="303" y="798" on="1"/>
        <pt x="303" y="668" on="0"/>
        <pt x="442" y="508" on="0"/>
        <pt x="583" y="508" on="1"/>
        <pt x="584" y="508" on="1"/>
        <pt x="844" y="508" on="0"/>
        <pt x="844" y="795" on="1"/>
        <pt x="844" y="1067" on="0"/>
        <pt x="575" y="1067" on="1"/>
      </contour>
      <contour>
        <pt x="253" y="-83" on="0"/>
        <pt x="253" y="-213" on="1"/>
        <pt x="253" y="-291" on="0"/>
        <pt x="313" y="-393" on="0"/>
        <pt x="456" y="-448" on="0"/>
        <pt x="579" y="-448" on="1"/>
        <pt x="581" y="-448" on="1"/>
        <pt x="691" y="-448" on="0"/>
        <pt x="890" y="-384" on="0"/>
        <pt x="1013" y="-264" on="0"/>
        <pt x="1013" y="-184" on="1"/>
        <pt x="1013" y="-121" on="0"/>
        <pt x="975" y="-43" on="0"/>
        <pt x="862" y="-1" on="0"/>
        <pt x="755" y="-1" on="1"/>
        <pt x="501" y="-1" on="1"/>
        <pt x="413" y="-1" on="0"/>
        <pt x="353" y="13" on="1"/>
      </contour>
    </TTGlyph>
    <TTGlyph name="gdotaccent" xMin="95" yMin="-552" xMax="1200" yMax="1625">
      <component glyphName="g" x="0" y="0" flags="0x0"/>
      <component glyphName="dotaccent" x="311" y="0" flags="0x0"/>
    </TTGlyph>
    <TTGlyph name="germandbls" xMin="54" yMin="-23" xMax="1228" yMax="1604">
      <contour>
        <pt x="198" y="105" on="1"/>
        <pt x="198" y="949" on="1"/>
        <pt x="198" y="1156" on="0"/>
        <pt x="352" y="1452" on="0"/>
        <pt x="608" y="1604" on="0"/>
        <pt x="758" y="1604" on="1"/>
        <pt x="851" y="1604" on="0"/>
        <pt x="1004" y="1546" on="0"/>
        <pt x="1095" y="1423" on="0"/>
        <pt x="1095" y="1331" on="1"/>
        <pt x="1095" y="1270" on="0"/>
        <pt x="1057" y="1172" on="0"/>
        <pt x="1003" y="1102" on="0"/>
        <pt x="960" y="1057" on="1"/>
        <pt x="926" y="1020" on="0"/>
        <pt x="889" y="975" on="0"/>
        <pt x="864" y="919" on="0"/>
        <pt x="864" y="888" on="1"/>
        <pt x="864" y="850" on="0"/>
        <pt x="903" y="783" on="0"/>
        <pt x="962" y="724" on="0"/>
        <pt x="1013" y="681" on="1"/>
        <pt x="1081" y="623" on="0"/>
        <pt x="1167" y="533" on="0"/>
        <pt x="1228" y="408" on="0"/>
        <pt x="1228" y="330" on="1"/>
        <pt x="1228" y="214" on="0"/>
        <pt x="1110" y="55" on="0"/>
        <pt x="907" y="-23" on="0"/>
        <pt x="779" y="-23" on="1"/>
        <pt x="740" y="-23" on="0"/>
        <pt x="641" y="-9" on="0"/>
        <pt x="607" y="0" on="1"/>
        <pt x="607" y="135" on="1"/>
        <pt x="646" y="119" on="0"/>
        <pt x="751" y="99" on="0"/>
        <pt x="806" y="99" on="1"/>
        <pt x="930" y="99" on="0"/>
        <pt x="1051" y="204" on="0"/>
        <pt x="1051" y="291" on="1"/>
        <pt x="1051" y="348" on="0"/>
        <pt x="1005" y="442" on="0"/>
        <pt x="938" y="513" on="0"/>
        <pt x="881" y="564" on="1"/>
        <pt x="823" y="615" on="0"/>
        <pt x="753" y="691" on="0"/>
        <pt x="705" y="790" on="0"/>
        <pt x="705" y="850" on="1"/>
        <pt x="705" y="895" on="0"/>
        <pt x="753" y="976" on="0"/>
        <pt x="803" y="1035" on="1"/>
        <pt x="841" y="1081" on="0"/>
        <pt x="890" y="1149" on="0"/>
        <pt x="923" y="1234" on="0"/>
        <pt x="923" y="1282" on="1"/>
        <pt x="923" y="1497" on="0"/>
        <pt x="710" y="1497" on="1"/>
        <pt x="605" y="1497" on="0"/>
        <pt x="451" y="1381" on="0"/>
        <pt x="367" y="1149" on="0"/>
        <pt x="367" y="980" on="1"/>
        <pt x="367" y="0" on="1"/>
        <pt x="54" y="0" on="1"/>
        <pt x="54" y="88" on="1"/>
      </contour>
    </TTGlyph>
</ttFont>
